<?xml version="1.0" encoding="UTF-8"?>
<svg width="42px" height="43px" viewBox="0 0 42 43" version="1.1" xmlns="http://www.w3.org/2000/svg" xmlns:xlink="http://www.w3.org/1999/xlink">
    <!-- Generator: Sketch 63.1 (92452) - https://sketch.com -->
    <title>default-avatar</title>
    <desc>Created with Sketch.</desc>
    <g id="Page-1" stroke="none" stroke-width="1" fill="none" fill-rule="evenodd">
        <g id="Section-4" transform="translate(-28.000000, -43.000000)" fill="#C0C0C0" fill-rule="nonzero">
            <g id="Sidebar">
                <g id="Ident" transform="translate(24.000000, 34.000000)">
                    <g id="person">
                        <g id="default-avatar" transform="translate(4.000000, 9.000000)">
                            <path d="M21,22 C27.0752106,22 32,17.0750426 32,11 C32,4.92478938 27.0752106,0 21,0 C14.9247894,0 10,4.92478937 10,11 C10,17.0750426 14.9247894,22 21,22 Z" id="Path"></path>
                            <path d="M23.625,23 L18.375,23 C8.03905121,23 0,28.8842042 0,34.2 L0,39.8 C0,41.3463958 1.17525266,42.6 2.625,42.6 L39.375,42.6 C40.824746,42.6 42,41.3463958 42,39.8 L42,34.2 C42,28.8842042 34.125,23 23.625,23 Z" id="Path"></path>
                        </g>
                    </g>
                </g>
            </g>
        </g>
    </g>
</svg>