<?xml version="1.0" encoding="UTF-8"?>
<svg width="80px" height="17px" viewBox="0 0 80 17" version="1.1" xmlns="http://www.w3.org/2000/svg" xmlns:xlink="http://www.w3.org/1999/xlink">
    <!-- Generator: Sketch 63.1 (92452) - https://sketch.com -->
    <title>divider</title>
    <desc>Created with Sketch.</desc>
    <g id="Home-Page" stroke="none" stroke-width="1" fill="none" fill-rule="evenodd">
        <g id="Under-Construction-Page---Narrow" transform="translate(-150.000000, -836.000000)">
            <g id="divider" transform="translate(150.000000, 836.000000)">
                <line x1="55.5" y1="7.5" x2="79.5" y2="7.5" id="right" stroke="#CCCCCC" stroke-linecap="square"></line>
                <path d="M47.4537386,1.59506139 C45.3907777,-0.531687129 42.047502,-0.531687129 39.9845411,1.59506139 L39.9407238,1.64029144 C37.8782167,-0.486499627 34.5537965,-0.506455313 32.5160862,1.59506139 C30.4773857,3.69798222 30.4975202,7.12580742 32.5599448,9.25196025 L39.9845411,17 L47.4537386,9.29723285 C49.5154205,7.17103747 49.5154205,3.721895 47.4537386,1.59506139 Z M46.5202488,8.33446673 L39.9845411,15.0745954 L34.3830658,9.2971052 L33.4934346,8.28923668 C31.9492671,6.69695165 31.9291326,4.12602956 33.4496173,2.5577424 C34.1773061,1.80712778 35.1499509,1.39363235 36.1881979,1.39363235 C37.2497976,1.39363235 38.2511588,1.82308382 39.0071927,2.60297245 L39.9406825,3.56633426 L40.8741723,2.60297245 C41.6658542,1.78653385 42.6611916,1.36172027 43.7197794,1.36172027 C44.7770468,1.36172027 45.7724255,1.78653385 46.5202488,2.5577424 C48.0636324,4.15066568 48.0636324,6.7421817 46.5202488,8.33446673 Z" id="Shape" fill="#CCCCCC" fill-rule="nonzero"></path>
                <line x1="0.5" y1="7.5" x2="24.5" y2="7.5" id="left" stroke="#CCCCCC" fill="#CCCCCC" stroke-linecap="square"></line>
            </g>
        </g>
    </g>
</svg>