<?xml version="1.0" encoding="UTF-8"?>
<svg width="12px" height="26px" viewBox="0 0 12 26" version="1.1" xmlns="http://www.w3.org/2000/svg" xmlns:xlink="http://www.w3.org/1999/xlink">
    <!-- Generator: Sketch 63.1 (92452) - https://sketch.com -->
    <title>facebook-glyph-white</title>
    <desc>Created with Sketch.</desc>
    <g id="Page-1" stroke="none" stroke-width="1" fill="none" fill-rule="evenodd">
        <g id="Under-Construction-Page---Narrow" transform="translate(-155.000000, -932.000000)" fill="#FFFFFF" fill-rule="nonzero">
            <g id="Group-3" transform="translate(136.000000, 919.000000)">
                <g id="FB">
                    <path d="M31,21.418919 L26.9132238,21.418919 L26.9132238,18.7204297 C26.9132238,17.7070161 27.5803585,17.4707514 28.0502469,17.4707514 C28.5190637,17.4707514 30.9342389,17.4707514 30.9342389,17.4707514 L30.9342389,13.0156073 L26.9624038,13 C22.553279,13 21.5498935,16.322789 21.5498935,18.4491813 L21.5498935,21.418919 L19,21.418919 L19,26.0096869 L21.5498935,26.0096869 C21.5498935,31.9012627 21.5498935,39 21.5498935,39 L26.9132238,39 C26.9132238,39 26.9132238,31.8312978 26.9132238,26.0096869 L30.5322547,26.0096869 L31,21.418919 L31,21.418919 Z" id="facebook-glyph-white"></path>
                </g>
            </g>
        </g>
    </g>
</svg>