<?xml version="1.0" encoding="utf-8"?>
<!-- Generator: Adobe Illustrator 24.1.0, SVG Export Plug-In . SVG Version: 6.00 Build 0)  -->
<svg version="1.1" id="Layer_1" xmlns="http://www.w3.org/2000/svg" xmlns:xlink="http://www.w3.org/1999/xlink" x="0px" y="0px"
	 viewBox="0 0 512 512" style="enable-background:new 0 0 512 512;" xml:space="preserve">
<style type="text/css">
	.st0{fill:#3A3A3A;}
	.st1{fill:none;stroke:#FFFFFF;stroke-width:21;stroke-linecap:round;stroke-linejoin:round;stroke-miterlimit:79.8403;}
</style>
<g>
	<path class="st0" d="M512,467c0,24.8-20.2,45-45,45H45c-24.8,0-45-20.2-45-45V45C0,20.2,20.2,0,45,0h422c24.8,0,45,20.2,45,45V467z
		"/>
</g>
<g id="Document" transform="scale(1 -1)">
	<g id="Spread" transform="translate(0 -48)">
		<g id="Layer_1_1_">
			<path class="st1" d="M160.1-369.9c-22.3,10.3-41.8,43.7-25,66.3c11.4,15.3,32.6,21.2,35.9,25.6c-4.6,21.2,2.6,89,12.8,107.1
				c8.3,14.9,22.8,17.2,35.9,22.5c3.9,18.1,4.9,24.2-3.6,40.2c-2.8,5.3-4.2,17.2,5.5,9.7c2.1,3.1-0.1,13.4,0.6,18.3
				c0.3,2.5,24.8,32.6,27.4,35.3c1.2-0.1,5.6,2,6.7,1.1"/>
			<path class="st1" d="M121.7-372.9h76.7"/>
			<path class="st1" d="M171-276.7c10.1-11.7,15.8-18.3,29.2-26.2"/>
			<path class="st1" d="M223.4-130.7c6.9-16.4,0.6-8.5,12.1-18.2"/>
			<path class="st1" d="M351.9-369.9c22.3,10.3,41.8,43.7,25,66.3c-11.4,15.3-32.6,21.2-35.9,25.6c4.6,21.2-2.6,89-12.8,107.1
				c-8.3,14.9-22.8,17.2-35.9,22.5c-3.9,18.1-4.9,24.2,3.6,40.2c2.8,5.3,4.2,17.2-5.5,9.7c-2.1,3.1,0.1,13.4-0.6,18.3
				c-0.4,2.5-24.8,32.6-27.4,35.3c-1.2-0.1-5.1,2.5-6.2,1.6"/>
			<path class="st1" d="M390.3-372.9h-76.7"/>
			<path class="st1" d="M341-276.7c-10.1-11.7-15.8-18.3-29.2-26.2"/>
			<path class="st1" d="M288.6-130.7c-6.9-16.4-0.3-9.4-11.8-19.2"/>
		</g>
	</g>
</g>
</svg>
