<svg id="Layer_1" data-name="Layer 1" xmlns="http://www.w3.org/2000/svg" viewBox="0 0 512 512"><defs><style>.cls-1{fill:#494949;}.cls-2{fill:#aa76b7;}</style></defs><path class="cls-1" d="M512,467a45.07,45.07,0,0,1-45,45H45A45.07,45.07,0,0,1,0,467V45A45.07,45.07,0,0,1,45,0H467a45.07,45.07,0,0,1,45,45Z"/><path class="cls-2" d="M-99.1,353q-33.2-34.19-33.19-94.57,0-65.18,32-101t96.38-35.79q40.38,0,75.58,12.4v38A198.22,198.22,0,0,0-.72,158.83q-46.8,0-67.19,24.8T-88.3,258.41q0,45.58,21.79,68.78T.08,350.38q39.59,0,72-12.4v38.4Q37.65,387.17-3.52,387.17-65.9,387.17-99.1,353Z"/><path class="cls-2" d="M114.44,125.64h44.79L240.8,292.4,322,125.64h44.79V383.17H323.58V196.42L254,338.79H227.61l-70-142.37V383.17H114.44Z"/><path class="cls-2" d="M444.35,361.58q-29.21-25.59-29.2-74v-162h43.59V286q0,32,17.6,48.19t50.78,16.19q32.79,0,50.39-16.19T595.11,286V125.64h43.18v162q0,48.39-29,74t-82.18,25.59Q473.53,387.17,444.35,361.58Z"/></svg>