<?xml version="1.0" encoding="UTF-8"?>
<svg width="17px" height="17px" viewBox="0 0 17 17" version="1.1" xmlns="http://www.w3.org/2000/svg" xmlns:xlink="http://www.w3.org/1999/xlink">
    <!-- Generator: Sketch 63.1 (92452) - https://sketch.com -->
    <title>subtle-checkbox</title>
    <desc>Created with Sketch.</desc>
    <g id="Page-1" stroke="none" stroke-width="1" fill="none" fill-rule="evenodd">
        <g id="Section-2" transform="translate(-261.000000, -291.000000)" fill="#949494" fill-rule="nonzero">
            <g id="Sidebar">
                <g id="Item" transform="translate(0.000000, 274.000000)">
                    <path d="M277.453641,25.5 L277.453641,29.952381 C277.451116,32.1867374 275.698655,33.9973904 273.536108,34 L264.917534,34 C262.754987,33.9973904 261.002526,32.1867374 261,29.952381 L261,21.047619 C261.002526,18.8132626 262.754987,17.0026096 264.917534,17 L274.502093,17 C274.934812,17 275.2856,17.3624362 275.2856,17.8095238 C275.2856,18.2566115 274.934812,18.6190476 274.502093,18.6190476 L264.917534,18.6190476 C263.619968,18.6205199 262.568438,19.7069664 262.567013,21.047619 L262.567013,29.952381 C262.568438,31.2930336 263.619968,32.3794801 264.917534,32.3809524 L273.536108,32.3809524 C274.833673,32.3794801 275.885203,31.2930336 275.886628,29.952381 L275.886628,25.5 C275.886628,25.0529123 276.237416,24.6904762 276.670135,24.6904762 C277.102853,24.6904762 277.453641,25.0529123 277.453641,25.5 Z" id="subtle-checkbox"></path>
                </g>
            </g>
        </g>
    </g>
</svg>