<?xml version="1.0" encoding="UTF-8"?>
<svg width="33px" height="32px" viewBox="0 0 33 32" version="1.1" xmlns="http://www.w3.org/2000/svg" xmlns:xlink="http://www.w3.org/1999/xlink">
    <!-- Generator: Sketch 63.1 (92452) - https://sketch.com -->
    <title>google-icon</title>
    <desc>Created with Sketch.</desc>
    <g id="Page-1" stroke="none" stroke-width="1" fill="none" fill-rule="evenodd">
        <g id="Home-Page---Narrow" transform="translate(-244.000000, -3570.000000)" fill="#FFFFFF" fill-rule="nonzero">
            <g id="Footer" transform="translate(0.000000, 3551.000000)">
                <g id="Top-Bar">
                    <g id="Socials" transform="translate(244.000000, 19.000000)">
                        <g id="google-icon">
                            <path d="M16.4739235,0.00996470588 C7.67353529,0.00996470588 0.5401,7.14527647 0.5401,15.9437882 C0.5401,24.7435294 7.67353529,31.8763176 16.4739235,31.8763176 C25.2736647,31.8763176 32.4077471,24.7435294 32.4077471,15.9437882 C32.4077471,7.14521176 25.2736647,0.00996470588 16.4739235,0.00996470588 Z M25.6285118,19.3336647 C25.1774471,20.8876412 24.3255294,22.3336882 23.1311882,23.4312294 C22.0012941,24.4744176 20.5861118,25.1891588 19.0903706,25.5333941 C17.4353882,25.9100471 15.6851588,25.9200765 14.0409824,25.4790412 C12.738,25.1324765 11.5089765,24.5114294 10.4546588,23.6706412 C9.33705882,22.7824235 8.41571176,21.6494235 7.77311765,20.3749765 C6.78428235,18.4224118 6.48016471,16.1366765 6.91647647,13.9929059 C7.08995294,13.1324471 7.37873529,12.2959294 7.77421765,11.5121471 C8.91032353,9.23767059 10.9593,7.43813529 13.3655824,6.6143 C15.5008765,5.87529412 17.8929235,5.89185882 20.0139824,6.67253529 C21.1920824,7.10509412 22.2703412,7.78935882 23.1901353,8.6405 C22.8824588,8.97470588 22.5486412,9.28587647 22.231,9.61121765 C21.6253529,10.2157 21.0216471,10.8224471 20.4148353,11.4257647 C19.8146235,10.8525353 19.0817647,10.4169353 18.2868529,10.1755824 C17.3515941,9.89262353 16.3443176,9.85367059 15.389,10.0576235 C14.2733412,10.2966471 13.2378529,10.8795176 12.4413882,11.6948765 C11.7956882,12.3486647 11.3041176,13.1520529 11.0088647,14.0217647 C10.5832941,15.2557706 10.5863353,16.6301235 11.0069235,17.8652294 C11.4182588,19.0795647 12.2193176,20.1586 13.2690412,20.8960529 C13.9255471,21.3590235 14.6780765,21.6874706 15.4664529,21.8447706 C16.2416941,22.0016824 17.0446941,21.9847294 17.8218765,21.8521471 C18.5940765,21.7168471 19.3431118,21.4323353 19.9949588,20.9940176 C21.032,20.3012765 21.7632412,19.1759765 21.9710765,17.9454647 C20.1784647,17.9446882 18.3854647,17.9450765 16.5924647,17.9454647 C16.5902,16.6617647 16.5921412,15.3776118 16.5916882,14.0935235 C19.6876706,14.0931353 22.7836529,14.0923588 25.8796353,14.0938471 C26.1882824,15.8290647 26.1204059,17.6385647 25.6285118,19.3336647 Z" id="Shape"></path>
                        </g>
                    </g>
                </g>
            </g>
        </g>
    </g>
</svg>