<?xml version="1.0" encoding="UTF-8"?>
<svg width="29px" height="29px" viewBox="0 0 29 29" version="1.1" xmlns="http://www.w3.org/2000/svg" xmlns:xlink="http://www.w3.org/1999/xlink">
    <!-- Generator: Sketch 63.1 (92452) - https://sketch.com -->
    <title>instagram-glyph-white</title>
    <desc>Created with Sketch.</desc>
    <g id="Page-1" stroke="none" stroke-width="1" fill="none" fill-rule="evenodd">
        <g id="Under-Construction-Page---Narrow" transform="translate(-205.000000, -930.000000)" fill="#FFFFFF">
            <g id="Group-3" transform="translate(136.000000, 919.000000)">
                <g id="Insta" transform="translate(58.000000, 0.000000)">
                    <g id="instagram-glyph-white" transform="translate(11.000000, 11.000000)">
                        <path d="M14.4954256,0.00913643564 C10.5587331,0.00913643564 10.0650427,0.025789901 8.51900893,0.0961938614 C6.97608234,0.166425545 5.92241567,0.411001782 5.00034226,0.768649307 C4.04719742,1.13829881 3.23876488,1.63296416 2.43292163,2.43721168 C1.62702083,3.24151663 1.13143155,4.04829089 0.760991071,4.99954832 C0.402633929,5.91979584 0.15762996,6.97137604 0.0872013889,8.51124733 C0.0166577381,10.054277 2.87698413e-05,10.546875 2.87698413e-05,14.4758295 C2.87698413e-05,18.404784 0.0166577381,18.8974394 0.0872013889,20.4404691 C0.15762996,21.980283 0.402633929,23.0319206 0.760991071,23.9521107 C1.13143155,24.9033681 1.62702083,25.7101998 2.43292163,26.5144473 C3.23876488,27.3187523 4.04719742,27.8133602 5.00034226,28.1831246 C5.92241567,28.5407147 6.97608234,28.7852909 8.51900893,28.85558 C10.0650427,28.9259265 10.5587331,28.94258 14.4954256,28.94258 C18.4321756,28.94258 18.925751,28.9259265 20.4718423,28.85558 C22.0147688,28.7852909 23.0684355,28.5407147 23.9905089,28.1831246 C24.9437113,27.8133602 25.7520863,27.3187523 26.5579296,26.5144473 C27.3638304,25.7101998 27.8594196,24.9034255 28.2298601,23.9521107 C28.5882173,23.0319206 28.8332788,21.980283 28.9036498,20.4404691 C28.9741935,18.8974394 28.99088,18.404784 28.99088,14.4758295 C28.99088,10.5469325 28.9741935,10.054277 28.9036498,8.51124733 C28.8332788,6.97137604 28.5882173,5.91979584 28.2298601,4.99954832 C27.8594196,4.04829089 27.3638304,3.24151663 26.5579296,2.43721168 C25.7520863,1.63296416 24.9437113,1.13829881 23.9905089,0.768649307 C23.0684355,0.411001782 22.0147688,0.166425545 20.4718423,0.0961938614 C18.925751,0.025789901 18.4321756,0.00913643564 14.4954256,0.00913643564 M14.4954256,2.61574832 C18.3658899,2.61574832 18.8243085,2.63044931 20.3527927,2.70004931 C21.7660823,2.76442356 22.5336042,3.00009881 23.0443839,3.19821762 C23.7209931,3.46065327 24.2039236,3.7741404 24.7111359,4.28034832 C25.2183482,4.78661366 25.5324573,5.2685305 25.7954712,5.9437998 C25.9939256,6.45356812 26.2300685,7.2195701 26.2945704,8.63006119 C26.364251,10.1555186 26.3790387,10.6130869 26.3790387,14.4758295 C26.3790387,18.3386295 26.364251,18.7961978 26.2945704,20.3215978 C26.2300685,21.7321463 25.9939256,22.4981483 25.7954712,23.0079166 C25.5324573,23.6831285 25.2183482,24.1651028 24.7111359,24.6713107 C24.2039236,25.177576 23.7209931,25.4910632 23.0443839,25.7534988 C22.5336042,25.9515602 21.7660823,26.1872929 20.3527927,26.2516097 C18.8245387,26.3212097 18.3661776,26.3359681 14.4954256,26.3359681 C10.6246736,26.3359681 10.1663125,26.3212097 8.63805853,26.2516097 C7.22476885,26.1872929 6.45718948,25.9515602 5.94640972,25.7534988 C5.26985813,25.4910632 4.78692758,25.177576 4.27971528,24.6713107 C3.77250298,24.1651028 3.45833631,23.6831285 3.19537996,23.0079166 C2.9969256,22.4981483 2.76078274,21.7321463 2.69628075,20.3216552 C2.62654266,18.7961978 2.6118125,18.3386295 2.6118125,14.4758295 C2.6118125,10.6130869 2.62654266,10.1555186 2.69628075,8.63006119 C2.76078274,7.2195701 2.9969256,6.45356812 3.19537996,5.9437998 C3.45833631,5.2685305 3.77250298,4.78661366 4.27971528,4.28040574 C4.78692758,3.7741404 5.26985813,3.46065327 5.94640972,3.19821762 C6.45718948,3.00009881 7.22476885,2.76442356 8.63800099,2.70004931 C10.1665427,2.63044931 10.6249613,2.61574832 14.4954256,2.61574832" id="Fill-1"></path>
                        <path d="M14.500029,19.3684241 C11.811289,19.3684241 9.6315759,17.188711 9.6315759,14.499971 C9.6315759,11.8112311 11.811289,9.6315759 14.500029,9.6315759 C17.1887689,9.6315759 19.3684821,11.8112311 19.3684821,14.499971 C19.3684821,17.188711 17.1887689,19.3684241 14.500029,19.3684241 M14.500029,7 C10.3578957,7 7,10.3578377 7,14.499971 C7,18.6421623 10.3578957,22 14.500029,22 C18.6421623,22 22,18.6421623 22,14.499971 C22,10.3578377 18.6421623,7 14.500029,7" id="Fill-4"></path>
                        <path d="M24,7 C24,8.10459808 23.1046129,9 22.0000331,9 C20.8954533,9 20,8.10459808 20,7 C20,5.89540192 20.8954533,5 22.0000331,5 C23.1046129,5 24,5.89540192 24,7" id="Fill-6"></path>
                    </g>
                </g>
            </g>
        </g>
    </g>
</svg>