<?xml version="1.0" encoding="UTF-8"?>
<svg width="32px" height="32px" viewBox="0 0 32 32" version="1.1" xmlns="http://www.w3.org/2000/svg" xmlns:xlink="http://www.w3.org/1999/xlink">
    <!-- Generator: Sketch 63.1 (92452) - https://sketch.com -->
    <title>instagram-icon</title>
    <desc>Created with Sketch.</desc>
    <g id="Page-1" stroke="none" stroke-width="1" fill="none" fill-rule="evenodd">
        <g id="Under-Construction-Page---Narrow" transform="translate(-328.000000, -1058.000000)" fill="#FFFFFF">
            <g id="Footer" transform="translate(0.000000, 1039.000000)">
                <g id="Top-Bar">
                    <g id="Socials" transform="translate(244.000000, 19.000000)">
                        <g id="instagram-icon" transform="translate(84.000000, 0.000000)">
                            <path d="M16,0 C24.836556,0 32,7.163444 32,16 C32,24.836556 24.836556,32 16,32 C7.163444,32 0,24.836556 0,16 C0,7.163444 7.163444,0 16,0 Z M17.5417802,6.0006199 L15.4314654,6.0006199 C13.5805616,6.00403098 13.1779493,6.0190922 12.2368065,6.06280649 C11.2208065,6.10780649 10.4308065,6.25980649 9.67580649,6.55380649 C8.93080649,6.84280649 8.34780649,7.22280649 7.78480649,7.78480649 C7.22280649,8.34780649 6.84280649,8.93080649 6.55380649,9.67580649 C6.25980649,10.4308065 6.10880649,11.2208065 6.06280649,12.2358065 C6.0190922,13.1778065 6.00403098,13.5805412 6.0006199,15.4314625 L6.0006199,15.4314625 L6.0006199,17.5417802 C6.00403098,19.3920718 6.0190922,19.7948065 6.06280649,20.7368065 C6.10880649,21.7528065 6.25980649,22.5428065 6.55380649,23.2968065 C6.84280649,24.0428065 7.22280649,24.6258065 7.78480649,25.1888065 C8.34680649,25.7498065 8.92980649,26.1288065 9.67580649,26.4208065 C10.4318065,26.7128065 11.2218065,26.8648065 12.2368065,26.9118065 C13.2341279,26.9564493 13.6351483,26.9707988 15.676993,26.9733612 L15.676993,26.9733612 L17.296333,26.9733612 C19.3374761,26.9707988 19.7385922,26.9564493 20.7368065,26.9118065 C21.7528065,26.8648065 22.5418065,26.7128065 23.2978065,26.4208065 C24.0438065,26.1288065 24.6268065,25.7498065 25.1888065,25.1888065 C25.7498065,24.6268065 26.1298065,24.0438065 26.4208065,23.2968065 C26.7138065,22.5418065 26.8648065,21.7528065 26.9118065,20.7368065 C26.9555208,19.7785208 26.9698473,19.3705208 26.9730485,17.5335412 L26.9730485,17.5335412 L26.9730485,15.4397015 C26.9698473,13.6020922 26.9555208,13.1940922 26.9118065,12.2358065 C26.8648065,11.2218065 26.7138065,10.4318065 26.4208065,9.67580649 C26.1298065,8.92980649 25.7498065,8.34680649 25.1888065,7.78480649 C24.6258065,7.22280649 24.0428065,6.84280649 23.2978065,6.55380649 C22.5428065,6.25980649 21.7528065,6.10780649 20.7368065,6.06280649 C19.7948065,6.0190922 19.3920718,6.00403098 17.5417802,6.0006199 L17.5417802,6.0006199 Z M17.0399034,8.25397048 C19.2857861,8.25543914 19.6355922,8.26737792 20.6338065,8.31380649 C21.6068065,8.35780649 22.1318065,8.51880649 22.4808065,8.65380649 C22.9328065,8.82980649 23.2558065,9.03980649 23.5948065,9.37880649 C23.9328065,9.71680649 24.1428065,10.0398065 24.3188065,10.4928065 C24.4548065,10.8388065 24.6158065,11.3618065 24.6598065,12.3388065 C24.7026636,13.2688065 24.716133,13.6404391 24.7191068,15.4518619 L24.7191068,15.4518619 L24.7191068,17.5217482 C24.716133,19.3331534 24.7026636,19.7046636 24.6598065,20.6338065 C24.6158065,21.6118065 24.4548065,22.1338065 24.3188065,22.4808065 C24.1428065,22.9328065 23.9338065,23.2558065 23.5948065,23.5948065 C23.2568065,23.9338065 22.9328065,24.1428065 22.4798065,24.3188065 C22.1338065,24.4548065 21.6118065,24.6158065 20.6338065,24.6598065 C19.7046636,24.7026636 19.3331534,24.716133 17.5217482,24.7191068 L17.5217482,24.7191068 L15.4518648,24.7191068 C13.6404595,24.716133 13.2689493,24.7026636 12.3398065,24.6598065 C11.3618065,24.6158065 10.8398065,24.4548065 10.4918065,24.3188065 C10.0398065,24.1428065 9.71680649,23.9328065 9.37880649,23.5948065 C9.03980649,23.2548065 8.82980649,22.9328065 8.65380649,22.4808065 C8.51880649,22.1308065 8.35780649,21.6068065 8.31380649,20.6338065 C8.26737792,19.6355922 8.25543914,19.2857861 8.25397048,17.0399034 L8.25397048,17.0399034 L8.25397048,15.9339082 C8.25543914,13.6888167 8.26737792,13.3388779 8.31380649,12.3388065 C8.35780649,11.3678065 8.51880649,10.8418065 8.65380649,10.4918065 C8.82980649,10.0408065 9.03980649,9.71780649 9.37880649,9.37880649 C9.71780649,9.03980649 10.0408065,8.82980649 10.4918065,8.65380649 C10.8418065,8.51880649 11.3678065,8.35780649 12.3398065,8.31380649 C13.3389493,8.26737792 13.6888218,8.25543914 15.9339085,8.25397048 L15.9339085,8.25397048 Z M16.4868065,11.0042065 C13.4638065,11.0042065 11.0048065,13.4642065 11.0048065,16.4872065 C11.0048065,19.5092065 13.4638065,21.9692065 16.4868065,21.9692065 C19.5088065,21.9692065 21.9688065,19.5092065 21.9688065,16.4872065 C21.9688065,13.4642065 19.5088065,11.0042065 16.4868065,11.0042065 Z M16.4868065,13.2582065 C18.2668065,13.2582065 19.7158065,14.7062065 19.7158065,16.4872065 C19.7158065,18.2672065 18.2668065,19.7152065 16.4868065,19.7152065 C14.7068065,19.7152065 13.2578065,18.2672065 13.2578065,16.4872065 C13.2578065,14.7062065 14.7068065,13.2582065 16.4868065,13.2582065 Z M21.9780065,9.56110649 C21.1870065,9.56110649 20.5430065,10.2041065 20.5430065,10.9951065 C20.5430065,11.7861065 21.1870065,12.4301065 21.9780065,12.4301065 C22.7690065,12.4301065 23.4130065,11.7861065 23.4130065,10.9951065 C23.4130065,10.2041065 22.7690065,9.56110649 21.9780065,9.56110649 Z" id="Combined-Shape"></path>
                        </g>
                    </g>
                </g>
            </g>
        </g>
    </g>
</svg>