<?xml version="1.0" encoding="UTF-8"?>
<svg width="112px" height="33px" viewBox="0 0 112 33" version="1.1" xmlns="http://www.w3.org/2000/svg" xmlns:xlink="http://www.w3.org/1999/xlink">
    <!-- Generator: Sketch 63.1 (92452) - https://sketch.com -->
    <title>logo-light.th</title>
    <desc>Created with Sketch.</desc>
    <g id="Page-1" stroke="none" stroke-width="1" fill="none" fill-rule="evenodd">
        <g id="Home-Page---Thai" transform="translate(-230.000000, -2293.000000)">
            <g id="Footer" transform="translate(0.000000, 2280.000000)">
                <g id="logo-light.th" transform="translate(231.000000, 13.000000)">
                    <g id="iconfinder_budha1_264744" transform="translate(0.000000, 2.000000)" stroke="#FFFFFF" stroke-linecap="round" stroke-linejoin="round" stroke-width="1.3">
                        <path d="M2.7118412,0 C0.780382083,0.917666754 -0.908195289,3.88847164 0.55092596,5.90897046 C1.53648883,7.27480005 3.37457883,7.79953973 3.66017848,8.18556234 C3.26534307,10.0729932 3.88902434,16.1125209 4.76718222,17.7262837 C5.48789413,19.0513142 6.74380025,19.2571929 7.87643473,19.7323459 C8.21512662,21.3410873 8.29873164,21.8865404 7.56032231,23.3094888 C7.31560979,23.7827588 7.20088173,24.844164 8.0351012,24.1775689 C8.21756764,24.4575137 8.0296089,25.3758082 8.08758319,25.8032576 C8.11748571,26.027339 10.2381241,28.7087838 10.4590366,28.9479296 C10.5658314,28.939142 10.9435796,29.1224243 11.04,29.0420814" id="Path" transform="translate(5.520000, 14.531250) scale(-1, 1) rotate(-180.000000) translate(-5.520000, -14.531250) "></path>
                        <line x1="0" y1="29.53125" x2="6.44" y2="29.53125" id="Path" transform="translate(3.220000, 29.531250) scale(-1, 1) rotate(-180.000000) translate(-3.220000, -29.531250) "></line>
                        <path d="M3.68,23.4375 C4.6346165,22.5979402 5.16917511,22.1289378 6.44,21.5625" id="Path" transform="translate(5.060000, 22.500000) scale(-1, 1) rotate(-180.000000) translate(-5.060000, -22.500000) "></path>
                        <path d="M8.28,10.3125 C8.95677371,9.0179764 9.00143391,9.20775824 10.12,8.4375" id="Path" transform="translate(9.200000, 9.375000) scale(-1, 1) rotate(-180.000000) translate(-9.200000, -9.375000) "></path>
                        <path d="M20.278498,0 C22.2164796,0.916270522 23.9112947,3.88255533 22.4473958,5.89997996 C21.4581922,7.26373143 19.6126996,7.78767272 19.326045,8.17310799 C19.7229514,10.0576671 19.0963537,16.0880057 18.2149519,17.6993131 C17.4915776,19.0223276 16.2310321,19.227893 15.0942135,19.7023231 C14.7542705,21.3086168 14.6703566,21.85324 15.4114937,23.2740233 C15.6577227,23.7465733 15.7722621,24.8063636 14.934961,24.1407827 C14.752433,24.4203016 14.9410861,25.3371988 14.8828976,25.7639979 C14.8522721,25.9877384 12.7244125,28.6651034 12.5020713,28.9038852 C12.3948821,28.8951111 12.0567766,29.1257455 11.96,29.0455249" id="Path" transform="translate(17.480000, 14.531250) scale(-1, 1) rotate(-180.000000) translate(-17.480000, -14.531250) "></path>
                        <line x1="23" y1="29.53125" x2="16.56" y2="29.53125" id="Path" transform="translate(19.780000, 29.531250) scale(-1, 1) rotate(-180.000000) translate(-19.780000, -29.531250) "></line>
                        <path d="M19.32,23.4375 C18.3653835,22.5979402 17.8308249,22.1289378 16.56,21.5625" id="Path" transform="translate(17.940000, 22.500000) scale(-1, 1) rotate(-180.000000) translate(-17.940000, -22.500000) "></path>
                        <path d="M14.72,10.3125 C14.0432263,9.0179764 13.9985661,9.20775824 12.88,8.4375" id="Path" transform="translate(13.800000, 9.375000) scale(-1, 1) rotate(-180.000000) translate(-13.800000, -9.375000) "></path>
                    </g>
                    <path d="M39.432,15 C41.352,15 42.488,13.992 42.488,12.264 L42.488,3.368 L41,3.368 L41,12.28 C41,13.304 40.36,13.896 39.288,13.896 L37.032,13.896 L37.032,7.672 C37.032,6.68 36.296,6.04 35.256,6.04 C34.216,6.04 33.48,6.68 33.48,7.672 C33.48,8.664 34.216,9.304 35.256,9.304 C35.352,9.304 35.448,9.304 35.544,9.288 L35.544,13.896 L34.184,13.896 L34.184,15 L39.432,15 Z M35.208,8.504 C34.728,8.504 34.44,8.184 34.44,7.672 C34.44,7.16 34.728,6.84 35.208,6.84 C35.688,6.84 35.976,7.16 35.976,7.672 C35.976,8.184 35.688,8.504 35.208,8.504 Z M40.12,4.568 L40.12,4.152 C40.12,2.424 38.776,1.304 36.744,1.304 C34.712,1.304 33.368,2.424 33.368,4.152 L33.368,4.568 L40.12,4.568 Z M38.904,3.656 L34.6,3.656 C34.744,2.936 35.608,2.408 36.744,2.408 C37.88,2.408 38.76,2.936 38.904,3.656 Z M48.824,15.192 C51.128,15.192 52.504,14.2 52.504,12.248 L52.504,6.232 L51.016,6.232 L51.016,12.376 C51.016,13.432 50.376,14.056 49.176,14.056 L48.488,14.056 C47.32,14.056 46.744,13.464 46.744,12.584 C46.744,11.816 47.304,11.224 48.12,11.224 L48.792,11.224 L48.792,10.152 L47.704,10.152 C46.728,10.152 46.552,9.816 46.552,9.048 L46.552,9.032 C46.792,9.16 47.064,9.208 47.32,9.208 C48.312,9.208 48.984,8.584 48.984,7.624 C48.984,6.664 48.312,6.04 47.32,6.04 C46.072,6.04 45.256,6.872 45.256,8.264 L45.256,9.096 C45.256,10.072 45.672,10.808 46.632,11.096 L46.632,11.144 C45.816,11.4 45.256,11.944 45.256,12.856 C45.256,14.328 46.584,15.192 48.824,15.192 Z M47.304,8.456 C46.84,8.456 46.536,8.12 46.536,7.624 C46.536,7.128 46.84,6.792 47.304,6.792 C47.768,6.792 48.072,7.128 48.072,7.624 C48.072,8.12 47.768,8.456 47.304,8.456 Z M57.992,15.192 C59.032,15.192 59.768,14.552 59.768,13.56 C59.768,12.568 59.032,11.928 57.992,11.928 C57.896,11.928 57.8,11.944 57.704,11.944 L57.704,5.4 C57.704,4.856 57.464,4.6 56.984,4.424 L55.32,3.816 C55.352,2.584 56.232,2.024 57.288,2.024 C58.328,2.024 59.032,2.552 59.416,3.096 L60.312,2.216 C59.64,1.416 58.712,0.904 57.224,0.904 C55.304,0.904 53.96,2.152 53.96,4.136 L53.96,4.472 L56.216,5.352 L56.216,13.56 C56.216,14.552 56.952,15.192 57.992,15.192 Z M58.04,14.392 C57.56,14.392 57.272,14.072 57.272,13.56 C57.272,13.048 57.56,12.728 58.04,12.728 C58.52,12.728 58.808,13.048 58.808,13.56 C58.808,14.072 58.52,14.392 58.04,14.392 Z M66.616,15 C68.536,15 69.672,13.992 69.672,12.264 L69.672,3.368 L68.184,3.368 L68.184,12.28 C68.184,13.304 67.544,13.896 66.472,13.896 L64.216,13.896 L64.216,7.672 C64.216,6.68 63.48,6.04 62.44,6.04 C61.4,6.04 60.664,6.68 60.664,7.672 C60.664,8.664 61.4,9.304 62.44,9.304 C62.536,9.304 62.632,9.304 62.728,9.288 L62.728,13.896 L61.368,13.896 L61.368,15 L66.616,15 Z M62.392,8.504 C61.912,8.504 61.624,8.184 61.624,7.672 C61.624,7.16 61.912,6.84 62.392,6.84 C62.872,6.84 63.16,7.16 63.16,7.672 C63.16,8.184 62.872,8.504 62.392,8.504 Z M75.56,19.784 C76.52,19.784 76.872,19.352 77.48,18.456 L77.48,18.44 L79.416,19.704 L80.136,19.704 C80.552,19.704 80.888,19.368 80.888,18.952 L80.888,9.576 C80.888,7.416 79.32,6.04 76.888,6.04 C74.456,6.04 72.824,7.464 72.664,9.496 L74.088,10.088 L74.088,11.976 C73.992,11.976 73.896,11.96 73.8,11.96 C72.744,11.96 72.024,12.584 72.024,13.576 C72.024,14.568 72.744,15.192 73.8,15.192 C74.856,15.192 75.576,14.536 75.576,13.512 L75.576,10.152 C75.576,9.528 75.272,9.336 74.856,9.176 L74.056,8.872 C74.376,7.816 75.464,7.144 76.824,7.144 C78.424,7.144 79.4,8.072 79.4,9.752 L79.4,16.792 L79.464,18.68 L79.384,18.68 L77.928,17.768 L78.6,16.776 L77.528,16.776 L77.192,17.288 C76.584,16.888 76.168,16.648 75.56,16.648 C74.68,16.648 74.04,17.272 74.04,18.216 C74.04,19.16 74.68,19.784 75.56,19.784 Z M73.752,14.408 C73.272,14.408 72.984,14.088 72.984,13.576 C72.984,13.064 73.272,12.744 73.752,12.744 C74.232,12.744 74.52,13.064 74.52,13.576 C74.52,14.088 74.232,14.408 73.752,14.408 Z M75.592,19 C75.288,19 75,18.808 75,18.424 L75,18.008 C75,17.624 75.288,17.432 75.592,17.432 C75.912,17.432 76.136,17.56 76.76,17.96 L76.712,18.056 C76.2,18.824 76.088,19 75.592,19 Z M86.248,15 L86.248,10.152 C86.248,9.608 86.024,9.352 85.528,9.176 L84.728,8.872 C85.048,7.816 86.168,7.144 87.528,7.144 C89.16,7.144 90.216,8.104 90.216,9.752 L90.216,15 L91.704,15 L91.704,9.576 C91.704,7.416 90.12,6.04 87.672,6.04 C85.176,6.04 83.512,7.464 83.352,9.496 L84.76,10.088 L84.76,15 L86.248,15 Z M37.992,31.192 C40.408,31.192 41.528,30.296 41.528,28.744 L41.528,27.72 C41.528,25.896 40.36,25.352 38.328,25.192 L35.592,24.984 L35.592,24.792 C35.592,23.704 36.552,23.176 38.072,23.176 C39.464,23.176 40.36,23.688 40.872,24.296 L41.768,23.384 C40.968,22.584 39.88,22.04 38.104,22.04 C35.64,22.04 34.136,23.112 34.136,24.968 L34.136,25.96 L38.12,26.28 C39.992,26.424 40.04,27.032 40.04,27.896 L40.04,28.872 C40.04,29.624 39.592,30.088 38.632,30.088 L37.352,30.088 C36.392,30.088 35.944,29.624 35.944,28.872 L35.944,27.16 L34.456,27.16 L34.456,28.744 C34.456,30.296 35.576,31.192 37.992,31.192 Z M48.104,31.192 C49.16,31.192 49.912,30.552 49.912,29.56 L49.912,27.432 C49.912,25.832 49.128,25.4 47.656,25.288 L44.776,25.096 L44.776,24.968 C44.776,23.72 45.752,23.144 47.224,23.144 C48.504,23.144 49.272,23.656 49.832,24.344 L50.616,23.416 C50.04,22.648 48.856,22.04 47.16,22.04 C44.84,22.04 43.336,23.208 43.336,25.288 L43.336,26.072 L47.368,26.376 C48.168,26.44 48.424,26.68 48.424,27.384 L48.424,27.944 C48.312,27.928 48.216,27.928 48.104,27.928 C47.048,27.928 46.296,28.568 46.296,29.56 C46.296,30.552 47.048,31.192 48.104,31.192 Z M48.056,30.424 C47.544,30.424 47.224,30.088 47.224,29.56 C47.224,29.032 47.544,28.696 48.056,28.696 C48.568,28.696 48.888,29.032 48.888,29.56 C48.888,30.088 48.568,30.424 48.056,30.424 Z M57.208,31.192 C58.264,31.192 59.016,30.552 59.016,29.56 L59.016,27.432 C59.016,25.832 58.232,25.4 56.76,25.288 L53.88,25.096 L53.88,24.968 C53.88,23.72 54.856,23.144 56.328,23.144 C57.608,23.144 58.376,23.656 58.936,24.344 L59.72,23.416 C59.144,22.648 57.96,22.04 56.264,22.04 C53.944,22.04 52.44,23.208 52.44,25.288 L52.44,26.072 L56.472,26.376 C57.272,26.44 57.528,26.68 57.528,27.384 L57.528,27.944 C57.416,27.928 57.32,27.928 57.208,27.928 C56.152,27.928 55.4,28.568 55.4,29.56 C55.4,30.552 56.152,31.192 57.208,31.192 Z M57.16,30.424 C56.648,30.424 56.328,30.088 56.328,29.56 C56.328,29.032 56.648,28.696 57.16,28.696 C57.672,28.696 57.992,29.032 57.992,29.56 C57.992,30.088 57.672,30.424 57.16,30.424 Z M63.32,31.192 C64.392,31.192 65.096,30.536 65.096,29.528 L65.096,29.464 L68.424,31 L69.816,31 L69.816,22.232 L68.328,22.232 L68.328,29.816 L68.264,29.816 L65.096,28.36 L65.096,23.672 C65.096,22.68 64.36,22.04 63.32,22.04 C62.28,22.04 61.544,22.68 61.544,23.672 C61.544,24.664 62.28,25.304 63.32,25.304 C63.416,25.304 63.512,25.304 63.608,25.288 L63.608,27.304 C63.608,27.528 63.624,27.736 63.672,27.896 C63.56,27.88 63.432,27.864 63.32,27.864 C62.248,27.864 61.544,28.52 61.544,29.528 C61.544,30.536 62.248,31.192 63.32,31.192 Z M63.272,24.504 C62.792,24.504 62.504,24.184 62.504,23.672 C62.504,23.16 62.792,22.84 63.272,22.84 C63.752,22.84 64.04,23.16 64.04,23.672 C64.04,24.184 63.752,24.504 63.272,24.504 Z M63.32,30.408 C62.776,30.408 62.488,30.12 62.488,29.672 L62.488,29.384 C62.488,28.936 62.776,28.648 63.32,28.648 C63.864,28.648 64.152,28.936 64.152,29.384 L64.152,29.672 C64.152,30.12 63.864,30.408 63.32,30.408 Z M74.888,31.192 C75.864,31.192 76.568,30.584 76.568,29.624 C76.568,28.664 75.864,28.056 74.936,28.056 C74.536,28.056 74.184,28.168 73.896,28.376 C73.976,27.448 74.664,26.888 75.832,26.888 L78.376,26.888 L78.376,31 L79.864,31 L79.864,25.352 C79.864,24.504 79.64,23.8 79.224,23.272 C79.656,23.048 79.912,22.632 79.912,22.056 L79.912,21.064 L78.424,21.064 L78.424,22.568 C77.832,22.232 77.064,22.04 76.152,22.04 C74.104,22.04 72.904,22.888 72.264,24.024 L73.224,24.856 C73.784,23.864 74.696,23.176 76.056,23.176 C77.608,23.176 78.376,23.928 78.376,25.416 L78.376,25.864 L75.672,25.864 C73.784,25.864 72.648,26.888 72.648,28.632 C72.648,30.392 73.544,31.192 74.888,31.192 Z M74.888,30.44 C74.424,30.44 74.12,30.12 74.12,29.624 C74.12,29.128 74.424,28.808 74.888,28.808 C75.352,28.808 75.656,29.128 75.656,29.624 C75.656,30.12 75.352,30.44 74.888,30.44 Z M85.528,31.192 C86.584,31.192 87.304,30.568 87.304,29.576 C87.304,28.584 86.584,27.96 85.528,27.96 C85.432,27.96 85.336,27.976 85.24,27.976 L85.24,26.152 C85.24,25.608 85.016,25.352 84.52,25.176 L83.72,24.872 C84.056,23.832 85.192,23.144 86.6,23.144 C88.296,23.144 89.368,24.088 89.368,25.752 L89.368,31 L90.856,31 L90.856,25.576 C90.856,23.416 89.224,22.04 86.712,22.04 C84.184,22.04 82.488,23.464 82.328,25.48 L83.752,26.088 L83.752,29.512 C83.752,30.536 84.472,31.192 85.528,31.192 Z M85.576,30.408 C85.096,30.408 84.808,30.088 84.808,29.576 C84.808,29.064 85.096,28.744 85.576,28.744 C86.056,28.744 86.344,29.064 86.344,29.576 C86.344,30.088 86.056,30.408 85.576,30.408 Z M98.808,31 L98.808,24.92 C98.808,23.096 97.688,22.04 95.64,22.04 C93.96,22.04 92.968,22.728 92.44,23.672 L93.336,24.456 C93.768,23.704 94.424,23.176 95.464,23.176 C96.696,23.176 97.32,23.816 97.32,25.016 L97.32,31 L98.808,31 Z M108.936,31.192 C110.008,31.192 110.712,30.536 110.712,29.528 C110.712,28.648 110.152,28.024 109.288,27.896 C109.416,27.624 109.432,27.352 109.432,27.112 L109.432,22.232 L107.944,22.232 L107.944,28.168 L104.44,29.816 L104.376,29.816 L104.376,23.672 C104.376,22.68 103.64,22.04 102.6,22.04 C101.56,22.04 100.824,22.68 100.824,23.672 C100.824,24.664 101.56,25.304 102.6,25.304 C102.696,25.304 102.792,25.304 102.888,25.288 L102.888,31 L104.312,31 L107.16,29.64 C107.208,30.584 107.896,31.192 108.936,31.192 Z M102.552,24.504 C102.072,24.504 101.784,24.184 101.784,23.672 C101.784,23.16 102.072,22.84 102.552,22.84 C103.032,22.84 103.32,23.16 103.32,23.672 C103.32,24.184 103.032,24.504 102.552,24.504 Z M108.936,30.408 C108.392,30.408 108.104,30.12 108.104,29.672 L108.104,29.384 C108.104,28.936 108.392,28.648 108.936,28.648 C109.48,28.648 109.768,28.936 109.768,29.384 L109.768,29.672 C109.768,30.12 109.48,30.408 108.936,30.408 Z" id="ปิยโปฎกธรรมสถาน" fill="#FFFFFF" fill-rule="nonzero"></path>
                </g>
            </g>
        </g>
    </g>
</svg>