<?xml version="1.0" encoding="UTF-8"?>
<svg width="136px" height="32px" viewBox="0 0 136 32" version="1.1" xmlns="http://www.w3.org/2000/svg" xmlns:xlink="http://www.w3.org/1999/xlink">
    <!-- Generator: Sketch 63.1 (92452) - https://sketch.com -->
    <title>logo-light</title>
    <desc>Created with Sketch.</desc>
    <g id="Page-1" stroke="none" stroke-width="1" fill="none" fill-rule="evenodd">
        <g id="Home-Page---Narrow" transform="translate(-21.000000, -3570.000000)">
            <g id="Footer" transform="translate(0.000000, 3551.000000)">
                <g id="Top-Bar">
                    <g id="logo-light" transform="translate(22.000000, 20.000000)">
                        <g id="iconfinder_budha1_264744" stroke="#FFFFFF" stroke-linecap="round" stroke-linejoin="round" stroke-width="1.3">
                            <path d="M2.7118412,0 C0.780382083,0.917666754 -0.908195289,3.88847164 0.55092596,5.90897046 C1.53648883,7.27480005 3.37457883,7.79953973 3.66017848,8.18556234 C3.26534307,10.0729932 3.88902434,16.1125209 4.76718222,17.7262837 C5.48789413,19.0513142 6.74380025,19.2571929 7.87643473,19.7323459 C8.21512662,21.3410873 8.29873164,21.8865404 7.56032231,23.3094888 C7.31560979,23.7827588 7.20088173,24.844164 8.0351012,24.1775689 C8.21756764,24.4575137 8.0296089,25.3758082 8.08758319,25.8032576 C8.11748571,26.027339 10.2381241,28.7087838 10.4590366,28.9479296 C10.5658314,28.939142 10.9435796,29.1224243 11.04,29.0420814" id="Path" transform="translate(5.520000, 14.531250) scale(-1, 1) rotate(-180.000000) translate(-5.520000, -14.531250) "></path>
                            <line x1="0" y1="29.53125" x2="6.44" y2="29.53125" id="Path" transform="translate(3.220000, 29.531250) scale(-1, 1) rotate(-180.000000) translate(-3.220000, -29.531250) "></line>
                            <path d="M3.68,23.4375 C4.6346165,22.5979402 5.16917511,22.1289378 6.44,21.5625" id="Path" transform="translate(5.060000, 22.500000) scale(-1, 1) rotate(-180.000000) translate(-5.060000, -22.500000) "></path>
                            <path d="M8.28,10.3125 C8.95677371,9.0179764 9.00143391,9.20775824 10.12,8.4375" id="Path" transform="translate(9.200000, 9.375000) scale(-1, 1) rotate(-180.000000) translate(-9.200000, -9.375000) "></path>
                            <path d="M20.278498,0 C22.2164796,0.916270522 23.9112947,3.88255533 22.4473958,5.89997996 C21.4581922,7.26373143 19.6126996,7.78767272 19.326045,8.17310799 C19.7229514,10.0576671 19.0963537,16.0880057 18.2149519,17.6993131 C17.4915776,19.0223276 16.2310321,19.227893 15.0942135,19.7023231 C14.7542705,21.3086168 14.6703566,21.85324 15.4114937,23.2740233 C15.6577227,23.7465733 15.7722621,24.8063636 14.934961,24.1407827 C14.752433,24.4203016 14.9410861,25.3371988 14.8828976,25.7639979 C14.8522721,25.9877384 12.7244125,28.6651034 12.5020713,28.9038852 C12.3948821,28.8951111 12.0567766,29.1257455 11.96,29.0455249" id="Path" transform="translate(17.480000, 14.531250) scale(-1, 1) rotate(-180.000000) translate(-17.480000, -14.531250) "></path>
                            <line x1="23" y1="29.53125" x2="16.56" y2="29.53125" id="Path" transform="translate(19.780000, 29.531250) scale(-1, 1) rotate(-180.000000) translate(-19.780000, -29.531250) "></line>
                            <path d="M19.32,23.4375 C18.3653835,22.5979402 17.8308249,22.1289378 16.56,21.5625" id="Path" transform="translate(17.940000, 22.500000) scale(-1, 1) rotate(-180.000000) translate(-17.940000, -22.500000) "></path>
                            <path d="M14.72,10.3125 C14.0432263,9.0179764 13.9985661,9.20775824 12.88,8.4375" id="Path" transform="translate(13.800000, 9.375000) scale(-1, 1) rotate(-180.000000) translate(-13.800000, -9.375000) "></path>
                        </g>
                        <path d="M35.48,13 C35.832,13 36.008,12.824 36.008,12.472 L36.008,12.472 L36.008,8.824 L38.568,8.824 C39.08,8.824 39.5546667,8.73866667 39.992,8.568 C40.4293333,8.39733333 40.8026667,8.15466667 41.112,7.84 C41.4213333,7.52533333 41.664,7.14666667 41.84,6.704 C42.016,6.26133333 42.104,5.77333333 42.104,5.24 C42.104,4.70666667 42.016,4.22133333 41.84,3.784 C41.664,3.34666667 41.4213333,2.97333333 41.112,2.664 C40.8026667,2.35466667 40.4293333,2.11733333 39.992,1.952 C39.5546667,1.78666667 39.08,1.704 38.568,1.704 L38.568,1.704 L34.968,1.704 C34.616,1.704 34.44,1.88 34.44,2.232 L34.44,2.232 L34.44,12.472 C34.44,12.824 34.616,13 34.968,13 L34.968,13 L35.48,13 Z M38.312,7.448 L36.008,7.448 L36.008,3.08 L38.328,3.08 C39,3.08 39.5306667,3.26933333 39.92,3.648 C40.3093333,4.02666667 40.504,4.55733333 40.504,5.24 C40.504,5.92266667 40.3093333,6.46133333 39.92,6.856 C39.5306667,7.25066667 38.9946667,7.448 38.312,7.448 L38.312,7.448 Z M45.248,3.288 C45.6,3.288 45.776,3.112 45.776,2.76 L45.776,2.76 L45.776,2.232 C45.776,1.88 45.6,1.704 45.248,1.704 L45.248,1.704 L44.704,1.704 C44.352,1.704 44.176,1.88 44.176,2.232 L44.176,2.232 L44.176,2.76 C44.176,3.112 44.352,3.288 44.704,3.288 L44.704,3.288 L45.248,3.288 Z M45.216,13 C45.568,13 45.744,12.824 45.744,12.472 L45.744,12.472 L45.744,5.432 C45.744,5.08 45.568,4.904 45.216,4.904 L45.216,4.904 L44.72,4.904 C44.368,4.904 44.192,5.08 44.192,5.432 L44.192,5.432 L44.192,12.472 C44.192,12.824 44.368,13 44.72,13 L44.72,13 L45.216,13 Z M49.032,16.36 C49.608,16.36 50.128,16.1973333 50.592,15.872 C51.056,15.5466667 51.4106667,15.064 51.656,14.424 L51.656,14.424 L55.224,5.512 C55.2986667,5.33066667 55.296,5.184 55.216,5.072 C55.136,4.96 55,4.904 54.808,4.904 L54.808,4.904 L54.232,4.904 C53.9333333,4.904 53.736,5.048 53.64,5.336 L53.64,5.336 L51.8,10.216 C51.7573333,10.3226667 51.72,10.432 51.688,10.544 C51.656,10.656 51.6293333,10.76 51.608,10.856 L51.608,10.856 L51.528,11.176 L51.496,11.176 C51.464,11.0693333 51.432,10.9573333 51.4,10.84 C51.3786667,10.744 51.3493333,10.64 51.312,10.528 C51.2746667,10.416 51.24,10.3066667 51.208,10.2 L51.208,10.2 L49.304,5.32 C49.208,5.04266667 49.0106667,4.904 48.712,4.904 L48.712,4.904 L48.088,4.904 C47.896,4.904 47.76,4.96 47.68,5.072 C47.6,5.184 47.6026667,5.33066667 47.688,5.512 L47.688,5.512 L50.824,12.904 L50.424,13.832 C50.296,14.152 50.1146667,14.4346667 49.88,14.68 C49.6453333,14.9253333 49.3626667,15.048 49.032,15.048 C48.8933333,15.048 48.7733333,15.0266667 48.672,14.984 C48.5706667,14.9413333 48.4773333,14.904 48.392,14.872 C48.2746667,14.84 48.1626667,14.84 48.056,14.872 C47.9493333,14.904 47.864,14.9946667 47.8,15.144 L47.8,15.144 L47.672,15.416 C47.608,15.5546667 47.5946667,15.688 47.632,15.816 C47.6693333,15.944 47.7626667,16.04 47.912,16.104 C48.0506667,16.1573333 48.2133333,16.2133333 48.4,16.272 C48.5866667,16.3306667 48.7973333,16.36 49.032,16.36 Z M59.28,13.192 C59.76,13.192 60.1653333,13.104 60.496,12.928 C60.8266667,12.752 61.0986667,12.5573333 61.312,12.344 C61.5573333,12.0986667 61.76,11.816 61.92,11.496 L61.92,11.496 L61.952,11.496 L61.952,11.496 L61.92,11.624 C61.9093333,11.6666667 61.904,11.72 61.904,11.784 L61.904,11.784 L61.904,12.472 C61.904,12.824 62.08,13 62.432,13 L62.432,13 L62.832,13 C63.184,13 63.36,12.824 63.36,12.472 L63.36,12.472 L63.36,7.88 C63.36,6.84533333 63.0826667,6.05866667 62.528,5.52 C61.9733333,4.98133333 61.1893333,4.712 60.176,4.712 C59.5573333,4.712 59.0266667,4.792 58.584,4.952 C58.1413333,5.112 57.7973333,5.26133333 57.552,5.4 C57.264,5.56 57.2053333,5.8 57.376,6.12 L57.376,6.12 L57.504,6.344 C57.6746667,6.62133333 57.9146667,6.68533333 58.224,6.536 C58.4053333,6.42933333 58.6533333,6.31733333 58.968,6.2 C59.2826667,6.08266667 59.6426667,6.024 60.048,6.024 C60.2933333,6.024 60.5226667,6.05333333 60.736,6.112 C60.9493333,6.17066667 61.136,6.26933333 61.296,6.408 C61.456,6.54666667 61.5813333,6.73066667 61.672,6.96 C61.7626667,7.18933333 61.808,7.46933333 61.808,7.8 L61.808,7.8 L61.808,8.008 L61.392,8.008 C61.1146667,8.008 60.8026667,8.01866667 60.456,8.04 C60.1093333,8.06133333 59.7546667,8.104 59.392,8.168 C59.0293333,8.232 58.68,8.328 58.344,8.456 C58.008,8.584 57.7066667,8.74933333 57.44,8.952 C57.1733333,9.15466667 56.96,9.408 56.8,9.712 C56.64,10.016 56.56,10.376 56.56,10.792 C56.56,11.176 56.6346667,11.5146667 56.784,11.808 C56.9333333,12.1013333 57.1333333,12.352 57.384,12.56 C57.6346667,12.768 57.9253333,12.9253333 58.256,13.032 C58.5866667,13.1386667 58.928,13.192 59.28,13.192 Z M59.632,11.96 C59.1306667,11.96 58.7546667,11.824 58.504,11.552 C58.2533333,11.28 58.128,10.984 58.128,10.664 C58.128,10.28 58.2453333,9.97866667 58.48,9.76 C58.7146667,9.54133333 59.0026667,9.37866667 59.344,9.272 C59.6853333,9.16533333 60.0426667,9.09866667 60.416,9.072 C60.7893333,9.04533333 61.12,9.032 61.408,9.032 L61.408,9.032 L61.824,9.032 L61.824,9.384 C61.824,9.68266667 61.7733333,9.984 61.672,10.288 C61.5706667,10.592 61.4266667,10.8693333 61.24,11.12 C61.0533333,11.3706667 60.824,11.5733333 60.552,11.728 C60.28,11.8826667 59.9733333,11.96 59.632,11.96 Z M67.128,16.2 C67.4693333,16.2 67.64,16.024 67.64,15.672 L67.64,15.672 L67.64,12.456 C67.64,12.3493333 67.6373333,12.2533333 67.632,12.168 C67.6266667,12.0826667 67.6186667,12.008 67.608,11.944 C67.5973333,11.8693333 67.592,11.8053333 67.592,11.752 L67.592,11.752 L67.624,11.752 C67.7626667,12.0293333 67.9493333,12.2693333 68.184,12.472 C68.3866667,12.6533333 68.6453333,12.8186667 68.96,12.968 C69.2746667,13.1173333 69.6666667,13.192 70.136,13.192 C70.6586667,13.192 71.144,13.0906667 71.592,12.888 C72.04,12.6853333 72.4293333,12.4 72.76,12.032 C73.0906667,11.664 73.3466667,11.2186667 73.528,10.696 C73.7093333,10.1733333 73.8,9.592 73.8,8.952 C73.8,8.32266667 73.7173333,7.74933333 73.552,7.232 C73.3866667,6.71466667 73.1493333,6.26933333 72.84,5.896 C72.5306667,5.52266667 72.1573333,5.232 71.72,5.024 C71.2826667,4.816 70.792,4.712 70.248,4.712 C69.736,4.712 69.3066667,4.79466667 68.96,4.96 C68.6133333,5.12533333 68.3333333,5.304 68.12,5.496 C67.864,5.72 67.6666667,5.976 67.528,6.264 L67.528,6.264 L67.496,6.264 C67.496,6.22133333 67.5013333,6.17866667 67.512,6.136 C67.512,6.09333333 67.5146667,6.048 67.52,6 C67.5253333,5.952 67.528,5.896 67.528,5.832 L67.528,5.832 L67.528,5.352 C67.528,5.05333333 67.352,4.904 67,4.904 L67,4.904 L66.632,4.904 C66.28,4.904 66.104,5.08 66.104,5.432 L66.104,5.432 L66.104,15.672 C66.104,16.024 66.28,16.2 66.632,16.2 L66.632,16.2 L67.128,16.2 Z M69.896,11.848 C69.5226667,11.848 69.1946667,11.7653333 68.912,11.6 C68.6293333,11.4346667 68.392,11.2186667 68.2,10.952 C68.008,10.6853333 67.8613333,10.3813333 67.76,10.04 C67.6586667,9.69866667 67.608,9.34666667 67.608,8.984 C67.608,8.472 67.672,8.032 67.8,7.664 C67.928,7.296 68.1013333,6.99466667 68.32,6.76 C68.5386667,6.52533333 68.7866667,6.352 69.064,6.24 C69.3413333,6.128 69.6346667,6.072 69.944,6.072 C70.2746667,6.072 70.5813333,6.14133333 70.864,6.28 C71.1466667,6.41866667 71.3893333,6.61333333 71.592,6.864 C71.7946667,7.11466667 71.952,7.41866667 72.064,7.776 C72.176,8.13333333 72.232,8.53066667 72.232,8.968 C72.232,9.42666667 72.1706667,9.83466667 72.048,10.192 C71.9253333,10.5493333 71.7573333,10.8506667 71.544,11.096 C71.3306667,11.3413333 71.0826667,11.528 70.8,11.656 C70.5173333,11.784 70.216,11.848 69.896,11.848 Z M79.984,13.192 C80.592,13.192 81.16,13.0853333 81.688,12.872 C82.216,12.6586667 82.6773333,12.3626667 83.072,11.984 C83.4666667,11.6053333 83.7786667,11.1573333 84.008,10.64 C84.2373333,10.1226667 84.352,9.55466667 84.352,8.936 C84.352,8.328 84.2373333,7.76533333 84.008,7.248 C83.7786667,6.73066667 83.4666667,6.28266667 83.072,5.904 C82.6773333,5.52533333 82.216,5.232 81.688,5.024 C81.16,4.816 80.592,4.712 79.984,4.712 C79.376,4.712 78.808,4.816 78.28,5.024 C77.752,5.232 77.2933333,5.52533333 76.904,5.904 C76.5146667,6.28266667 76.2053333,6.73066667 75.976,7.248 C75.7466667,7.76533333 75.632,8.328 75.632,8.936 C75.632,9.55466667 75.7466667,10.1226667 75.976,10.64 C76.2053333,11.1573333 76.5146667,11.6053333 76.904,11.984 C77.2933333,12.3626667 77.752,12.6586667 78.28,12.872 C78.808,13.0853333 79.376,13.192 79.984,13.192 Z M79.984,11.848 C79.6,11.848 79.24,11.776 78.904,11.632 C78.568,11.488 78.2746667,11.288 78.024,11.032 C77.7733333,10.776 77.5733333,10.4693333 77.424,10.112 C77.2746667,9.75466667 77.2,9.36266667 77.2,8.936 C77.2,8.52 77.2746667,8.136 77.424,7.784 C77.5733333,7.432 77.7733333,7.128 78.024,6.872 C78.2746667,6.616 78.568,6.416 78.904,6.272 C79.24,6.128 79.6,6.056 79.984,6.056 C80.368,6.056 80.728,6.128 81.064,6.272 C81.4,6.416 81.696,6.616 81.952,6.872 C82.208,7.128 82.408,7.432 82.552,7.784 C82.696,8.136 82.768,8.52 82.768,8.936 C82.768,9.36266667 82.696,9.75466667 82.552,10.112 C82.408,10.4693333 82.208,10.776 81.952,11.032 C81.696,11.288 81.4,11.488 81.064,11.632 C80.728,11.776 80.368,11.848 79.984,11.848 Z M89.736,13.192 C90.2373333,13.192 90.656,13.112 90.992,12.952 C91.328,12.792 91.6026667,12.616 91.816,12.424 C92.0613333,12.2 92.2586667,11.9386667 92.408,11.64 L92.408,11.64 L92.44,11.64 C92.4293333,11.672 92.424,11.7093333 92.424,11.752 C92.4133333,11.8053333 92.408,11.9013333 92.408,12.04 L92.408,12.04 L92.408,12.504 C92.408,12.8346667 92.584,13 92.936,13 L92.936,13 L93.352,13 C93.704,13 93.88,12.824 93.88,12.472 L93.88,12.472 L93.88,2.232 C93.88,1.88 93.704,1.704 93.352,1.704 L93.352,1.704 L92.856,1.704 C92.504,1.704 92.328,1.88 92.328,2.232 L92.328,2.232 L92.328,5.776 C92.328,5.83466667 92.3333333,5.89066667 92.344,5.944 L92.344,5.944 L92.376,6.104 L92.344,6.104 C92.2053333,5.848 92.0186667,5.61866667 91.784,5.416 C91.5813333,5.23466667 91.3226667,5.072 91.008,4.928 C90.6933333,4.784 90.3013333,4.712 89.832,4.712 C89.2986667,4.712 88.808,4.81333333 88.36,5.016 C87.912,5.21866667 87.5253333,5.504 87.2,5.872 C86.8746667,6.24 86.6213333,6.68533333 86.44,7.208 C86.2586667,7.73066667 86.168,8.312 86.168,8.952 C86.168,9.58133333 86.2506667,10.1546667 86.416,10.672 C86.5813333,11.1893333 86.8186667,11.6346667 87.128,12.008 C87.4373333,12.3813333 87.8133333,12.672 88.256,12.88 C88.6986667,13.088 89.192,13.192 89.736,13.192 Z M90.04,11.848 C89.6986667,11.848 89.3893333,11.7786667 89.112,11.64 C88.8346667,11.5013333 88.5946667,11.3066667 88.392,11.056 C88.1893333,10.8053333 88.032,10.5013333 87.92,10.144 C87.808,9.78666667 87.752,9.38933333 87.752,8.952 C87.752,8.49333333 87.8133333,8.08533333 87.936,7.728 C88.0586667,7.37066667 88.2266667,7.06933333 88.44,6.824 C88.6533333,6.57866667 88.8986667,6.392 89.176,6.264 C89.4533333,6.136 89.752,6.072 90.072,6.072 C90.456,6.072 90.792,6.15466667 91.08,6.32 C91.368,6.48533333 91.608,6.70133333 91.8,6.968 C91.992,7.23466667 92.136,7.53866667 92.232,7.88 C92.328,8.22133333 92.376,8.57333333 92.376,8.936 C92.376,9.448 92.3093333,9.888 92.176,10.256 C92.0426667,10.624 91.8693333,10.9253333 91.656,11.16 C91.4426667,11.3946667 91.1946667,11.568 90.912,11.68 C90.6293333,11.792 90.3386667,11.848 90.04,11.848 Z M100.56,13.192 C101.168,13.192 101.736,13.0853333 102.264,12.872 C102.792,12.6586667 103.253333,12.3626667 103.648,11.984 C104.042667,11.6053333 104.354667,11.1573333 104.584,10.64 C104.813333,10.1226667 104.928,9.55466667 104.928,8.936 C104.928,8.328 104.813333,7.76533333 104.584,7.248 C104.354667,6.73066667 104.042667,6.28266667 103.648,5.904 C103.253333,5.52533333 102.792,5.232 102.264,5.024 C101.736,4.816 101.168,4.712 100.56,4.712 C99.952,4.712 99.384,4.816 98.856,5.024 C98.328,5.232 97.8693333,5.52533333 97.48,5.904 C97.0906667,6.28266667 96.7813333,6.73066667 96.552,7.248 C96.3226667,7.76533333 96.208,8.328 96.208,8.936 C96.208,9.55466667 96.3226667,10.1226667 96.552,10.64 C96.7813333,11.1573333 97.0906667,11.6053333 97.48,11.984 C97.8693333,12.3626667 98.328,12.6586667 98.856,12.872 C99.384,13.0853333 99.952,13.192 100.56,13.192 Z M100.56,11.848 C100.176,11.848 99.816,11.776 99.48,11.632 C99.144,11.488 98.8506667,11.288 98.6,11.032 C98.3493333,10.776 98.1493333,10.4693333 98,10.112 C97.8506667,9.75466667 97.776,9.36266667 97.776,8.936 C97.776,8.52 97.8506667,8.136 98,7.784 C98.1493333,7.432 98.3493333,7.128 98.6,6.872 C98.8506667,6.616 99.144,6.416 99.48,6.272 C99.816,6.128 100.176,6.056 100.56,6.056 C100.944,6.056 101.304,6.128 101.64,6.272 C101.976,6.416 102.272,6.616 102.528,6.872 C102.784,7.128 102.984,7.432 103.128,7.784 C103.272,8.136 103.344,8.52 103.344,8.936 C103.344,9.36266667 103.272,9.75466667 103.128,10.112 C102.984,10.4693333 102.784,10.776 102.528,11.032 C102.272,11.288 101.976,11.488 101.64,11.632 C101.304,11.776 100.944,11.848 100.56,11.848 Z M108.28,13 C108.621333,13 108.792,12.824 108.792,12.472 L108.792,12.472 L108.792,9.208 L109.992,9.208 L112.2,12.632 C112.338667,12.8773333 112.546667,13 112.824,13 L112.824,13 L113.464,13 C113.677333,13 113.818667,12.9386667 113.888,12.816 C113.957333,12.6933333 113.933333,12.5413333 113.816,12.36 L113.816,12.36 L111.224,8.504 L111.224,8.472 L113.464,5.544 C113.592,5.36266667 113.624,5.21066667 113.56,5.088 C113.496,4.96533333 113.357333,4.904 113.144,4.904 L113.144,4.904 L112.552,4.904 C112.274667,4.904 112.066667,5.016 111.928,5.24 L111.928,5.24 L109.96,7.864 L108.792,7.864 L108.792,2.232 C108.792,1.88 108.621333,1.704 108.28,1.704 L108.28,1.704 L107.784,1.704 C107.432,1.704 107.256,1.88 107.256,2.232 L107.256,2.232 L107.256,12.472 C107.256,12.824 107.432,13 107.784,13 L107.784,13 L108.28,13 Z M38.184,29 C39.048,29 39.832,28.872 40.536,28.616 C41.24,28.36 41.8426667,27.992 42.344,27.512 C42.8453333,27.032 43.232,26.44 43.504,25.736 C43.776,25.032 43.912,24.232 43.912,23.336 C43.912,22.44 43.776,21.6426667 43.504,20.944 C43.232,20.2453333 42.8453333,19.656 42.344,19.176 C41.8426667,18.696 41.24,18.3306667 40.536,18.08 C39.832,17.8293333 39.048,17.704 38.184,17.704 L38.184,17.704 L34.968,17.704 C34.616,17.704 34.44,17.88 34.44,18.232 L34.44,18.232 L34.44,28.472 C34.44,28.824 34.616,29 34.968,29 L34.968,29 L38.184,29 Z M38.072,27.624 L36.008,27.624 L36.008,19.08 L38.072,19.08 C38.7013333,19.08 39.2746667,19.1706667 39.792,19.352 C40.3093333,19.5333333 40.752,19.8053333 41.12,20.168 C41.488,20.5306667 41.7733333,20.976 41.976,21.504 C42.1786667,22.032 42.28,22.6426667 42.28,23.336 C42.28,24.0293333 42.1813333,24.6426667 41.984,25.176 C41.7866667,25.7093333 41.504,26.1573333 41.136,26.52 C40.768,26.8826667 40.3253333,27.1573333 39.808,27.344 C39.2906667,27.5306667 38.712,27.624 38.072,27.624 L38.072,27.624 Z M47.36,29 C47.7013333,29 47.872,28.824 47.872,28.472 L47.872,28.472 L47.872,25.16 C47.872,24.7226667 47.9413333,24.32 48.08,23.952 C48.2186667,23.584 48.408,23.264 48.648,22.992 C48.888,22.72 49.1733333,22.5093333 49.504,22.36 C49.8346667,22.2106667 50.192,22.136 50.576,22.136 C50.896,22.136 51.1573333,22.1893333 51.36,22.296 C51.5626667,22.4026667 51.72,22.5466667 51.832,22.728 C51.944,22.9093333 52.0186667,23.1226667 52.056,23.368 C52.0933333,23.6133333 52.112,23.88 52.112,24.168 L52.112,24.168 L52.112,28.472 C52.112,28.824 52.288,29 52.64,29 L52.64,29 L53.136,29 C53.488,29 53.664,28.824 53.664,28.472 L53.664,28.472 L53.664,23.816 C53.664,22.7813333 53.44,22.0053333 52.992,21.488 C52.544,20.9706667 51.84,20.712 50.88,20.712 C50.4746667,20.712 50.1066667,20.7706667 49.776,20.888 C49.4453333,21.0053333 49.152,21.1573333 48.896,21.344 C48.64,21.5306667 48.424,21.7333333 48.248,21.952 C48.072,22.1706667 47.9413333,22.376 47.856,22.568 L47.856,22.568 L47.824,22.568 C47.824,22.5146667 47.8293333,22.4506667 47.84,22.376 C47.8506667,22.3226667 47.8586667,22.2533333 47.864,22.168 C47.8693333,22.0826667 47.872,21.992 47.872,21.896 L47.872,21.896 L47.872,18.232 C47.872,17.88 47.7013333,17.704 47.36,17.704 L47.36,17.704 L46.864,17.704 C46.512,17.704 46.336,17.88 46.336,18.232 L46.336,18.232 L46.336,28.472 C46.336,28.824 46.512,29 46.864,29 L46.864,29 L47.36,29 Z M58.456,29.192 C58.936,29.192 59.3413333,29.104 59.672,28.928 C60.0026667,28.752 60.2746667,28.5573333 60.488,28.344 C60.7333333,28.0986667 60.936,27.816 61.096,27.496 L61.096,27.496 L61.128,27.496 C61.1173333,27.5386667 61.1066667,27.5813333 61.096,27.624 C61.0853333,27.6666667 61.08,27.72 61.08,27.784 L61.08,27.784 L61.08,28.472 C61.08,28.824 61.256,29 61.608,29 L61.608,29 L62.008,29 C62.36,29 62.536,28.824 62.536,28.472 L62.536,28.472 L62.536,23.88 C62.536,22.8453333 62.2586667,22.0586667 61.704,21.52 C61.1493333,20.9813333 60.3653333,20.712 59.352,20.712 C58.7333333,20.712 58.2026667,20.792 57.76,20.952 C57.3173333,21.112 56.9733333,21.2613333 56.728,21.4 C56.44,21.56 56.3813333,21.8 56.552,22.12 L56.552,22.12 L56.68,22.344 C56.8506667,22.6213333 57.0906667,22.6853333 57.4,22.536 C57.5813333,22.4293333 57.8293333,22.3173333 58.144,22.2 C58.4586667,22.0826667 58.8186667,22.024 59.224,22.024 C59.4693333,22.024 59.6986667,22.0533333 59.912,22.112 C60.1253333,22.1706667 60.312,22.2693333 60.472,22.408 C60.632,22.5466667 60.7573333,22.7306667 60.848,22.96 C60.9386667,23.1893333 60.984,23.4693333 60.984,23.8 L60.984,23.8 L60.984,24.008 L60.568,24.008 C60.2906667,24.008 59.9786667,24.0186667 59.632,24.04 C59.2853333,24.0613333 58.9306667,24.104 58.568,24.168 C58.2053333,24.232 57.856,24.328 57.52,24.456 C57.184,24.584 56.8826667,24.7493333 56.616,24.952 C56.3493333,25.1546667 56.136,25.408 55.976,25.712 C55.816,26.016 55.736,26.376 55.736,26.792 C55.736,27.176 55.8106667,27.5146667 55.96,27.808 C56.1093333,28.1013333 56.3093333,28.352 56.56,28.56 C56.8106667,28.768 57.1013333,28.9253333 57.432,29.032 C57.7626667,29.1386667 58.104,29.192 58.456,29.192 Z M58.808,27.96 C58.3066667,27.96 57.9306667,27.824 57.68,27.552 C57.4293333,27.28 57.304,26.984 57.304,26.664 C57.304,26.28 57.4213333,25.9786667 57.656,25.76 C57.8906667,25.5413333 58.1786667,25.3786667 58.52,25.272 C58.8613333,25.1653333 59.2186667,25.0986667 59.592,25.072 C59.9653333,25.0453333 60.296,25.032 60.584,25.032 L60.584,25.032 L61,25.032 L61,25.384 C61,25.6826667 60.9493333,25.984 60.848,26.288 C60.7466667,26.592 60.6026667,26.8693333 60.416,27.12 C60.2293333,27.3706667 60,27.5733333 59.728,27.728 C59.456,27.8826667 59.1493333,27.96 58.808,27.96 Z M66.288,29 C66.64,29 66.816,28.824 66.816,28.472 L66.816,28.472 L66.816,25.224 C66.816,24.8506667 66.8693333,24.4773333 66.976,24.104 C67.0826667,23.7306667 67.24,23.3973333 67.448,23.104 C67.656,22.8106667 67.912,22.5733333 68.216,22.392 C68.52,22.2106667 68.864,22.12 69.248,22.12 C69.5573333,22.12 69.8053333,22.176 69.992,22.288 C70.1786667,22.4 70.32,22.5493333 70.416,22.736 C70.512,22.9226667 70.576,23.1386667 70.608,23.384 C70.64,23.6293333 70.656,23.8853333 70.656,24.152 L70.656,24.152 L70.656,28.472 C70.656,28.824 70.8266667,29 71.168,29 L71.168,29 L71.68,29 C72.0213333,29 72.192,28.824 72.192,28.472 L72.192,28.472 L72.192,25.224 C72.192,24.84 72.2453333,24.4613333 72.352,24.088 C72.4586667,23.7146667 72.616,23.3813333 72.824,23.088 C73.032,22.7946667 73.2853333,22.56 73.584,22.384 C73.8826667,22.208 74.2186667,22.12 74.592,22.12 C74.8906667,22.12 75.1333333,22.1733333 75.32,22.28 C75.5066667,22.3866667 75.6506667,22.5306667 75.752,22.712 C75.8533333,22.8933333 75.9226667,23.1066667 75.96,23.352 C75.9973333,23.5973333 76.016,23.864 76.016,24.152 L76.016,24.152 L76.016,28.472 C76.016,28.824 76.192,29 76.544,29 L76.544,29 L77.04,29 C77.392,29 77.568,28.824 77.568,28.472 L77.568,28.472 L77.568,23.816 C77.568,22.7813333 77.3546667,22.0053333 76.928,21.488 C76.5013333,20.9706667 75.824,20.712 74.896,20.712 C74.5653333,20.712 74.2506667,20.7626667 73.952,20.864 C73.6533333,20.9653333 73.3813333,21.1013333 73.136,21.272 C72.8906667,21.4426667 72.672,21.64 72.48,21.864 C72.288,22.088 72.1386667,22.3173333 72.032,22.552 L72.032,22.552 L72,22.552 C71.712,21.3253333 70.9013333,20.712 69.568,20.712 C69.248,20.712 68.9413333,20.768 68.648,20.88 C68.3546667,20.992 68.0826667,21.136 67.832,21.312 C67.5813333,21.488 67.3626667,21.6906667 67.176,21.92 C66.9893333,22.1493333 66.848,22.3813333 66.752,22.616 L66.752,22.616 L66.72,22.616 C66.72,22.5626667 66.7253333,22.5146667 66.736,22.472 C66.7573333,22.3653333 66.768,22.2586667 66.768,22.152 L66.768,22.152 L66.768,21.432 C66.768,21.08 66.592,20.904 66.24,20.904 L66.24,20.904 L65.792,20.904 C65.44,20.904 65.264,21.08 65.264,21.432 L65.264,21.432 L65.264,28.472 C65.264,28.824 65.44,29 65.792,29 L65.792,29 L66.288,29 Z M81.32,29 C81.672,29 81.848,28.824 81.848,28.472 L81.848,28.472 L81.848,25.224 C81.848,24.8506667 81.9013333,24.4773333 82.008,24.104 C82.1146667,23.7306667 82.272,23.3973333 82.48,23.104 C82.688,22.8106667 82.944,22.5733333 83.248,22.392 C83.552,22.2106667 83.896,22.12 84.28,22.12 C84.5893333,22.12 84.8373333,22.176 85.024,22.288 C85.2106667,22.4 85.352,22.5493333 85.448,22.736 C85.544,22.9226667 85.608,23.1386667 85.64,23.384 C85.672,23.6293333 85.688,23.8853333 85.688,24.152 L85.688,24.152 L85.688,28.472 C85.688,28.824 85.8586667,29 86.2,29 L86.2,29 L86.712,29 C87.0533333,29 87.224,28.824 87.224,28.472 L87.224,28.472 L87.224,25.224 C87.224,24.84 87.2773333,24.4613333 87.384,24.088 C87.4906667,23.7146667 87.648,23.3813333 87.856,23.088 C88.064,22.7946667 88.3173333,22.56 88.616,22.384 C88.9146667,22.208 89.2506667,22.12 89.624,22.12 C89.9226667,22.12 90.1653333,22.1733333 90.352,22.28 C90.5386667,22.3866667 90.6826667,22.5306667 90.784,22.712 C90.8853333,22.8933333 90.9546667,23.1066667 90.992,23.352 C91.0293333,23.5973333 91.048,23.864 91.048,24.152 L91.048,24.152 L91.048,28.472 C91.048,28.824 91.224,29 91.576,29 L91.576,29 L92.072,29 C92.424,29 92.6,28.824 92.6,28.472 L92.6,28.472 L92.6,23.816 C92.6,22.7813333 92.3866667,22.0053333 91.96,21.488 C91.5333333,20.9706667 90.856,20.712 89.928,20.712 C89.5973333,20.712 89.2826667,20.7626667 88.984,20.864 C88.6853333,20.9653333 88.4133333,21.1013333 88.168,21.272 C87.9226667,21.4426667 87.704,21.64 87.512,21.864 C87.32,22.088 87.1706667,22.3173333 87.064,22.552 L87.064,22.552 L87.032,22.552 C86.744,21.3253333 85.9333333,20.712 84.6,20.712 C84.28,20.712 83.9733333,20.768 83.68,20.88 C83.3866667,20.992 83.1146667,21.136 82.864,21.312 C82.6133333,21.488 82.3946667,21.6906667 82.208,21.92 C82.0213333,22.1493333 81.88,22.3813333 81.784,22.616 L81.784,22.616 L81.752,22.616 C81.752,22.5626667 81.7573333,22.5146667 81.768,22.472 C81.7893333,22.3653333 81.8,22.2586667 81.8,22.152 L81.8,22.152 L81.8,21.432 C81.8,21.08 81.624,20.904 81.272,20.904 L81.272,20.904 L80.824,20.904 C80.472,20.904 80.296,21.08 80.296,21.432 L80.296,21.432 L80.296,28.472 C80.296,28.824 80.472,29 80.824,29 L80.824,29 L81.32,29 Z M97.392,29.192 C97.872,29.192 98.2773333,29.104 98.608,28.928 C98.9386667,28.752 99.2106667,28.5573333 99.424,28.344 C99.6693333,28.0986667 99.872,27.816 100.032,27.496 L100.032,27.496 L100.064,27.496 L100.064,27.496 L100.032,27.624 C100.021333,27.6666667 100.016,27.72 100.016,27.784 L100.016,27.784 L100.016,28.472 C100.016,28.824 100.192,29 100.544,29 L100.544,29 L100.944,29 C101.296,29 101.472,28.824 101.472,28.472 L101.472,28.472 L101.472,23.88 C101.472,22.8453333 101.194667,22.0586667 100.64,21.52 C100.085333,20.9813333 99.3013333,20.712 98.288,20.712 C97.6693333,20.712 97.1386667,20.792 96.696,20.952 C96.2533333,21.112 95.9093333,21.2613333 95.664,21.4 C95.376,21.56 95.3173333,21.8 95.488,22.12 L95.488,22.12 L95.616,22.344 C95.7866667,22.6213333 96.0266667,22.6853333 96.336,22.536 C96.5173333,22.4293333 96.7653333,22.3173333 97.08,22.2 C97.3946667,22.0826667 97.7546667,22.024 98.16,22.024 C98.4053333,22.024 98.6346667,22.0533333 98.848,22.112 C99.0613333,22.1706667 99.248,22.2693333 99.408,22.408 C99.568,22.5466667 99.6933333,22.7306667 99.784,22.96 C99.8746667,23.1893333 99.92,23.4693333 99.92,23.8 L99.92,23.8 L99.92,24.008 L99.504,24.008 C99.2266667,24.008 98.9146667,24.0186667 98.568,24.04 C98.2213333,24.0613333 97.8666667,24.104 97.504,24.168 C97.1413333,24.232 96.792,24.328 96.456,24.456 C96.12,24.584 95.8186667,24.7493333 95.552,24.952 C95.2853333,25.1546667 95.072,25.408 94.912,25.712 C94.752,26.016 94.672,26.376 94.672,26.792 C94.672,27.176 94.7466667,27.5146667 94.896,27.808 C95.0453333,28.1013333 95.2453333,28.352 95.496,28.56 C95.7466667,28.768 96.0373333,28.9253333 96.368,29.032 C96.6986667,29.1386667 97.04,29.192 97.392,29.192 Z M97.744,27.96 C97.2426667,27.96 96.8666667,27.824 96.616,27.552 C96.3653333,27.28 96.24,26.984 96.24,26.664 C96.24,26.28 96.3573333,25.9786667 96.592,25.76 C96.8266667,25.5413333 97.1146667,25.3786667 97.456,25.272 C97.7973333,25.1653333 98.1546667,25.0986667 98.528,25.072 C98.9013333,25.0453333 99.232,25.032 99.52,25.032 L99.52,25.032 L99.936,25.032 L99.936,25.384 C99.936,25.6826667 99.8853333,25.984 99.784,26.288 C99.6826667,26.592 99.5386667,26.8693333 99.352,27.12 C99.1653333,27.3706667 98.936,27.5733333 98.664,27.728 C98.392,27.8826667 98.0853333,27.96 97.744,27.96 Z M106.6,29.192 C107.037333,29.192 107.434667,29.1333333 107.792,29.016 C108.149333,28.8986667 108.456,28.7333333 108.712,28.52 C108.968,28.3066667 109.165333,28.0533333 109.304,27.76 C109.442667,27.4666667 109.512,27.1493333 109.512,26.808 C109.512,26.3493333 109.408,25.9733333 109.2,25.68 C108.992,25.3866667 108.733333,25.1466667 108.424,24.96 C108.114667,24.7733333 107.781333,24.616 107.424,24.488 C107.066667,24.36 106.733333,24.232 106.424,24.104 C106.114667,23.976 105.856,23.8293333 105.648,23.664 C105.44,23.4986667 105.336,23.2826667 105.336,23.016 C105.336,22.6746667 105.466667,22.4186667 105.728,22.248 C105.989333,22.0773333 106.312,21.992 106.696,21.992 C107.08,21.992 107.408,22.0453333 107.68,22.152 C107.952,22.2586667 108.173333,22.36 108.344,22.456 C108.664,22.6053333 108.898667,22.5466667 109.048,22.28 L109.048,22.28 L109.192,22.04 C109.277333,21.8906667 109.306667,21.7546667 109.28,21.632 C109.253333,21.5093333 109.165333,21.4106667 109.016,21.336 C108.824,21.2186667 108.544,21.0853333 108.176,20.936 C107.808,20.7866667 107.341333,20.712 106.776,20.712 C106.381333,20.712 106.005333,20.7626667 105.648,20.864 C105.290667,20.9653333 104.978667,21.112 104.712,21.304 C104.445333,21.496 104.234667,21.7386667 104.08,22.032 C103.925333,22.3253333 103.848,22.664 103.848,23.048 C103.848,23.5066667 103.952,23.88 104.16,24.168 C104.368,24.456 104.626667,24.6986667 104.936,24.896 C105.245333,25.0933333 105.578667,25.2533333 105.936,25.376 C106.293333,25.4986667 106.626667,25.6266667 106.936,25.76 C107.245333,25.8933333 107.504,26.04 107.712,26.2 C107.92,26.36 108.024,26.5733333 108.024,26.84 C108.024,27.1813333 107.896,27.4453333 107.64,27.632 C107.384,27.8186667 107.053333,27.912 106.648,27.912 C106.168,27.912 105.762667,27.832 105.432,27.672 C105.101333,27.512 104.845333,27.3733333 104.664,27.256 C104.504,27.1706667 104.368,27.1333333 104.256,27.144 C104.144,27.1546667 104.034667,27.2293333 103.928,27.368 L103.928,27.368 L103.768,27.592 C103.682667,27.7306667 103.645333,27.864 103.656,27.992 C103.666667,28.12 103.741333,28.2266667 103.88,28.312 C103.986667,28.3973333 104.128,28.4906667 104.304,28.592 C104.48,28.6933333 104.68,28.7893333 104.904,28.88 C105.128,28.9706667 105.381333,29.0453333 105.664,29.104 C105.946667,29.1626667 106.258667,29.192 106.6,29.192 Z M115.216,29.064 C115.642667,29.064 115.856,28.888 115.856,28.536 L115.856,28.536 L115.856,28.2 C115.856,28.0186667 115.816,27.8906667 115.736,27.816 C115.656,27.7413333 115.509333,27.6933333 115.296,27.672 C115.146667,27.6613333 114.984,27.632 114.808,27.584 C114.632,27.536 114.466667,27.448 114.312,27.32 C114.157333,27.192 114.026667,27.0106667 113.92,26.776 C113.813333,26.5413333 113.76,26.232 113.76,25.848 L113.76,25.848 L113.76,22.248 L115.184,22.248 C115.525333,22.248 115.696,22.072 115.696,21.72 L115.696,21.72 L115.696,21.512 C115.696,21.16 115.52,20.984 115.168,20.984 L115.168,20.984 L113.76,20.984 L113.76,19.208 C113.76,18.856 113.584,18.68 113.232,18.68 L113.232,18.68 L112.768,18.68 C112.416,18.68 112.24,18.856 112.24,19.208 L112.24,19.208 L112.24,20.984 L111.664,20.984 C111.312,20.984 111.136,21.16 111.136,21.512 L111.136,21.512 L111.136,21.72 C111.136,22.072 111.306667,22.248 111.648,22.248 L111.648,22.248 L112.208,22.248 L112.208,26.088 C112.208,26.6 112.290667,27.0426667 112.456,27.416 C112.621333,27.7893333 112.84,28.0986667 113.112,28.344 C113.384,28.5893333 113.701333,28.7706667 114.064,28.888 C114.426667,29.0053333 114.810667,29.064 115.216,29.064 Z M119.96,29.192 C120.44,29.192 120.845333,29.104 121.176,28.928 C121.506667,28.752 121.778667,28.5573333 121.992,28.344 C122.237333,28.0986667 122.44,27.816 122.6,27.496 L122.6,27.496 L122.632,27.496 C122.621333,27.5386667 122.610667,27.5813333 122.6,27.624 C122.589333,27.6666667 122.584,27.72 122.584,27.784 L122.584,27.784 L122.584,28.472 C122.584,28.824 122.76,29 123.112,29 L123.112,29 L123.512,29 C123.864,29 124.04,28.824 124.04,28.472 L124.04,28.472 L124.04,23.88 C124.04,22.8453333 123.762667,22.0586667 123.208,21.52 C122.653333,20.9813333 121.869333,20.712 120.856,20.712 C120.237333,20.712 119.706667,20.792 119.264,20.952 C118.821333,21.112 118.477333,21.2613333 118.232,21.4 C117.944,21.56 117.885333,21.8 118.056,22.12 L118.056,22.12 L118.184,22.344 C118.354667,22.6213333 118.594667,22.6853333 118.904,22.536 C119.085333,22.4293333 119.333333,22.3173333 119.648,22.2 C119.962667,22.0826667 120.322667,22.024 120.728,22.024 C120.973333,22.024 121.202667,22.0533333 121.416,22.112 C121.629333,22.1706667 121.816,22.2693333 121.976,22.408 C122.136,22.5466667 122.261333,22.7306667 122.352,22.96 C122.442667,23.1893333 122.488,23.4693333 122.488,23.8 L122.488,23.8 L122.488,24.008 L122.072,24.008 C121.794667,24.008 121.482667,24.0186667 121.136,24.04 C120.789333,24.0613333 120.434667,24.104 120.072,24.168 C119.709333,24.232 119.36,24.328 119.024,24.456 C118.688,24.584 118.386667,24.7493333 118.12,24.952 C117.853333,25.1546667 117.64,25.408 117.48,25.712 C117.32,26.016 117.24,26.376 117.24,26.792 C117.24,27.176 117.314667,27.5146667 117.464,27.808 C117.613333,28.1013333 117.813333,28.352 118.064,28.56 C118.314667,28.768 118.605333,28.9253333 118.936,29.032 C119.266667,29.1386667 119.608,29.192 119.96,29.192 Z M120.312,27.96 C119.810667,27.96 119.434667,27.824 119.184,27.552 C118.933333,27.28 118.808,26.984 118.808,26.664 C118.808,26.28 118.925333,25.9786667 119.16,25.76 C119.394667,25.5413333 119.682667,25.3786667 120.024,25.272 C120.365333,25.1653333 120.722667,25.0986667 121.096,25.072 C121.469333,25.0453333 121.8,25.032 122.088,25.032 L122.088,25.032 L122.504,25.032 L122.504,25.384 C122.504,25.6826667 122.453333,25.984 122.352,26.288 C122.250667,26.592 122.106667,26.8693333 121.92,27.12 C121.733333,27.3706667 121.504,27.5733333 121.232,27.728 C120.96,27.8826667 120.653333,27.96 120.312,27.96 Z M127.792,29 C128.144,29 128.32,28.824 128.32,28.472 L128.32,28.472 L128.32,25.128 C128.32,24.712 128.386667,24.32 128.52,23.952 C128.653333,23.584 128.84,23.2666667 129.08,23 C129.32,22.7333333 129.605333,22.5226667 129.936,22.368 C130.266667,22.2133333 130.629333,22.136 131.024,22.136 C131.344,22.136 131.605333,22.1893333 131.808,22.296 C132.010667,22.4026667 132.165333,22.5466667 132.272,22.728 C132.378667,22.9093333 132.450667,23.1226667 132.488,23.368 C132.525333,23.6133333 132.544,23.88 132.544,24.168 L132.544,24.168 L132.544,28.472 C132.544,28.824 132.72,29 133.072,29 L133.072,29 L133.568,29 C133.92,29 134.096,28.824 134.096,28.472 L134.096,28.472 L134.096,23.816 C134.096,22.7813333 133.874667,22.0053333 133.432,21.488 C132.989333,20.9706667 132.288,20.712 131.328,20.712 C130.88,20.712 130.485333,20.7786667 130.144,20.912 C129.802667,21.0453333 129.504,21.208 129.248,21.4 C128.992,21.592 128.781333,21.8 128.616,22.024 C128.450667,22.248 128.330667,22.4453333 128.256,22.616 L128.256,22.616 L128.224,22.616 C128.224,22.5626667 128.229333,22.5146667 128.24,22.472 C128.261333,22.3653333 128.272,22.2586667 128.272,22.152 L128.272,22.152 L128.272,21.432 C128.272,21.08 128.096,20.904 127.744,20.904 L127.744,20.904 L127.296,20.904 C126.944,20.904 126.768,21.08 126.768,21.432 L126.768,21.432 L126.768,28.472 C126.768,28.824 126.944,29 127.296,29 L127.296,29 L127.792,29 Z" id="PiyapodokDhammastan" fill="#FFFFFF" fill-rule="nonzero"></path>
                    </g>
                </g>
            </g>
        </g>
    </g>
</svg>