<?xml version="1.0" encoding="UTF-8"?>
<svg width="161px" height="38px" viewBox="0 0 161 38" version="1.1" xmlns="http://www.w3.org/2000/svg" xmlns:xlink="http://www.w3.org/1999/xlink">
    <!-- Generator: Sketch 63.1 (92452) - https://sketch.com -->
    <title>Logo</title>
    <desc>Created with Sketch.</desc>
    <g id="Page-1" stroke="none" stroke-width="1" fill="none" fill-rule="evenodd">
        <g id="Home-Page---Narrow" transform="translate(-20.000000, -78.000000)" stroke="#555555">
            <g id="Header" transform="translate(20.000000, 79.000000)">
                <g id="Logo">
                    <g id="iconfinder_budha1_264744" stroke-linecap="round" stroke-linejoin="round" stroke-width="1.2">
                        <path d="M4.80525,0.506602274 C2.4315,1.60310227 0.35625,5.15285227 2.1495,7.56710227 C3.36075,9.19910227 5.61975,9.82610227 5.97075,10.2873523 C5.4855,12.5426023 6.252,19.7591023 7.33125,21.6873523 C8.217,23.2706023 9.7605,23.5166023 11.1525,24.0843523 C11.56875,26.0066023 11.6715,26.6583523 10.764,28.3586023 C10.46325,28.9241023 10.32225,30.1923523 11.3475,29.3958523 C11.57175,29.7303523 11.34075,30.8276023 11.412,31.3383523 C11.44875,31.6061023 14.055,34.8101023 14.3265,35.0958523 C14.45775,35.0853523 14.922,35.3043523 15.0405,35.2083523" id="Path" transform="translate(8.256458, 17.869676) scale(-1, 1) rotate(-180.000000) translate(-8.256458, -17.869676) "></path>
                        <line x1="0.7245" y1="35.556" x2="8.892" y2="35.556" id="Path" transform="translate(4.808250, 35.556000) scale(-1, 1) rotate(-180.000000) translate(-4.808250, -35.556000) "></line>
                        <path d="M5.97075,28.10775 C7.04625,26.8605 7.6485,26.16375 9.08025,25.32225" id="Path" transform="translate(7.525500, 26.715000) scale(-1, 1) rotate(-180.000000) translate(-7.525500, -26.715000) "></path>
                        <path d="M11.541,12.303 C12.27975,10.5585 12.3285,10.81425 13.5495,9.77625" id="Path" transform="translate(12.545250, 11.039625) scale(-1, 1) rotate(-180.000000) translate(-12.545250, -11.039625) "></path>
                        <path d="M25.22625,0.453685878 C27.59925,1.55018588 29.6745,5.09993588 27.882,7.51418588 C26.67075,9.14618588 24.411,9.77318588 24.06,10.2344359 C24.546,12.4896859 23.77875,19.7061859 22.6995,21.6344359 C21.81375,23.2176859 20.27025,23.4636859 18.87825,24.0314359 C18.462,25.9536859 18.35925,26.6054359 19.26675,28.3056859 C19.56825,28.8711859 19.7085,30.1394359 18.68325,29.3429359 C18.45975,29.6774359 18.69075,30.7746859 18.6195,31.2854359 C18.582,31.5531859 15.9765,34.7571859 15.70425,35.0429359 C15.573,35.0324359 15.159,35.3084359 15.0405,35.2124359" id="Path" transform="translate(21.799574, 17.843218) scale(-1, 1) rotate(-180.000000) translate(-21.799574, -17.843218) "></path>
                        <line x1="29.30625" y1="35.556" x2="21.1395" y2="35.556" id="Path" transform="translate(25.222875, 35.556000) scale(-1, 1) rotate(-180.000000) translate(-25.222875, -35.556000) "></line>
                        <path d="M24.06,28.10775 C22.9845,26.8605 22.38225,26.16375 20.9505,25.32225" id="Path" transform="translate(22.505250, 26.715000) scale(-1, 1) rotate(-180.000000) translate(-22.505250, -26.715000) "></path>
                        <path d="M18.48975,12.303 C17.751,10.5585 17.70225,10.81425 16.48125,9.77625" id="Path" transform="translate(17.485500, 11.039625) scale(-1, 1) rotate(-180.000000) translate(-17.485500, -11.039625) "></path>
                    </g>
                    <path d="M42.574,16 C42.862,16 43.006,15.85 43.006,15.55 L43.006,15.55 L43.006,11.032 L46.138,11.032 C46.714,11.032 47.242,10.939 47.722,10.753 C48.202,10.567 48.613,10.303 48.955,9.961 C49.297,9.619 49.564,9.211 49.756,8.737 C49.948,8.263 50.044,7.738 50.044,7.162 C50.044,6.598 49.948,6.082 49.756,5.614 C49.564,5.146 49.297,4.744 48.955,4.408 C48.613,4.072 48.202,3.811 47.722,3.625 C47.242,3.439 46.714,3.346 46.138,3.346 L46.138,3.346 L42.196,3.346 C41.908,3.346 41.764,3.496 41.764,3.796 L41.764,3.796 L41.764,15.55 C41.764,15.85 41.908,16 42.196,16 L42.196,16 L42.574,16 Z M45.976,9.916 L43.006,9.916 L43.006,4.462 L45.994,4.462 C46.858,4.462 47.536,4.705 48.028,5.191 C48.52,5.677 48.766,6.334 48.766,7.162 C48.766,8.026 48.517,8.701 48.019,9.187 C47.521,9.673 46.84,9.916 45.976,9.916 L45.976,9.916 Z M54.362,4.876 C54.65,4.876 54.794,4.732 54.794,4.444 L54.794,4.444 L54.794,3.796 C54.794,3.496 54.65,3.346 54.362,3.346 L54.362,3.346 L53.912,3.346 C53.624,3.346 53.48,3.496 53.48,3.796 L53.48,3.796 L53.48,4.444 C53.48,4.732 53.624,4.876 53.912,4.876 L53.912,4.876 L54.362,4.876 Z M54.308,16 C54.596,16 54.74,15.85 54.74,15.55 L54.74,15.55 L54.74,7.396 C54.74,7.096 54.596,6.946 54.308,6.946 L54.308,6.946 L53.966,6.946 C53.666,6.946 53.516,7.096 53.516,7.396 L53.516,7.396 L53.516,15.55 C53.516,15.85 53.666,16 53.966,16 L53.966,16 L54.308,16 Z M59.382,19.78 C59.958,19.78 60.474,19.609 60.93,19.267 C61.386,18.925 61.74,18.448 61.992,17.836 L61.992,17.836 L66.258,7.468 C66.306,7.312 66.3,7.186 66.24,7.09 C66.18,6.994 66.066,6.946 65.898,6.946 L65.898,6.946 L65.502,6.946 C65.25,6.946 65.082,7.066 64.998,7.306 L64.998,7.306 L62.514,13.552 C62.442,13.72 62.379,13.894 62.325,14.074 C62.271,14.254 62.232,14.398 62.208,14.506 L62.208,14.506 L62.172,14.506 C62.136,14.398 62.088,14.254 62.028,14.074 C61.968,13.894 61.908,13.72 61.848,13.552 L61.848,13.552 L59.31,7.288 C59.214,7.072 59.046,6.958 58.806,6.946 L58.806,6.946 L58.392,6.946 C58.224,6.946 58.11,6.997 58.05,7.099 C57.99,7.201 57.99,7.324 58.05,7.468 L58.05,7.468 L61.614,15.928 L61.074,17.206 C60.63,18.202 60.066,18.7 59.382,18.7 C59.214,18.7 59.064,18.673 58.932,18.619 C58.8,18.565 58.686,18.514 58.59,18.466 C58.338,18.37 58.158,18.442 58.05,18.682 L58.05,18.682 L57.942,18.88 C57.882,18.988 57.87,19.096 57.906,19.204 C57.942,19.312 58.02,19.396 58.14,19.456 C58.344,19.552 58.551,19.63 58.761,19.69 C58.971,19.75 59.178,19.78 59.382,19.78 Z M71.854,16.216 C72.418,16.216 72.895,16.108 73.285,15.892 C73.675,15.676 73.99,15.439 74.23,15.181 C74.47,14.923 74.644,14.686 74.752,14.47 C74.86,14.254 74.914,14.146 74.914,14.146 L74.914,14.146 L74.95,14.146 C74.926,14.206 74.911,14.299 74.905,14.425 C74.899,14.551 74.896,14.686 74.896,14.83 L74.896,14.83 L74.896,15.55 C74.896,15.85 75.046,16 75.346,16 L75.346,16 L75.634,16 C75.922,16 76.066,15.85 76.066,15.55 L76.066,15.55 L76.066,10.204 C76.066,9.076 75.778,8.215 75.202,7.621 C74.626,7.027 73.792,6.73 72.7,6.73 C72.196,6.73 71.689,6.802 71.179,6.946 C70.669,7.09 70.216,7.282 69.82,7.522 C69.568,7.678 69.526,7.882 69.694,8.134 L69.694,8.134 L69.802,8.314 C69.946,8.554 70.15,8.602 70.414,8.458 C70.738,8.254 71.092,8.098 71.476,7.99 C71.86,7.882 72.238,7.828 72.61,7.828 C74.098,7.828 74.842,8.608 74.842,10.168 L74.842,10.168 L74.842,10.456 L74.32,10.456 C72.556,10.456 71.194,10.729 70.234,11.275 C69.274,11.821 68.794,12.586 68.794,13.57 C68.794,13.954 68.869,14.308 69.019,14.632 C69.169,14.956 69.379,15.235 69.649,15.469 C69.919,15.703 70.243,15.886 70.621,16.018 C70.999,16.15 71.41,16.216 71.854,16.216 Z M72.07,15.19 C71.482,15.19 70.999,15.028 70.621,14.704 C70.243,14.38 70.054,13.966 70.054,13.462 C70.054,12.778 70.414,12.259 71.134,11.905 C71.854,11.551 72.922,11.374 74.338,11.374 L74.338,11.374 L74.842,11.374 L74.842,11.806 C74.842,12.274 74.767,12.715 74.617,13.129 C74.467,13.543 74.266,13.903 74.014,14.209 C73.762,14.515 73.468,14.755 73.132,14.929 C72.796,15.103 72.442,15.19 72.07,15.19 Z M81.104,19.6 C81.404,19.6 81.554,19.45 81.554,19.15 L81.554,19.15 L81.554,15.172 C81.554,15.004 81.545,14.848 81.527,14.704 C81.509,14.56 81.494,14.452 81.482,14.38 L81.482,14.38 L81.518,14.38 C81.602,14.584 81.728,14.794 81.896,15.01 C82.064,15.226 82.274,15.424 82.526,15.604 C82.778,15.784 83.069,15.931 83.399,16.045 C83.729,16.159 84.098,16.216 84.506,16.216 C85.106,16.216 85.655,16.102 86.153,15.874 C86.651,15.646 87.08,15.322 87.44,14.902 C87.8,14.482 88.079,13.984 88.277,13.408 C88.475,12.832 88.574,12.19 88.574,11.482 C88.574,10.762 88.481,10.111 88.295,9.529 C88.109,8.947 87.842,8.449 87.494,8.035 C87.146,7.621 86.729,7.3 86.243,7.072 C85.757,6.844 85.22,6.73 84.632,6.73 C84.188,6.73 83.789,6.79 83.435,6.91 C83.081,7.03 82.772,7.183 82.508,7.369 C82.244,7.555 82.025,7.759 81.851,7.981 C81.677,8.203 81.548,8.416 81.464,8.62 L81.464,8.62 L81.428,8.62 C81.44,8.56 81.452,8.476 81.464,8.368 C81.476,8.26 81.482,8.14 81.482,8.008 L81.482,8.008 L81.482,7.36 C81.482,7.084 81.338,6.946 81.05,6.946 L81.05,6.946 L80.762,6.946 C80.474,6.946 80.33,7.096 80.33,7.396 L80.33,7.396 L80.33,19.15 C80.33,19.45 80.474,19.6 80.762,19.6 L80.762,19.6 L81.104,19.6 Z M84.38,15.118 C83.96,15.118 83.576,15.028 83.228,14.848 C82.88,14.668 82.58,14.416 82.328,14.092 C82.076,13.768 81.878,13.387 81.734,12.949 C81.59,12.511 81.518,12.028 81.518,11.5 C81.518,10.948 81.587,10.447 81.725,9.997 C81.863,9.547 82.058,9.163 82.31,8.845 C82.562,8.527 82.868,8.281 83.228,8.107 C83.588,7.933 83.996,7.846 84.452,7.846 C84.872,7.846 85.259,7.933 85.613,8.107 C85.967,8.281 86.27,8.53 86.522,8.854 C86.774,9.178 86.969,9.562 87.107,10.006 C87.245,10.45 87.314,10.942 87.314,11.482 C87.314,12.022 87.242,12.514 87.098,12.958 C86.954,13.402 86.753,13.786 86.495,14.11 C86.237,14.434 85.928,14.683 85.568,14.857 C85.208,15.031 84.812,15.118 84.38,15.118 Z M96.528,16.216 C97.188,16.216 97.809,16.093 98.391,15.847 C98.973,15.601 99.48,15.262 99.912,14.83 C100.344,14.398 100.683,13.891 100.929,13.309 C101.175,12.727 101.298,12.1 101.298,11.428 C101.298,10.768 101.175,10.153 100.929,9.583 C100.683,9.013 100.344,8.518 99.912,8.098 C99.48,7.678 98.973,7.345 98.391,7.099 C97.809,6.853 97.182,6.73 96.51,6.73 C95.838,6.73 95.211,6.853 94.629,7.099 C94.047,7.345 93.543,7.678 93.117,8.098 C92.691,8.518 92.355,9.013 92.109,9.583 C91.863,10.153 91.74,10.768 91.74,11.428 C91.74,12.1 91.863,12.727 92.109,13.309 C92.355,13.891 92.694,14.398 93.126,14.83 C93.558,15.262 94.065,15.601 94.647,15.847 C95.229,16.093 95.856,16.216 96.528,16.216 Z M96.528,15.118 C96.036,15.118 95.574,15.022 95.142,14.83 C94.71,14.638 94.335,14.377 94.017,14.047 C93.699,13.717 93.45,13.327 93.27,12.877 C93.09,12.427 93,11.944 93,11.428 C93,10.924 93.09,10.453 93.27,10.015 C93.45,9.577 93.699,9.196 94.017,8.872 C94.335,8.548 94.71,8.293 95.142,8.107 C95.574,7.921 96.036,7.828 96.528,7.828 C97.02,7.828 97.479,7.921 97.905,8.107 C98.331,8.293 98.703,8.548 99.021,8.872 C99.339,9.196 99.588,9.577 99.768,10.015 C99.948,10.453 100.038,10.924 100.038,11.428 C100.038,11.944 99.948,12.427 99.768,12.877 C99.588,13.327 99.339,13.717 99.021,14.047 C98.703,14.377 98.331,14.638 97.905,14.83 C97.479,15.022 97.02,15.118 96.528,15.118 Z M108.406,16.216 C108.742,16.216 109.075,16.171 109.405,16.081 C109.735,15.991 110.038,15.862 110.314,15.694 C110.59,15.526 110.836,15.325 111.052,15.091 C111.268,14.857 111.436,14.602 111.556,14.326 L111.556,14.326 L111.592,14.326 C111.568,14.398 111.55,14.485 111.538,14.587 C111.526,14.689 111.52,14.788 111.52,14.884 L111.52,14.884 L111.52,15.568 C111.52,15.856 111.67,16 111.97,16 L111.97,16 L112.276,16 C112.564,16 112.708,15.85 112.708,15.55 L112.708,15.55 L112.708,3.796 C112.708,3.496 112.564,3.346 112.276,3.346 L112.276,3.346 L111.934,3.346 C111.634,3.346 111.484,3.496 111.484,3.796 L111.484,3.796 L111.484,7.864 C111.484,8.212 111.502,8.44 111.538,8.548 L111.538,8.548 L111.502,8.548 C111.382,8.284 111.22,8.041 111.016,7.819 C110.812,7.597 110.578,7.405 110.314,7.243 C110.05,7.081 109.765,6.955 109.459,6.865 C109.153,6.775 108.844,6.73 108.532,6.73 C107.92,6.73 107.365,6.844 106.867,7.072 C106.369,7.3 105.943,7.624 105.589,8.044 C105.235,8.464 104.959,8.965 104.761,9.547 C104.563,10.129 104.464,10.768 104.464,11.464 C104.464,12.184 104.557,12.838 104.743,13.426 C104.929,14.014 105.193,14.515 105.535,14.929 C105.877,15.343 106.291,15.661 106.777,15.883 C107.263,16.105 107.806,16.216 108.406,16.216 Z M108.586,15.118 C108.154,15.118 107.761,15.031 107.407,14.857 C107.053,14.683 106.75,14.437 106.498,14.119 C106.246,13.801 106.054,13.417 105.922,12.967 C105.79,12.517 105.724,12.016 105.724,11.464 C105.724,10.936 105.796,10.45 105.94,10.006 C106.084,9.562 106.282,9.181 106.534,8.863 C106.786,8.545 107.092,8.296 107.452,8.116 C107.812,7.936 108.208,7.846 108.64,7.846 C109.06,7.846 109.447,7.936 109.801,8.116 C110.155,8.296 110.458,8.545 110.71,8.863 C110.962,9.181 111.16,9.562 111.304,10.006 C111.448,10.45 111.52,10.936 111.52,11.464 C111.52,12.592 111.256,13.483 110.728,14.137 C110.2,14.791 109.486,15.118 108.586,15.118 Z M121.256,16.216 C121.916,16.216 122.537,16.093 123.119,15.847 C123.701,15.601 124.208,15.262 124.64,14.83 C125.072,14.398 125.411,13.891 125.657,13.309 C125.903,12.727 126.026,12.1 126.026,11.428 C126.026,10.768 125.903,10.153 125.657,9.583 C125.411,9.013 125.072,8.518 124.64,8.098 C124.208,7.678 123.701,7.345 123.119,7.099 C122.537,6.853 121.91,6.73 121.238,6.73 C120.566,6.73 119.939,6.853 119.357,7.099 C118.775,7.345 118.271,7.678 117.845,8.098 C117.419,8.518 117.083,9.013 116.837,9.583 C116.591,10.153 116.468,10.768 116.468,11.428 C116.468,12.1 116.591,12.727 116.837,13.309 C117.083,13.891 117.422,14.398 117.854,14.83 C118.286,15.262 118.793,15.601 119.375,15.847 C119.957,16.093 120.584,16.216 121.256,16.216 Z M121.256,15.118 C120.764,15.118 120.302,15.022 119.87,14.83 C119.438,14.638 119.063,14.377 118.745,14.047 C118.427,13.717 118.178,13.327 117.998,12.877 C117.818,12.427 117.728,11.944 117.728,11.428 C117.728,10.924 117.818,10.453 117.998,10.015 C118.178,9.577 118.427,9.196 118.745,8.872 C119.063,8.548 119.438,8.293 119.87,8.107 C120.302,7.921 120.764,7.828 121.256,7.828 C121.748,7.828 122.207,7.921 122.633,8.107 C123.059,8.293 123.431,8.548 123.749,8.872 C124.067,9.196 124.316,9.577 124.496,10.015 C124.676,10.453 124.766,10.924 124.766,11.428 C124.766,11.944 124.676,12.427 124.496,12.877 C124.316,13.327 124.067,13.717 123.749,14.047 C123.431,14.377 123.059,14.638 122.633,14.83 C122.207,15.022 121.748,15.118 121.256,15.118 Z M130.56,16 C130.86,16 131.01,15.85 131.01,15.55 L131.01,15.55 L131.01,11.482 L132.486,11.482 L135.312,15.694 C135.372,15.814 135.441,15.895 135.519,15.937 C135.597,15.979 135.702,16 135.834,16 L135.834,16 L136.302,16 C136.482,16 136.602,15.952 136.662,15.856 C136.722,15.76 136.704,15.628 136.608,15.46 L136.608,15.46 L133.476,10.924 L133.476,10.888 L136.212,7.486 C136.32,7.354 136.35,7.234 136.302,7.126 C136.254,7.018 136.14,6.958 135.96,6.946 L135.96,6.946 L135.51,6.946 C135.294,6.946 135.114,7.036 134.97,7.216 L134.97,7.216 L132.468,10.402 L131.01,10.402 L131.01,3.796 C131.01,3.496 130.86,3.346 130.56,3.346 L130.56,3.346 L130.218,3.346 C129.93,3.346 129.786,3.496 129.786,3.796 L129.786,3.796 L129.786,15.55 C129.786,15.85 129.93,16 130.218,16 L130.218,16 L130.56,16 Z M45.85,35 C46.822,35 47.701,34.853 48.487,34.559 C49.273,34.265 49.942,33.845 50.494,33.299 C51.046,32.753 51.469,32.09 51.763,31.31 C52.057,30.53 52.204,29.648 52.204,28.664 C52.204,27.692 52.057,26.819 51.763,26.045 C51.469,25.271 51.046,24.608 50.494,24.056 C49.942,23.504 49.273,23.081 48.487,22.787 C47.701,22.493 46.822,22.346 45.85,22.346 L45.85,22.346 L42.196,22.346 C41.908,22.346 41.764,22.496 41.764,22.796 L41.764,22.796 L41.764,34.55 C41.764,34.85 41.908,35 42.196,35 L42.196,35 L45.85,35 Z M45.724,33.884 L43.006,33.884 L43.006,23.462 L45.724,23.462 C46.528,23.462 47.251,23.582 47.893,23.822 C48.535,24.062 49.078,24.407 49.522,24.857 C49.966,25.307 50.308,25.853 50.548,26.495 C50.788,27.137 50.908,27.86 50.908,28.664 C50.908,29.48 50.791,30.212 50.557,30.86 C50.323,31.508 49.981,32.057 49.531,32.507 C49.081,32.957 48.535,33.299 47.893,33.533 C47.251,33.767 46.528,33.884 45.724,33.884 L45.724,33.884 Z M56.864,35 C57.164,35 57.314,34.85 57.314,34.55 L57.314,34.55 L57.314,30.626 C57.314,30.098 57.401,29.606 57.575,29.15 C57.749,28.694 57.989,28.298 58.295,27.962 C58.601,27.626 58.961,27.362 59.375,27.17 C59.789,26.978 60.242,26.882 60.734,26.882 C61.442,26.882 61.949,27.092 62.255,27.512 C62.561,27.932 62.714,28.616 62.714,29.564 L62.714,29.564 L62.714,34.55 C62.714,34.85 62.864,35 63.164,35 L63.164,35 L63.506,35 C63.794,35 63.938,34.85 63.938,34.55 L63.938,34.55 L63.938,29.24 C63.938,28.028 63.695,27.14 63.209,26.576 C62.723,26.012 61.952,25.73 60.896,25.73 C60.512,25.73 60.131,25.79 59.753,25.91 C59.375,26.03 59.024,26.195 58.7,26.405 C58.376,26.615 58.091,26.861 57.845,27.143 C57.599,27.425 57.41,27.728 57.278,28.052 L57.278,28.052 L57.242,28.052 C57.254,27.992 57.269,27.893 57.287,27.755 C57.305,27.617 57.314,27.47 57.314,27.314 L57.314,27.314 L57.314,22.796 C57.314,22.496 57.164,22.346 56.864,22.346 L56.864,22.346 L56.522,22.346 C56.234,22.346 56.09,22.496 56.09,22.796 L56.09,22.796 L56.09,34.55 C56.09,34.85 56.234,35 56.522,35 L56.522,35 L56.864,35 Z M70.488,35.216 C71.052,35.216 71.529,35.108 71.919,34.892 C72.309,34.676 72.624,34.439 72.864,34.181 C73.104,33.923 73.278,33.686 73.386,33.47 C73.494,33.254 73.548,33.146 73.548,33.146 L73.548,33.146 L73.584,33.146 C73.56,33.206 73.545,33.299 73.539,33.425 C73.533,33.551 73.53,33.686 73.53,33.83 L73.53,33.83 L73.53,34.55 C73.53,34.85 73.68,35 73.98,35 L73.98,35 L74.268,35 C74.556,35 74.7,34.85 74.7,34.55 L74.7,34.55 L74.7,29.204 C74.7,28.076 74.412,27.215 73.836,26.621 C73.26,26.027 72.426,25.73 71.334,25.73 C70.83,25.73 70.323,25.802 69.813,25.946 C69.303,26.09 68.85,26.282 68.454,26.522 C68.202,26.678 68.16,26.882 68.328,27.134 L68.328,27.134 L68.436,27.314 C68.58,27.554 68.784,27.602 69.048,27.458 C69.372,27.254 69.726,27.098 70.11,26.99 C70.494,26.882 70.872,26.828 71.244,26.828 C72.732,26.828 73.476,27.608 73.476,29.168 L73.476,29.168 L73.476,29.456 L72.954,29.456 C71.19,29.456 69.828,29.729 68.868,30.275 C67.908,30.821 67.428,31.586 67.428,32.57 C67.428,32.954 67.503,33.308 67.653,33.632 C67.803,33.956 68.013,34.235 68.283,34.469 C68.553,34.703 68.877,34.886 69.255,35.018 C69.633,35.15 70.044,35.216 70.488,35.216 Z M70.704,34.19 C70.116,34.19 69.633,34.028 69.255,33.704 C68.877,33.38 68.688,32.966 68.688,32.462 C68.688,31.778 69.048,31.259 69.768,30.905 C70.488,30.551 71.556,30.374 72.972,30.374 L72.972,30.374 L73.476,30.374 L73.476,30.806 C73.476,31.274 73.401,31.715 73.251,32.129 C73.101,32.543 72.9,32.903 72.648,33.209 C72.396,33.515 72.102,33.755 71.766,33.929 C71.43,34.103 71.076,34.19 70.704,34.19 Z M79.738,35 C80.026,35 80.17,34.85 80.17,34.55 L80.17,34.55 L80.17,30.626 C80.17,30.122 80.254,29.639 80.422,29.177 C80.59,28.715 80.815,28.313 81.097,27.971 C81.379,27.629 81.706,27.356 82.078,27.152 C82.45,26.948 82.846,26.846 83.266,26.846 C83.938,26.846 84.424,27.059 84.724,27.485 C85.024,27.911 85.174,28.598 85.174,29.546 L85.174,29.546 L85.174,34.55 C85.174,34.85 85.324,35 85.624,35 L85.624,35 L85.966,35 C86.254,35 86.398,34.85 86.398,34.55 L86.398,34.55 L86.398,30.626 C86.398,30.11 86.479,29.624 86.641,29.168 C86.803,28.712 87.022,28.313 87.298,27.971 C87.574,27.629 87.895,27.356 88.261,27.152 C88.627,26.948 89.02,26.846 89.44,26.846 C90.124,26.846 90.619,27.062 90.925,27.494 C91.231,27.926 91.384,28.61 91.384,29.546 L91.384,29.546 L91.384,34.55 C91.384,34.85 91.534,35 91.834,35 L91.834,35 L92.158,35 C92.458,35 92.608,34.85 92.608,34.55 L92.608,34.55 L92.608,29.24 C92.608,28.04 92.365,27.155 91.879,26.585 C91.393,26.015 90.634,25.73 89.602,25.73 C89.266,25.73 88.93,25.787 88.594,25.901 C88.258,26.015 87.94,26.174 87.64,26.378 C87.34,26.582 87.073,26.822 86.839,27.098 C86.605,27.374 86.416,27.674 86.272,27.998 L86.272,27.998 L86.236,27.998 C85.972,26.498 85.042,25.742 83.446,25.73 C83.098,25.73 82.753,25.793 82.411,25.919 C82.069,26.045 81.748,26.216 81.448,26.432 C81.148,26.648 80.881,26.897 80.647,27.179 C80.413,27.461 80.236,27.764 80.116,28.088 L80.116,28.088 L80.08,28.088 C80.092,28.028 80.107,27.938 80.125,27.818 C80.143,27.698 80.152,27.572 80.152,27.44 L80.152,27.44 L80.152,26.396 C80.152,26.096 80.008,25.946 79.72,25.946 L79.72,25.946 L79.396,25.946 C79.096,25.946 78.946,26.096 78.946,26.396 L78.946,26.396 L78.946,34.55 C78.946,34.85 79.096,35 79.396,35 L79.396,35 L79.738,35 Z M97.646,35 C97.934,35 98.078,34.85 98.078,34.55 L98.078,34.55 L98.078,30.626 C98.078,30.122 98.162,29.639 98.33,29.177 C98.498,28.715 98.723,28.313 99.005,27.971 C99.287,27.629 99.614,27.356 99.986,27.152 C100.358,26.948 100.754,26.846 101.174,26.846 C101.846,26.846 102.332,27.059 102.632,27.485 C102.932,27.911 103.082,28.598 103.082,29.546 L103.082,29.546 L103.082,34.55 C103.082,34.85 103.232,35 103.532,35 L103.532,35 L103.874,35 C104.162,35 104.306,34.85 104.306,34.55 L104.306,34.55 L104.306,30.626 C104.306,30.11 104.387,29.624 104.549,29.168 C104.711,28.712 104.93,28.313 105.206,27.971 C105.482,27.629 105.803,27.356 106.169,27.152 C106.535,26.948 106.928,26.846 107.348,26.846 C108.032,26.846 108.527,27.062 108.833,27.494 C109.139,27.926 109.292,28.61 109.292,29.546 L109.292,29.546 L109.292,34.55 C109.292,34.85 109.442,35 109.742,35 L109.742,35 L110.066,35 C110.366,35 110.516,34.85 110.516,34.55 L110.516,34.55 L110.516,29.24 C110.516,28.04 110.273,27.155 109.787,26.585 C109.301,26.015 108.542,25.73 107.51,25.73 C107.174,25.73 106.838,25.787 106.502,25.901 C106.166,26.015 105.848,26.174 105.548,26.378 C105.248,26.582 104.981,26.822 104.747,27.098 C104.513,27.374 104.324,27.674 104.18,27.998 L104.18,27.998 L104.144,27.998 C103.88,26.498 102.95,25.742 101.354,25.73 C101.006,25.73 100.661,25.793 100.319,25.919 C99.977,26.045 99.656,26.216 99.356,26.432 C99.056,26.648 98.789,26.897 98.555,27.179 C98.321,27.461 98.144,27.764 98.024,28.088 L98.024,28.088 L97.988,28.088 C98,28.028 98.015,27.938 98.033,27.818 C98.051,27.698 98.06,27.572 98.06,27.44 L98.06,27.44 L98.06,26.396 C98.06,26.096 97.916,25.946 97.628,25.946 L97.628,25.946 L97.304,25.946 C97.004,25.946 96.854,26.096 96.854,26.396 L96.854,26.396 L96.854,34.55 C96.854,34.85 97.004,35 97.304,35 L97.304,35 L97.646,35 Z M117.048,35.216 C117.612,35.216 118.089,35.108 118.479,34.892 C118.869,34.676 119.184,34.439 119.424,34.181 C119.664,33.923 119.838,33.686 119.946,33.47 C120.054,33.254 120.108,33.146 120.108,33.146 L120.108,33.146 L120.144,33.146 C120.12,33.206 120.105,33.299 120.099,33.425 C120.093,33.551 120.09,33.686 120.09,33.83 L120.09,33.83 L120.09,34.55 C120.09,34.85 120.24,35 120.54,35 L120.54,35 L120.828,35 C121.116,35 121.26,34.85 121.26,34.55 L121.26,34.55 L121.26,29.204 C121.26,28.076 120.972,27.215 120.396,26.621 C119.82,26.027 118.986,25.73 117.894,25.73 C117.39,25.73 116.883,25.802 116.373,25.946 C115.863,26.09 115.41,26.282 115.014,26.522 C114.762,26.678 114.72,26.882 114.888,27.134 L114.888,27.134 L114.996,27.314 C115.14,27.554 115.344,27.602 115.608,27.458 C115.932,27.254 116.286,27.098 116.67,26.99 C117.054,26.882 117.432,26.828 117.804,26.828 C119.292,26.828 120.036,27.608 120.036,29.168 L120.036,29.168 L120.036,29.456 L119.514,29.456 C117.75,29.456 116.388,29.729 115.428,30.275 C114.468,30.821 113.988,31.586 113.988,32.57 C113.988,32.954 114.063,33.308 114.213,33.632 C114.363,33.956 114.573,34.235 114.843,34.469 C115.113,34.703 115.437,34.886 115.815,35.018 C116.193,35.15 116.604,35.216 117.048,35.216 Z M117.264,34.19 C116.676,34.19 116.193,34.028 115.815,33.704 C115.437,33.38 115.248,32.966 115.248,32.462 C115.248,31.778 115.608,31.259 116.328,30.905 C117.048,30.551 118.116,30.374 119.532,30.374 L119.532,30.374 L120.036,30.374 L120.036,30.806 C120.036,31.274 119.961,31.715 119.811,32.129 C119.661,32.543 119.46,32.903 119.208,33.209 C118.956,33.515 118.662,33.755 118.326,33.929 C117.99,34.103 117.636,34.19 117.264,34.19 Z M128.08,35.216 C128.524,35.216 128.935,35.153 129.313,35.027 C129.691,34.901 130.015,34.727 130.285,34.505 C130.555,34.283 130.765,34.016 130.915,33.704 C131.065,33.392 131.14,33.044 131.14,32.66 C131.14,32.156 131.02,31.745 130.78,31.427 C130.54,31.109 130.243,30.842 129.889,30.626 C129.535,30.41 129.148,30.23 128.728,30.086 C128.308,29.942 127.921,29.789 127.567,29.627 C127.213,29.465 126.916,29.276 126.676,29.06 C126.436,28.844 126.316,28.562 126.316,28.214 C126.316,27.782 126.472,27.44 126.784,27.188 C127.096,26.936 127.534,26.81 128.098,26.81 C128.446,26.81 128.788,26.861 129.124,26.963 C129.46,27.065 129.766,27.206 130.042,27.386 C130.306,27.554 130.51,27.512 130.654,27.26 L130.654,27.26 L130.78,27.062 C130.924,26.822 130.882,26.624 130.654,26.468 C130.318,26.24 129.934,26.06 129.502,25.928 C129.07,25.796 128.626,25.73 128.17,25.73 C127.702,25.73 127.279,25.79 126.901,25.91 C126.523,26.03 126.199,26.204 125.929,26.432 C125.659,26.66 125.452,26.93 125.308,27.242 C125.164,27.554 125.092,27.896 125.092,28.268 C125.092,28.772 125.212,29.18 125.452,29.492 C125.692,29.804 125.992,30.068 126.352,30.284 C126.712,30.5 127.099,30.683 127.513,30.833 C127.927,30.983 128.314,31.139 128.674,31.301 C129.034,31.463 129.334,31.649 129.574,31.859 C129.814,32.069 129.934,32.342 129.934,32.678 C129.934,33.122 129.766,33.476 129.43,33.74 C129.094,34.004 128.65,34.136 128.098,34.136 C127.678,34.136 127.258,34.064 126.838,33.92 C126.418,33.776 126.04,33.572 125.704,33.308 C125.44,33.152 125.236,33.176 125.092,33.38 L125.092,33.38 L124.948,33.56 C124.768,33.812 124.792,34.016 125.02,34.172 C125.404,34.496 125.866,34.751 126.406,34.937 C126.946,35.123 127.504,35.216 128.08,35.216 Z M138.41,35.072 C138.746,35.072 138.914,34.928 138.914,34.64 L138.914,34.64 L138.914,34.406 C138.914,34.262 138.878,34.157 138.806,34.091 C138.734,34.025 138.608,33.98 138.428,33.956 C137.792,33.932 137.303,33.713 136.961,33.299 C136.619,32.885 136.448,32.312 136.448,31.58 L136.448,31.58 L136.448,27.044 L138.284,27.044 C138.584,27.044 138.734,26.9 138.734,26.612 L138.734,26.612 L138.734,26.468 C138.734,26.168 138.584,26.018 138.284,26.018 L138.284,26.018 L136.448,26.018 L136.448,23.894 C136.448,23.594 136.304,23.444 136.016,23.444 L136.016,23.444 L135.692,23.444 C135.392,23.444 135.242,23.594 135.242,23.894 L135.242,23.894 L135.242,26.018 L134.468,26.018 C134.18,26.018 134.036,26.168 134.036,26.468 L134.036,26.468 L134.036,26.612 C134.036,26.9 134.18,27.044 134.468,27.044 L134.468,27.044 L135.224,27.044 L135.224,31.742 C135.224,32.798 135.5,33.617 136.052,34.199 C136.604,34.781 137.39,35.072 138.41,35.072 Z M144.51,35.216 C145.074,35.216 145.551,35.108 145.941,34.892 C146.331,34.676 146.646,34.439 146.886,34.181 C147.126,33.923 147.3,33.686 147.408,33.47 C147.516,33.254 147.57,33.146 147.57,33.146 L147.57,33.146 L147.606,33.146 C147.582,33.206 147.567,33.299 147.561,33.425 C147.555,33.551 147.552,33.686 147.552,33.83 L147.552,33.83 L147.552,34.55 C147.552,34.85 147.702,35 148.002,35 L148.002,35 L148.29,35 C148.578,35 148.722,34.85 148.722,34.55 L148.722,34.55 L148.722,29.204 C148.722,28.076 148.434,27.215 147.858,26.621 C147.282,26.027 146.448,25.73 145.356,25.73 C144.852,25.73 144.345,25.802 143.835,25.946 C143.325,26.09 142.872,26.282 142.476,26.522 C142.224,26.678 142.182,26.882 142.35,27.134 L142.35,27.134 L142.458,27.314 C142.602,27.554 142.806,27.602 143.07,27.458 C143.394,27.254 143.748,27.098 144.132,26.99 C144.516,26.882 144.894,26.828 145.266,26.828 C146.754,26.828 147.498,27.608 147.498,29.168 L147.498,29.168 L147.498,29.456 L146.976,29.456 C145.212,29.456 143.85,29.729 142.89,30.275 C141.93,30.821 141.45,31.586 141.45,32.57 C141.45,32.954 141.525,33.308 141.675,33.632 C141.825,33.956 142.035,34.235 142.305,34.469 C142.575,34.703 142.899,34.886 143.277,35.018 C143.655,35.15 144.066,35.216 144.51,35.216 Z M144.726,34.19 C144.138,34.19 143.655,34.028 143.277,33.704 C142.899,33.38 142.71,32.966 142.71,32.462 C142.71,31.778 143.07,31.259 143.79,30.905 C144.51,30.551 145.578,30.374 146.994,30.374 L146.994,30.374 L147.498,30.374 L147.498,30.806 C147.498,31.274 147.423,31.715 147.273,32.129 C147.123,32.543 146.922,32.903 146.67,33.209 C146.418,33.515 146.124,33.755 145.788,33.929 C145.452,34.103 145.098,34.19 144.726,34.19 Z M153.76,35 C154.048,35 154.192,34.85 154.192,34.55 L154.192,34.55 L154.192,30.572 C154.192,30.056 154.279,29.573 154.453,29.123 C154.627,28.673 154.867,28.283 155.173,27.953 C155.479,27.623 155.842,27.362 156.262,27.17 C156.682,26.978 157.138,26.882 157.63,26.882 C158.326,26.882 158.83,27.092 159.142,27.512 C159.454,27.932 159.61,28.616 159.61,29.564 L159.61,29.564 L159.61,34.55 C159.61,34.85 159.754,35 160.042,35 L160.042,35 L160.384,35 C160.684,35 160.834,34.85 160.834,34.55 L160.834,34.55 L160.834,29.24 C160.834,28.028 160.591,27.14 160.105,26.576 C159.619,26.012 158.848,25.73 157.792,25.73 C157.408,25.73 157.027,25.79 156.649,25.91 C156.271,26.03 155.917,26.195 155.587,26.405 C155.257,26.615 154.966,26.864 154.714,27.152 C154.462,27.44 154.27,27.752 154.138,28.088 L154.138,28.088 L154.102,28.088 C154.114,28.028 154.129,27.938 154.147,27.818 C154.165,27.698 154.174,27.572 154.174,27.44 L154.174,27.44 L154.174,26.396 C154.174,26.096 154.03,25.946 153.742,25.946 L153.742,25.946 L153.418,25.946 C153.118,25.946 152.968,26.096 152.968,26.396 L152.968,26.396 L152.968,34.55 C152.968,34.85 153.118,35 153.418,35 L153.418,35 L153.76,35 Z" id="PiyapodokDhammastan" stroke-width="0.3" fill="#555555" fill-rule="nonzero"></path>
                </g>
            </g>
        </g>
    </g>
</svg>