<?xml version="1.0" encoding="UTF-8"?>
<svg width="131px" height="38px" viewBox="0 0 131 38" version="1.1" xmlns="http://www.w3.org/2000/svg" xmlns:xlink="http://www.w3.org/1999/xlink">
    <!-- Generator: Sketch 63.1 (92452) - https://sketch.com -->
    <title>logo.th</title>
    <desc>Created with Sketch.</desc>
    <g id="Page-1" stroke="none" stroke-width="1" fill="none" fill-rule="evenodd">
        <g id="Home-Page---Thai" transform="translate(-230.000000, -71.000000)" stroke="#555555">
            <g id="Header" transform="translate(230.000000, 71.000000)">
                <g id="logo.th">
                    <g id="iconfinder_budha1_264744" transform="translate(0.000000, 1.000000)" stroke-linecap="round" stroke-linejoin="round" stroke-width="1.2">
                        <path d="M4.80525,0.506602274 C2.4315,1.60310227 0.35625,5.15285227 2.1495,7.56710227 C3.36075,9.19910227 5.61975,9.82610227 5.97075,10.2873523 C5.4855,12.5426023 6.252,19.7591023 7.33125,21.6873523 C8.217,23.2706023 9.7605,23.5166023 11.1525,24.0843523 C11.56875,26.0066023 11.6715,26.6583523 10.764,28.3586023 C10.46325,28.9241023 10.32225,30.1923523 11.3475,29.3958523 C11.57175,29.7303523 11.34075,30.8276023 11.412,31.3383523 C11.44875,31.6061023 14.055,34.8101023 14.3265,35.0958523 C14.45775,35.0853523 14.922,35.3043523 15.0405,35.2083523" id="Path" transform="translate(8.256458, 17.869676) scale(-1, 1) rotate(-180.000000) translate(-8.256458, -17.869676) "></path>
                        <line x1="0.7245" y1="35.556" x2="8.892" y2="35.556" id="Path" transform="translate(4.808250, 35.556000) scale(-1, 1) rotate(-180.000000) translate(-4.808250, -35.556000) "></line>
                        <path d="M5.97075,28.10775 C7.04625,26.8605 7.6485,26.16375 9.08025,25.32225" id="Path" transform="translate(7.525500, 26.715000) scale(-1, 1) rotate(-180.000000) translate(-7.525500, -26.715000) "></path>
                        <path d="M11.541,12.303 C12.27975,10.5585 12.3285,10.81425 13.5495,9.77625" id="Path" transform="translate(12.545250, 11.039625) scale(-1, 1) rotate(-180.000000) translate(-12.545250, -11.039625) "></path>
                        <path d="M25.22625,0.453685878 C27.59925,1.55018588 29.6745,5.09993588 27.882,7.51418588 C26.67075,9.14618588 24.411,9.77318588 24.06,10.2344359 C24.546,12.4896859 23.77875,19.7061859 22.6995,21.6344359 C21.81375,23.2176859 20.27025,23.4636859 18.87825,24.0314359 C18.462,25.9536859 18.35925,26.6054359 19.26675,28.3056859 C19.56825,28.8711859 19.7085,30.1394359 18.68325,29.3429359 C18.45975,29.6774359 18.69075,30.7746859 18.6195,31.2854359 C18.582,31.5531859 15.9765,34.7571859 15.70425,35.0429359 C15.573,35.0324359 15.159,35.3084359 15.0405,35.2124359" id="Path" transform="translate(21.799574, 17.843218) scale(-1, 1) rotate(-180.000000) translate(-21.799574, -17.843218) "></path>
                        <line x1="29.30625" y1="35.556" x2="21.1395" y2="35.556" id="Path" transform="translate(25.222875, 35.556000) scale(-1, 1) rotate(-180.000000) translate(-25.222875, -35.556000) "></line>
                        <path d="M24.06,28.10775 C22.9845,26.8605 22.38225,26.16375 20.9505,25.32225" id="Path" transform="translate(22.505250, 26.715000) scale(-1, 1) rotate(-180.000000) translate(-22.505250, -26.715000) "></path>
                        <path d="M18.48975,12.303 C17.751,10.5585 17.70225,10.81425 16.48125,9.77625" id="Path" transform="translate(17.485500, 11.039625) scale(-1, 1) rotate(-180.000000) translate(-17.485500, -11.039625) "></path>
                    </g>
                    <path d="M47.619,17 C49.709,17 50.906,15.879 50.906,13.941 L50.906,3.453 L49.823,3.453 L49.823,13.922 C49.823,15.347 48.968,16.164 47.505,16.164 L44.313,16.164 L44.313,8.146 C44.313,7.12 43.572,6.474 42.527,6.474 C41.482,6.474 40.741,7.12 40.741,8.146 C40.741,9.172 41.482,9.818 42.527,9.818 C42.774,9.818 43.021,9.78 43.23,9.704 L43.23,16.164 L41.463,16.164 L41.463,17 L47.619,17 Z M42.489,9.191 C41.862,9.191 41.501,8.773 41.501,8.146 C41.501,7.519 41.862,7.101 42.489,7.101 C43.116,7.101 43.477,7.519 43.477,8.146 C43.477,8.773 43.116,9.191 42.489,9.191 Z M48.721,4.403 L48.721,4.061 C48.721,2.275 47.258,1.078 45.054,1.078 C42.85,1.078 41.387,2.275 41.387,4.061 L41.387,4.403 L48.721,4.403 Z M47.809,3.681 L42.318,3.681 C42.432,2.693 43.553,1.971 45.054,1.971 C46.574,1.971 47.695,2.693 47.809,3.681 Z M58.487,17.228 C61.014,17.228 62.534,16.126 62.534,14.017 L62.534,6.702 L61.451,6.702 L61.451,14.112 C61.451,15.537 60.52,16.392 58.905,16.392 L58.069,16.392 C56.454,16.392 55.58,15.613 55.58,14.283 C55.58,13.124 56.378,12.345 57.537,12.345 L58.297,12.345 L58.297,11.509 L57.157,11.509 C55.827,11.509 55.485,10.958 55.485,9.799 L55.485,9.362 C55.789,9.666 56.245,9.818 56.701,9.818 C57.727,9.818 58.468,9.172 58.468,8.146 C58.468,7.12 57.746,6.474 56.758,6.474 C55.466,6.474 54.497,7.405 54.497,9.02 L54.497,9.837 C54.497,11.053 55.01,11.927 56.112,12.231 L56.112,12.288 C55.162,12.611 54.497,13.314 54.497,14.435 C54.497,16.221 55.96,17.228 58.487,17.228 Z M56.72,9.191 C56.093,9.191 55.732,8.773 55.732,8.146 C55.732,7.519 56.093,7.101 56.72,7.101 C57.347,7.101 57.708,7.519 57.708,8.146 C57.708,8.773 57.347,9.191 56.72,9.191 Z M69.089,17.228 C70.134,17.228 70.875,16.582 70.875,15.556 C70.875,14.53 70.134,13.884 69.089,13.884 C68.823,13.884 68.595,13.922 68.386,13.998 L68.386,5.448 C68.386,5.011 68.196,4.821 67.816,4.669 L65.498,3.814 C65.536,2.142 66.733,1.325 68.158,1.325 C69.431,1.325 70.286,1.895 70.837,2.579 L71.521,1.933 C70.818,1.116 69.773,0.489 68.101,0.489 C66.049,0.489 64.491,1.895 64.491,4.061 L64.491,4.327 L67.303,5.41 L67.303,15.556 C67.303,16.582 68.044,17.228 69.089,17.228 Z M69.127,16.601 C68.5,16.601 68.139,16.183 68.139,15.556 C68.139,14.929 68.5,14.511 69.127,14.511 C69.754,14.511 70.115,14.929 70.115,15.556 C70.115,16.183 69.754,16.601 69.127,16.601 Z M79.235,17 C81.325,17 82.522,15.879 82.522,13.941 L82.522,3.453 L81.439,3.453 L81.439,13.922 C81.439,15.347 80.584,16.164 79.121,16.164 L75.929,16.164 L75.929,8.146 C75.929,7.12 75.188,6.474 74.143,6.474 C73.098,6.474 72.357,7.12 72.357,8.146 C72.357,9.172 73.098,9.818 74.143,9.818 C74.39,9.818 74.637,9.78 74.846,9.704 L74.846,16.164 L73.079,16.164 L73.079,17 L79.235,17 Z M74.105,9.191 C73.478,9.191 73.117,8.773 73.117,8.146 C73.117,7.519 73.478,7.101 74.105,7.101 C74.732,7.101 75.093,7.519 75.093,8.146 C75.093,8.773 74.732,9.191 74.105,9.191 Z M90.084,22.377 C91.072,22.377 91.414,21.883 92.193,20.8 L94.454,22.282 L95.005,22.282 C95.347,22.282 95.613,22.016 95.613,21.674 L95.613,10.502 C95.613,7.975 93.922,6.474 91.129,6.474 C88.488,6.474 86.645,8.032 86.436,10.179 L88.089,10.825 L88.089,13.998 C87.88,13.922 87.633,13.884 87.386,13.884 C86.341,13.884 85.6,14.53 85.6,15.556 C85.6,16.582 86.341,17.228 87.386,17.228 C88.431,17.228 89.172,16.582 89.172,15.556 L89.172,10.863 C89.172,10.388 88.944,10.217 88.602,10.084 L87.443,9.666 C87.804,8.26 89.21,7.31 91.091,7.31 C93.219,7.31 94.53,8.412 94.53,10.616 L94.53,19.204 L94.568,21.503 L94.492,21.503 L92.554,20.249 L93.295,19.204 L92.402,19.204 L91.965,19.85 C91.186,19.337 90.73,19.071 90.084,19.071 C89.134,19.071 88.45,19.698 88.45,20.724 C88.45,21.75 89.134,22.377 90.084,22.377 Z M87.348,16.601 C86.721,16.601 86.36,16.183 86.36,15.556 C86.36,14.929 86.721,14.511 87.348,14.511 C87.975,14.511 88.336,14.929 88.336,15.556 C88.336,16.183 87.975,16.601 87.348,16.601 Z M90.084,21.769 C89.647,21.769 89.248,21.484 89.248,20.99 L89.248,20.458 C89.248,19.964 89.647,19.679 90.084,19.679 C90.502,19.679 90.787,19.85 91.604,20.401 L91.585,20.439 C90.825,21.56 90.654,21.769 90.084,21.769 Z M101.617,17 L101.617,10.863 C101.617,10.445 101.446,10.236 101.066,10.084 L99.907,9.666 C100.268,8.26 101.693,7.31 103.631,7.31 C105.759,7.31 107.146,8.412 107.146,10.616 L107.146,17 L108.229,17 L108.229,10.483 C108.229,7.975 106.519,6.474 103.707,6.474 C100.971,6.474 99.109,8.032 98.9,10.179 L100.534,10.825 L100.534,17 L101.617,17 Z M45.928,36.228 C48.626,36.228 49.842,35.259 49.842,33.587 L49.842,32.124 C49.842,30.129 48.626,29.464 46.384,29.274 L42.698,28.97 L42.698,28.533 C42.698,27.051 44.009,26.31 46.042,26.31 C47.79,26.31 48.778,26.937 49.443,27.678 L50.184,27.013 C49.329,26.139 48.113,25.474 46.042,25.474 C43.306,25.474 41.596,26.652 41.596,28.685 L41.596,29.711 L46.251,30.091 C48.55,30.262 48.759,31.079 48.759,32.257 L48.759,33.72 C48.759,34.803 47.999,35.392 46.555,35.392 L45.301,35.392 C43.857,35.392 43.097,34.803 43.097,33.72 L43.097,31.345 L42.014,31.345 L42.014,33.587 C42.014,35.259 43.23,36.228 45.928,36.228 Z M57.822,36.228 C58.905,36.228 59.665,35.582 59.665,34.537 L59.665,31.554 C59.665,29.882 58.848,29.407 57.366,29.312 L53.338,29.027 L53.338,28.78 C53.338,27.089 54.668,26.31 56.568,26.31 C58.278,26.31 59.19,26.918 59.874,27.697 L60.501,27.013 C59.855,26.196 58.525,25.474 56.53,25.474 C53.965,25.474 52.274,26.69 52.274,28.989 L52.274,29.768 L57.157,30.148 C58.164,30.224 58.582,30.528 58.582,31.516 L58.582,32.998 C58.354,32.903 58.107,32.846 57.822,32.846 C56.739,32.846 55.979,33.492 55.979,34.537 C55.979,35.582 56.739,36.228 57.822,36.228 Z M57.784,35.62 C57.119,35.62 56.739,35.202 56.739,34.537 C56.739,33.872 57.119,33.454 57.784,33.454 C58.449,33.454 58.829,33.872 58.829,34.537 C58.829,35.202 58.449,35.62 57.784,35.62 Z M68.519,36.228 C69.602,36.228 70.362,35.582 70.362,34.537 L70.362,31.554 C70.362,29.882 69.545,29.407 68.063,29.312 L64.035,29.027 L64.035,28.78 C64.035,27.089 65.365,26.31 67.265,26.31 C68.975,26.31 69.887,26.918 70.571,27.697 L71.198,27.013 C70.552,26.196 69.222,25.474 67.227,25.474 C64.662,25.474 62.971,26.69 62.971,28.989 L62.971,29.768 L67.854,30.148 C68.861,30.224 69.279,30.528 69.279,31.516 L69.279,32.998 C69.051,32.903 68.804,32.846 68.519,32.846 C67.436,32.846 66.676,33.492 66.676,34.537 C66.676,35.582 67.436,36.228 68.519,36.228 Z M68.481,35.62 C67.816,35.62 67.436,35.202 67.436,34.537 C67.436,33.872 67.816,33.454 68.481,33.454 C69.146,33.454 69.526,33.872 69.526,34.537 C69.526,35.202 69.146,35.62 68.481,35.62 Z M75.606,36.228 C76.67,36.228 77.392,35.563 77.392,34.518 C77.392,34.385 77.373,34.252 77.354,34.138 L81.971,36 L82.959,36 L82.959,25.702 L81.876,25.702 L81.876,35.107 L81.8,35.107 L77.335,33.283 L77.335,27.146 C77.335,26.12 76.594,25.474 75.549,25.474 C74.504,25.474 73.763,26.12 73.763,27.146 C73.763,28.172 74.504,28.818 75.549,28.818 C75.796,28.818 76.043,28.78 76.252,28.704 L76.252,32.466 C76.252,32.637 76.252,32.789 76.29,32.922 C76.081,32.846 75.853,32.808 75.606,32.808 C74.542,32.808 73.82,33.473 73.82,34.518 C73.82,35.563 74.542,36.228 75.606,36.228 Z M75.511,28.191 C74.884,28.191 74.523,27.773 74.523,27.146 C74.523,26.519 74.884,26.101 75.511,26.101 C76.138,26.101 76.499,26.519 76.499,27.146 C76.499,27.773 76.138,28.191 75.511,28.191 Z M75.606,35.601 C74.941,35.601 74.58,35.202 74.58,34.67 L74.58,34.366 C74.58,33.834 74.941,33.435 75.606,33.435 C76.271,33.435 76.632,33.834 76.632,34.366 L76.632,34.67 C76.632,35.202 76.271,35.601 75.606,35.601 Z M89.077,36.228 C90.084,36.228 90.825,35.582 90.825,34.556 C90.825,33.53 90.084,32.884 89.077,32.884 C88.469,32.884 87.918,33.15 87.614,33.606 L87.614,33.15 C87.614,31.687 88.564,30.927 90.255,30.927 L93.447,30.927 L93.447,36 L94.53,36 L94.53,29.255 C94.53,28.305 94.302,27.507 93.846,26.899 C94.321,26.766 94.587,26.424 94.587,25.892 L94.587,24.22 L93.485,24.22 L93.485,26.481 C92.782,25.835 91.756,25.474 90.445,25.474 C88.165,25.474 86.854,26.443 86.189,27.811 L86.93,28.4 C87.595,27.051 88.716,26.31 90.407,26.31 C92.402,26.31 93.447,27.26 93.447,29.312 L93.447,30.091 L90.141,30.091 C87.861,30.091 86.664,31.288 86.664,33.226 C86.664,35.183 87.576,36.228 89.077,36.228 Z M89.058,35.601 C88.431,35.601 88.07,35.183 88.07,34.556 C88.07,33.929 88.431,33.511 89.058,33.511 C89.685,33.511 90.046,33.929 90.046,34.556 C90.046,35.183 89.685,35.601 89.058,35.601 Z M101.256,36.228 C102.301,36.228 103.042,35.582 103.042,34.556 C103.042,33.53 102.301,32.884 101.256,32.884 C100.99,32.884 100.762,32.922 100.553,32.998 L100.553,29.863 C100.553,29.445 100.363,29.236 99.983,29.084 L98.843,28.666 C99.204,27.26 100.667,26.31 102.624,26.31 C104.847,26.31 106.234,27.412 106.234,29.616 L106.234,36 L107.317,36 L107.317,29.483 C107.317,26.975 105.569,25.474 102.681,25.474 C99.945,25.474 98.026,27.032 97.817,29.16 L99.47,29.825 L99.47,34.556 C99.47,35.582 100.211,36.228 101.256,36.228 Z M101.294,35.601 C100.667,35.601 100.306,35.183 100.306,34.556 C100.306,33.929 100.667,33.511 101.294,33.511 C101.921,33.511 102.282,33.929 102.282,34.556 C102.282,35.183 101.921,35.601 101.294,35.601 Z M116.665,36 L116.665,28.742 C116.665,26.671 115.449,25.474 113.188,25.474 C111.25,25.474 110.148,26.291 109.578,27.431 L110.281,28.001 C110.813,26.918 111.706,26.31 113.055,26.31 C114.727,26.31 115.582,27.146 115.582,28.837 L115.582,36 L116.665,36 Z M128.521,36.228 C129.585,36.228 130.307,35.563 130.307,34.518 C130.307,33.549 129.68,32.903 128.749,32.827 C128.882,32.58 128.901,32.314 128.901,32.067 L128.901,25.702 L127.818,25.702 L127.818,32.922 L122.935,35.107 L122.878,35.107 L122.878,27.146 C122.878,26.12 122.137,25.474 121.092,25.474 C120.047,25.474 119.306,26.12 119.306,27.146 C119.306,28.172 120.047,28.818 121.092,28.818 C121.339,28.818 121.586,28.78 121.795,28.704 L121.795,36 L122.802,36 L126.773,34.214 C126.754,34.309 126.735,34.423 126.735,34.518 C126.735,35.563 127.457,36.228 128.521,36.228 Z M121.054,28.191 C120.427,28.191 120.066,27.773 120.066,27.146 C120.066,26.519 120.427,26.101 121.054,26.101 C121.681,26.101 122.042,26.519 122.042,27.146 C122.042,27.773 121.681,28.191 121.054,28.191 Z M128.521,35.601 C127.856,35.601 127.495,35.202 127.495,34.67 L127.495,34.366 C127.495,33.834 127.856,33.435 128.521,33.435 C129.186,33.435 129.547,33.834 129.547,34.366 L129.547,34.67 C129.547,35.202 129.186,35.601 128.521,35.601 Z" id="ปิยโปฎกธรรมสถาน" stroke-width="0.35" fill="#555555" fill-rule="nonzero"></path>
                </g>
            </g>
        </g>
    </g>
</svg>