<?xml version="1.0" encoding="UTF-8"?>
<svg width="21px" height="19px" viewBox="0 0 21 19" version="1.1" xmlns="http://www.w3.org/2000/svg" xmlns:xlink="http://www.w3.org/1999/xlink">
    <!-- Generator: Sketch 63.1 (92452) - https://sketch.com -->
    <title>message-icon</title>
    <desc>Created with Sketch.</desc>
    <g id="Page-1" stroke="none" stroke-width="1" fill="none" fill-rule="evenodd">
        <g id="Home-Page---Narrow" transform="translate(-261.000000, -81.000000)" stroke="#000000" stroke-width="0.9">
            <g id="Header" transform="translate(20.000000, 79.000000)">
                <g id="Convenience-CTAs" transform="translate(220.000000, 1.000000)">
                    <g id="Contact-Us" transform="translate(0.000000, 2.000000)">
                        <g id="message-icon" transform="translate(22.000000, 0.000000)">
                            <path d="M9.10384269,0 C8.01178589,0 7.125,0.967388393 7.125,2.15912946 L7.125,6.47738839 C7.125,7.66870536 8.01178589,8.63651786 9.10384269,8.63651786 L14.2993739,8.63651786 L16.5258635,11.875 L16.5258635,8.63651786 L17.0207685,8.63651786 C18.1132141,8.63651786 19,7.66870536 19,6.47738839 L19,2.15912946 C19,0.967388393 18.1132141,0 17.0207685,0 L9.10384269,0 L9.10384269,0 Z" id="Path"></path>
                            <path d="M13.0625,10.268463 L13.0625,11.8749238 C13.0625,13.1859098 12.0870386,14.2500381 10.8852886,14.2500381 L5.17044485,14.2500381 L2.7212261,17.8125 L2.7212261,14.2500381 L2.1772114,14.2500381 C0.975461397,14.2500381 0,13.1859098 0,11.8749238 L0,7.1251143 C0,5.81454744 0.975461397,4.75 2.1772114,4.75 L4.61029412,4.75" id="Path"></path>
                        </g>
                    </g>
                </g>
            </g>
        </g>
    </g>
</svg>