<?xml version="1.0" encoding="UTF-8"?>
<svg width="20px" height="18px" viewBox="0 0 20 18" version="1.1" xmlns="http://www.w3.org/2000/svg" xmlns:xlink="http://www.w3.org/1999/xlink">
    <!-- Generator: Sketch 63.1 (92452) - https://sketch.com -->
    <title>checkbox-actioned</title>
    <desc>Created with Sketch.</desc>
    <defs>
        <path d="M277.453641,149.5 L277.453641,153.952381 C277.451116,156.186737 275.698655,157.99739 273.536108,158 L264.917534,158 C262.754987,157.99739 261.002526,156.186737 261,153.952381 L261,145.047619 C261.002526,142.813263 262.754987,141.00261 264.917534,141 L274.502093,141 C274.934812,141 275.2856,141.362436 275.2856,141.809524 C275.2856,142.256611 274.934812,142.619048 274.502093,142.619048 L264.917534,142.619048 C263.619968,142.62052 262.568438,143.706966 262.567013,145.047619 L262.567013,153.952381 C262.568438,155.293034 263.619968,156.37948 264.917534,156.380952 L273.536108,156.380952 C274.833673,156.37948 275.885203,155.293034 275.886628,153.952381 L275.886628,149.5 C275.886628,149.052912 276.237416,148.690476 276.670135,148.690476 C277.102853,148.690476 277.453641,149.052912 277.453641,149.5 Z M279.781596,141.856152 C279.637809,141.70114 279.440258,141.611574 279.232493,141.607201 C279.024729,141.602827 278.82381,141.684005 278.674031,141.832838 L269.597929,150.834743 L267.357099,146.865769 C267.138058,146.481862 266.659892,146.353073 266.28733,146.577638 C265.914768,146.802203 265.787942,147.295655 266.003591,147.681607 L268.745865,152.53875 C268.866933,152.753076 269.076457,152.898187 269.314338,152.932462 C269.350191,152.937896 269.386382,152.940558 269.422619,152.940558 C269.62488,152.940558 269.819291,152.859672 269.965119,152.714862 L279.758953,143.000576 C279.908933,142.851973 279.995589,142.647867 279.999836,142.433213 C280.004083,142.218559 279.925573,142.010965 279.781596,141.856152 Z" id="path-1"></path>
        <filter x="-2.6%" y="-2.9%" width="110.5%" height="111.8%" filterUnits="objectBoundingBox" id="filter-2">
            <feOffset dx="1" dy="1" in="SourceAlpha" result="shadowOffsetOuter1"></feOffset>
            <feColorMatrix values="0 0 0 0 1   0 0 0 0 1   0 0 0 0 1  0 0 0 0.7 0" type="matrix" in="shadowOffsetOuter1"></feColorMatrix>
        </filter>
    </defs>
    <g id="Page-1" stroke="none" stroke-width="1" fill="none" fill-rule="evenodd">
        <g id="Section-2" transform="translate(-261.000000, -141.000000)">
            <g id="checkbox-actioned">
                <use fill="black" fill-opacity="1" filter="url(#filter-2)" xlink:href="#path-1"></use>
                <use fill="#D8D8D8" fill-rule="evenodd" xlink:href="#path-1"></use>
            </g>
        </g>
    </g>
</svg>