<?xml version="1.0" encoding="UTF-8"?>
<svg width="66px" height="380px" viewBox="0 0 66 380" version="1.1" xmlns="http://www.w3.org/2000/svg" xmlns:xlink="http://www.w3.org/1999/xlink">
    <!-- Generator: Sketch 63.1 (92452) - https://sketch.com -->
    <title>plant</title>
    <desc>Created with Sketch.</desc>
    <g id="Page-1" stroke="none" stroke-width="1" fill="none" fill-rule="evenodd">
        <g id="Home-Page---Narrow" transform="translate(-262.000000, -3707.000000)" fill="#616161">
            <g id="Footer" transform="translate(0.000000, 3551.000000)">
                <path d="M271.9781,305.220179 C271.3896,304.757809 270.855,304.31411 270.3798,303.905555 C268.4702,303.618908 267.2481,303.607925 267.302,303.602434 C267.6848,303.569486 268.644,303.52885 270.0333,303.605728 C268.8244,302.548098 268.0357,301.744168 267.7178,301.393821 C267.6782,301.347694 268.5747,302.184572 270.1488,303.371798 C269.5713,302.018734 269.2336,301.050064 269.1137,300.648098 C269.0961,300.59648 269.579,301.824341 270.5382,303.660642 C271.0101,304.010988 271.5392,304.384399 272.1112,304.772087 C271.4688,302.642549 271.1366,301.137925 271.0299,300.530584 C271.0123,300.449312 271.4963,302.286711 272.5578,305.070815 C273.0363,305.387116 273.5445,305.707809 274.078,306.031798 C273.3949,303.590353 273.055,301.868272 272.9505,301.186249 C272.9362,301.097289 273.429,303.175208 274.5565,306.314052 C275.0031,306.576538 275.4684,306.839023 275.9469,307.096017 C275.3584,304.510699 275.09,302.696364 275.013,301.973705 C275.002,301.879254 275.4079,304.037347 276.4056,307.337636 C276.9457,307.617694 277.5012,307.888965 278.0732,308.150353 C277.6541,305.683647 277.5012,303.962665 277.4704,303.294919 C277.466,303.208156 277.7234,305.230064 278.4714,308.331566 C278.9554,308.54463 279.4515,308.752202 279.9564,308.946595 C279.6429,307.045497 279.5274,305.71989 279.5032,305.187231 C279.4999,305.11804 279.6946,306.661104 280.2589,309.063012 C280.5702,309.178329 280.8958,309.270584 281.2137,309.378214 C281.2269,309.490237 281.2379,309.601162 281.25,309.710988 C280.9255,309.653879 280.5625,309.582491 280.1654,309.489139 C278.104,310.583012 276.8874,311.461624 276.9369,311.41989 C277.3032,311.094803 278.2569,310.335902 279.7199,309.379312 C279.1842,309.239832 278.6012,309.068503 277.9973,308.84885 C275.5707,309.805439 274.1198,310.607173 274.1814,310.568734 C274.639,310.251335 275.7841,309.538561 277.5144,308.666538 C277.0546,308.484225 276.5838,308.279948 276.1185,308.041624 C273.1232,308.780757 271.2961,309.516595 271.3698,309.474861 C271.9385,309.178329 273.3927,308.508387 275.574,307.750584 C275.1791,307.532029 274.7908,307.29041 274.408,307.02463 C274.3035,306.949948 274.2012,306.877462 274.1,306.807173 C271.2499,307.259659 269.4921,307.798908 269.5647,307.76596 C270.1169,307.535324 271.5381,307.019139 273.649,306.483185 C273.2156,306.167983 272.8031,305.85937 272.4137,305.559543 C269.8474,305.550757 268.2293,305.779197 268.2964,305.760526 C268.8013,305.636422 270.0894,305.391509 271.9781,305.220179 M278.9675,341.244399 C278.8685,341.269659 279.3107,341.106017 279.3107,341.106017 C280.0411,340.881971 280.7583,340.628272 281.4568,340.354803 C281.9826,337.946306 282.152,336.399948 282.1509,336.466942 C282.1355,337.000699 282.0409,338.329601 281.7604,340.235092 C282.2609,340.030815 282.7526,339.817751 283.2311,339.595902 C283.9296,336.483416 284.1529,334.458214 284.1496,334.544977 C284.1309,335.211624 284.0077,336.934803 283.6293,339.409197 C284.1958,339.137925 284.7469,338.856769 285.2804,338.570121 C286.2264,335.25226 286.5971,333.089775 286.5883,333.184225 C286.5223,333.905786 286.2814,335.726711 285.738,338.318618 C286.211,338.053936 286.6719,337.783763 287.1152,337.515786 C288.191,334.360468 288.6508,332.273763 288.6387,332.362723 C288.5441,333.043647 288.2306,334.772318 287.5893,337.224746 C288.1173,336.891971 288.62,336.564688 289.093,336.241798 C290.1094,333.439023 290.5626,331.596133 290.5483,331.675208 C290.4493,332.285844 290.1424,333.79596 289.5363,335.934283 C290.1017,335.536711 290.6231,335.154514 291.0895,334.79648 C292.019,332.945902 292.481,331.709254 292.4645,331.763069 C292.3512,332.167231 292.03,333.140295 291.4745,334.501046 C293.0288,333.289659 293.9121,332.438503 293.8725,332.48463 C293.5601,332.83937 292.7857,333.657578 291.5933,334.736075 C292.9826,334.635035 293.9407,334.659197 294.3235,334.686653 C294.3774,334.689948 293.1575,334.723994 291.2512,335.040295 C290.7826,335.457636 290.2557,335.906827 289.6749,336.382376 C291.5658,336.519659 292.8572,336.744803 293.3632,336.86122 C293.4314,336.876595 291.8122,336.676711 289.2459,336.726133 C288.8598,337.032549 288.4539,337.345555 288.0249,337.668445 C290.1446,338.170353 291.5735,338.664572 292.129,338.886422 C292.2027,338.918272 290.4361,338.407578 287.5805,338.00122 C287.4804,338.072607 287.3781,338.148387 287.2736,338.220873 C286.8974,338.494341 286.5124,338.743647 286.1219,338.968792 C288.3142,339.690353 289.7805,340.337231 290.3514,340.626075 C290.4273,340.663416 288.5881,339.959428 285.5818,339.26752 C285.1209,339.513532 284.6523,339.725497 284.1936,339.915497 C285.9393,340.756769 287.0976,341.454168 287.5585,341.761682 C287.6201,341.80122 286.1593,341.024746 283.7151,340.106595 C283.1145,340.336133 282.5359,340.516249 282.0002,340.663416 C283.4786,341.59804 284.4466,342.341566 284.8184,342.658965 C284.8679,342.700699 283.637,341.841855 281.5569,340.782029 C280.0356,341.163127 278.9675,341.244399 278.9675,341.244399 M292.2269,379.047809 C292.2269,379.047809 291.1577,378.985208 289.6309,378.627173 C287.5684,379.721046 286.3496,380.599659 286.4002,380.559023 C286.7665,380.235035 287.7224,379.475035 289.1843,378.517347 C288.6464,378.377867 288.0656,378.207636 287.4606,377.986884 C285.0329,378.944572 283.5842,379.746306 283.6425,379.705671 C284.1012,379.38937 285.2474,378.674399 286.9788,377.806769 C286.519,377.62226 286.0471,377.417983 285.5807,377.179659 C282.5865,377.91989 280.7583,378.653532 280.8353,378.613994 C281.4007,378.317462 282.8571,377.64752 285.0373,376.891913 C284.6435,376.67226 284.253,376.428445 283.8713,376.162665 C283.7668,376.086884 283.6645,376.016595 283.5633,375.94411 C280.7121,376.397694 278.9565,376.936942 279.028,376.905092 C279.5813,376.674457 281.0025,376.156075 283.1112,375.622318 C282.6789,375.304919 282.2675,374.996306 281.877,374.694283 C279.3107,374.690988 277.6915,374.918329 277.7608,374.899659 C278.2646,374.773358 279.5538,374.527347 281.4425,374.359312 C280.854,373.895844 280.3194,373.452145 279.8442,373.046884 C277.9346,372.759139 276.7125,372.744861 276.7653,372.740468 C277.1481,372.705324 278.1062,372.667983 279.4977,372.744861 C278.2877,371.687231 277.5012,370.882202 277.1811,370.529659 C277.1404,370.486827 278.0391,371.323705 279.611,372.508734 C279.0335,371.157867 278.698,370.188098 278.5781,369.788329 C278.5594,369.732318 279.0423,370.963474 280.0015,372.797578 C280.4756,373.150121 281.0025,373.523532 281.5734,373.910121 C280.9332,371.780584 280.601,370.277058 280.491,369.669717 C280.4789,369.588445 280.9585,371.425844 282.0211,374.207751 C282.4985,374.526249 283.0067,374.846942 283.5424,375.170931 C282.8582,372.727289 282.5194,371.005208 282.4127,370.324283 C282.3995,370.236422 282.8934,372.312145 284.0187,375.454283 C284.4675,375.715671 284.9328,375.97596 285.4124,376.23515 C284.8239,373.650931 284.5544,371.834399 284.4752,371.113936 C284.4664,371.018387 284.8712,373.174283 285.8711,376.475671 C286.409,376.755728 286.9645,377.028098 287.5365,377.289486 C287.1185,374.824977 286.9667,373.101798 286.9359,372.434052 C286.9315,372.348387 287.1867,374.369197 287.9358,377.469601 C288.4176,377.683763 288.9148,377.889139 289.4186,378.08463 C289.1062,376.183532 288.9918,374.859023 288.9665,374.324168 C288.9621,374.256075 289.159,375.800237 289.7233,378.201046 C290.4262,378.462434 291.1478,378.701855 291.8826,378.917116 C291.8826,378.917116 292.327,379.071971 292.2269,379.047809 M287.7598,412.006769 C287.3418,409.541162 287.19,407.819081 287.1592,407.150237 C287.1559,407.062376 287.4111,409.084283 288.1591,412.185786 C288.5331,412.350526 288.9192,412.507578 289.3064,412.662434 C289.4032,412.94359 289.5022,413.213763 289.6034,413.479543 C287.7004,414.50752 286.5773,415.313647 286.6224,415.27411 C286.9898,414.950121 287.9457,414.19122 289.4076,413.235728 C288.8708,413.09515 288.2889,412.921624 287.6839,412.704168 C285.2562,413.661855 283.8075,414.462491 283.8691,414.424052 C284.3256,414.106653 285.4718,413.39278 287.2032,412.524052 C286.7412,412.338445 286.2715,412.135266 285.8051,411.896942 C282.8109,412.636075 280.9838,413.371913 281.0586,413.331277 C281.6251,413.035844 283.0804,412.363705 285.2606,411.607 C284.8668,411.387347 284.4763,411.143532 284.0957,410.877751 C283.9912,410.807462 283.8889,410.73278 283.7877,410.662491 C280.9387,411.113879 279.1809,411.653127 279.2502,411.621277 C279.8046,411.390642 281.2247,410.873358 283.3356,410.337405 C282.9022,410.023301 282.4908,409.714688 282.1014,409.413763 C279.5351,409.404977 277.917,409.633416 277.9841,409.615844 C278.489,409.49174 279.7771,409.246827 281.6669,409.074399 C281.0773,408.612029 280.5427,408.170526 280.0675,407.760873 C278.1579,407.473127 276.9369,407.463243 276.9886,407.456653 C277.3736,407.423705 278.3306,407.383069 279.721,407.463243 C278.5121,406.404514 277.7234,405.600584 277.4066,405.249139 C277.3637,405.201913 278.2635,406.03989 279.8365,407.227116 C279.2579,405.874052 278.9213,404.905382 278.8014,404.502318 C278.7838,404.450699 279.2667,405.681855 280.2259,407.514861 C280.6989,407.866306 281.2258,408.239717 281.7989,408.626306 C281.1565,406.497867 280.8243,404.993243 280.7154,404.388098 C280.7022,404.30463 281.1829,406.144225 282.2466,408.928329 C282.724,409.242434 283.23,409.563127 283.7657,409.887116 C283.0826,407.444572 282.7427,405.722491 282.636,405.040468 C282.6228,404.953705 283.1178,407.031624 284.242,410.170468 C284.6919,410.431855 285.1572,410.693243 285.6346,410.950237 C285.0461,408.368214 284.7777,406.551682 284.6996,405.827925 C284.6908,405.736769 285.0945,407.891566 286.0944,411.191855 C286.6334,411.471913 287.19,411.743185 287.7598,412.006769 M292.4018,415.426769 C293.5568,416.108792 295.1727,416.726017 297.1175,416.555786 C301.149,416.201046 304.7306,412.916133 306.7337,408.182607 C307.2023,407.076653 307.584,406.194746 307.9206,405.458908 C308.9007,406.796595 310.1239,407.842145 311.5594,408.489023 C313.4063,409.319312 315.2015,409.234746 316.5336,408.943705 C314.9155,414.100064 312.4944,416.910526 309.9567,419.85278 C307.3706,422.851046 304.7141,425.943763 302.975,431.593243 C301.358,427.208965 299.1151,424.489659 296.9217,421.84174 C295.297,419.87804 293.7218,417.96596 292.4018,415.426769 M304.2114,435.881971 C304.2092,435.863301 304.2048,435.84463 304.1993,435.827058 C304.3049,435.827058 304.4193,435.82596 304.4193,435.82596 C305.1838,435.867694 305.945,435.87648 306.6963,435.858908 C308.0196,433.77989 308.7115,432.383994 308.6873,432.448792 C308.4871,432.943012 307.9415,434.157694 307.0186,435.85122 C307.5609,435.832549 308.0966,435.798503 308.6224,435.756769 C310.3516,433.073705 311.2591,431.250584 311.2283,431.328561 C310.9786,431.950179 310.268,433.527289 309.0591,435.717231 C309.685,435.659023 310.2999,435.584341 310.9005,435.497578 C312.9322,432.706884 314.0256,430.806884 313.9849,430.890353 C313.6736,431.547116 312.8211,433.171451 311.4153,435.420699 C311.9521,435.333936 312.4757,435.239486 312.9861,435.140642 C315.0838,432.547636 316.2344,430.745382 316.1926,430.824457 C315.8681,431.432896 314.9804,432.947405 313.5295,435.029717 C314.1411,434.900121 314.7263,434.76174 315.2829,434.621162 C317.2024,432.34226 318.2628,430.76515 318.2221,430.835439 C317.9196,431.372491 317.11,432.686017 315.8043,434.487173 C316.472,434.307058 317.0935,434.126942 317.6534,433.952318 C319.1648,432.533358 320.0261,431.532838 319.9909,431.576769 C319.7456,431.916133 319.1098,432.721162 318.1176,433.808445 C319.9942,433.202202 321.1184,432.706884 321.0656,432.736538 C320.6487,432.963879 319.6389,433.464688 318.1495,434.067636 C319.486,434.452029 320.3792,434.801277 320.7301,434.960526 C320.7774,434.981393 319.6213,434.594803 317.7216,434.237867 C317.1386,434.466306 316.4896,434.707925 315.7801,434.953936 C317.5082,435.733705 318.6434,436.390468 319.0779,436.672723 C319.1362,436.711162 317.6853,435.964341 315.2598,435.127462 C314.7912,435.285613 314.3006,435.440468 313.788,435.595324 C315.6041,436.79463 316.7756,437.750121 317.2211,438.147694 C317.2794,438.202607 315.7966,437.115324 313.2534,435.753474 C313.1357,435.785324 313.0147,435.821566 312.8915,435.855613 C312.4438,435.983012 311.9961,436.08515 311.5517,436.162029 C313.3623,437.593069 314.5151,438.703416 314.9518,439.172376 C315.0101,439.233879 313.5273,437.940121 310.9434,436.25648 C310.4231,436.328965 309.9116,436.368503 309.4144,436.390468 C310.7641,437.778676 311.6111,438.830815 311.9389,439.277809 C311.9818,439.337116 310.8774,438.102665 308.8996,436.401451 C308.2572,436.412434 307.6522,436.381682 307.0989,436.337751 C308.1637,437.720468 308.8149,438.753936 309.0569,439.180064 C309.0888,439.233879 308.2286,438.003821 306.6424,436.293821 C305.4368,436.16752 304.5546,435.967636 304.2114,435.881971 M316.9857,402.168503 C317.0077,402.104803 316.6579,403.619312 316.3609,406.067347 C316.6117,406.282607 316.8845,406.481393 317.1474,406.69226 C317.1199,406.802087 317.0935,406.910815 317.066,407.017347 C316.7811,406.852607 316.4654,406.66041 316.1266,406.437462 C313.8133,406.754861 312.3679,407.16122 312.4262,407.140353 C312.8827,406.962434 314.0399,406.575844 315.7449,406.181566 C315.2884,405.865266 314.8022,405.505035 314.3094,405.08989 C311.7002,405.15359 310.0645,405.410584 310.1349,405.393012 C310.6728,405.252434 311.995,404.974572 313.92,404.756017 C313.5493,404.425439 313.1786,404.071798 312.8233,403.685208 C311.148,403.505092 309.8192,403.440295 308.9546,403.418329 C308.981,403.375497 309.003,403.338156 309.0305,403.296422 C309.8533,403.244803 310.9973,403.204168 312.4108,403.227231 C312.1182,402.885671 311.8355,402.523243 311.5682,402.142145 C311.4956,402.038908 311.4241,401.934572 311.3559,401.833532 C310.9687,401.756653 310.6079,401.691855 310.2614,401.632549 C310.3494,401.532607 310.4418,401.431566 310.5364,401.326133 C310.7036,401.341509 310.8675,401.355786 311.0424,401.373358 C310.9621,401.252549 310.8928,401.143821 310.8169,401.025208 C310.8917,400.943936 310.9676,400.864861 311.0512,400.778098 C311.1227,400.703416 311.1645,400.653994 311.2151,400.596884 C311.3471,400.764919 311.4637,400.928561 311.6023,401.098792 C311.8025,398.57278 312.0764,396.83752 312.2128,396.160988 C312.2304,396.075324 311.9763,398.19278 311.9532,401.529312 C312.2821,401.927983 312.6297,402.333243 312.9883,402.740699 C313.3293,400.110353 313.7022,398.314688 313.8782,397.609601 C313.9013,397.516249 313.5361,399.682029 313.3381,403.125092 C313.7484,403.573185 314.1763,404.017983 314.6218,404.459486 C315.0794,402.001566 315.5304,400.334399 315.7306,399.696306 C315.7581,399.612838 315.3005,401.600699 314.9342,404.767 C315.3137,405.136017 315.7097,405.499543 316.1134,405.854283 C316.4764,403.960873 316.8251,402.675902 316.9857,402.168503 M310.6365,394.887 C310.6486,394.803532 310.4682,396.694746 310.5045,399.674341 C310.6816,399.910468 310.8807,400.161971 311.0688,400.406884 C310.9346,400.471682 310.7762,400.556249 310.5793,400.660584 C310.455,400.469486 310.3197,400.268503 310.2009,400.080699 C307.7952,399.193301 306.198,398.850642 306.2684,398.856133 C306.7843,398.915439 308.0779,399.126306 309.9094,399.615035 C309.5167,398.974746 309.1691,398.378387 308.8622,397.830353 C307.1671,396.905613 306.0253,396.476191 306.077,396.48937 C306.4488,396.587116 307.3607,396.880353 308.6411,397.430584 C307.87,396.021509 307.4069,394.995728 307.2287,394.55752 C307.2067,394.499312 307.7611,395.594283 308.8292,397.250468 C308.7522,395.780988 308.7709,394.756306 308.7973,394.338965 C308.7995,394.282954 308.8292,395.601971 309.0954,397.65463 C309.4188,398.146653 309.7851,398.679312 310.1877,399.239428 C310.3197,397.019832 310.5287,395.492145 310.6365,394.887 M306.7656,401.175671 C307.2056,401.157 308.1461,401.153705 309.4738,401.242665 C309.3418,401.307462 309.2065,401.375555 309.0646,401.444746 C307.5895,401.231682 306.7106,401.178965 306.7656,401.175671 M303.5184,407.07226 C304.9066,406.972318 305.8669,406.99648 306.2508,407.023936 C306.3036,407.027231 305.0837,407.061277 303.1774,407.378676 C302.7088,407.793821 302.1819,408.245208 301.6011,408.716364 C303.4909,408.856942 304.7834,409.082087 305.2905,409.199601 C305.3576,409.213879 303.7373,409.012896 301.1721,409.062318 C300.7849,409.369832 300.379,409.683936 299.9511,410.007925 C302.0708,410.510931 303.4986,410.999659 304.0552,411.224803 C304.1289,411.255555 302.3612,410.743763 299.5045,410.337405 C299.4055,410.40989 299.3043,410.487867 299.1998,410.560353 C298.8225,410.832723 298.4375,411.082029 298.0481,411.307173 C300.2382,412.028734 301.7045,412.675613 302.2776,412.963358 C302.3535,413.000699 300.5132,412.296711 297.5091,411.604803 C297.0449,411.850815 296.5785,412.063879 296.1209,412.254977 C297.8655,413.096249 299.0238,413.790353 299.4847,414.101162 C299.5474,414.141798 298.0833,413.360931 295.6413,412.44278 C295.0407,412.673416 294.461,412.85463 293.9275,413.002896 C295.4059,413.936422 296.3728,414.681046 296.7446,414.998445 C296.7941,415.036884 295.5621,414.179139 293.4831,413.118214 C293.1795,413.193994 292.9012,413.255497 292.6394,413.31041 C292.6042,413.204977 292.5679,413.097347 292.5316,412.989717 C292.8132,412.889775 293.1058,412.800815 293.383,412.693185 C293.9077,410.281393 294.0782,408.737231 294.0771,408.805324 C294.0617,409.339081 293.9671,410.667983 293.6855,412.573474 C294.186,412.368098 294.6788,412.155035 295.1573,411.934283 C295.8558,408.820699 296.0791,406.793301 296.0769,406.88226 C296.0571,407.548908 295.9339,409.274283 295.5544,411.745382 C296.1209,411.475208 296.6709,411.19515 297.2066,410.907405 C298.1526,407.588445 298.5222,405.427058 298.5145,405.522607 C298.4474,406.243069 298.2087,408.062896 297.662,410.658098 C298.1383,410.390121 298.597,410.123243 299.0436,409.851971 C300.1161,406.695555 300.577,404.612145 300.5638,404.697809 C300.4681,405.380931 300.1579,407.110699 299.5144,409.563127 C300.0424,409.230353 300.5451,408.903069 301.0181,408.576884 C302.0356,405.776306 302.4866,403.933416 302.4734,404.014688 C302.3755,404.622029 302.0686,406.131046 301.4614,408.270468 C302.0279,407.876191 302.5482,407.491798 303.0146,407.134861 C303.9452,405.284283 304.4061,404.047636 304.3907,404.100353 C304.2763,404.502318 303.9562,405.47648 303.3996,406.838329 C304.9539,405.626942 305.8383,404.774688 305.7987,404.820815 C305.4852,405.177751 304.7119,405.99596 303.5184,407.07226 M291.4767,413.42463 C291.5405,413.444399 291.6021,413.467462 291.6659,413.485035 C291.6109,413.494919 291.5614,413.501509 291.5119,413.509197 C291.4998,413.479543 291.4877,413.452087 291.4767,413.42463 M303.4634,475.889601 C303.4634,475.889601 302.4811,475.463474 301.1721,474.602434 C298.8588,474.922029 297.4123,475.328387 297.4728,475.305324 C297.9282,475.127405 299.0876,474.741913 300.7904,474.345439 C300.3339,474.030237 299.8488,473.667809 299.356,473.25596 C296.7479,473.319659 295.11,473.574457 295.1793,473.555786 C295.7172,473.415208 297.0405,473.140642 298.9655,472.920988 C298.5959,472.589312 298.223,472.234572 297.8677,471.851277 C294.802,471.517405 292.833,471.578908 292.9188,471.565728 C293.5524,471.483358 295.1507,471.352665 297.4574,471.393301 C297.1637,471.050642 296.8832,470.689312 296.6148,470.308214 C296.5422,470.203879 296.4707,470.099543 296.4003,469.997405 C293.5689,469.44278 291.733,469.343936 291.8122,469.340642 C292.4106,469.313185 293.9209,469.319775 296.089,469.539428 C295.7898,469.095728 295.5104,468.661913 295.2464,468.246769 C292.8418,467.358272 291.2435,467.013416 291.3139,467.022202 C291.8309,467.077116 293.1256,467.291277 294.956,467.782202 C294.5633,467.143012 294.2146,466.544457 293.9088,465.99752 C292.2137,465.071682 291.0719,464.638965 291.1225,464.652145 C291.4943,464.754283 292.4073,465.045324 293.6855,465.596653 C292.9155,464.18648 292.4524,463.162896 292.2742,462.722491 C292.2522,462.665382 292.8088,463.759254 293.8758,465.413243 C293.7977,463.94596 293.8175,462.921277 293.8428,462.502838 C293.845,462.446827 293.8736,463.769139 294.142,465.820699 C294.4632,466.312723 294.8306,466.845382 295.2343,467.404399 C295.3674,465.185902 295.5731,463.658214 295.682,463.049775 C295.6963,462.969601 295.5137,464.858618 295.5511,467.838214 C295.891,468.299486 296.2562,468.777231 296.6478,469.261566 C296.848,466.734457 297.1219,465.002491 297.2583,464.327058 C297.2759,464.238098 297.024,466.35885 296.9976,469.694283 C297.3287,470.094052 297.6752,470.498214 298.0349,470.905671 C298.3737,468.276422 298.7477,466.479659 298.9237,465.775671 C298.9479,465.684514 298.5838,467.845902 298.3836,471.291162 C298.7928,471.737058 299.2218,472.182954 299.6673,472.626653 C300.1238,470.165439 300.577,468.49937 300.7772,467.860179 C300.8036,467.780006 300.346,469.763474 299.9797,472.931971 C300.3603,473.29989 300.7552,473.664514 301.16,474.020353 C301.5219,472.129139 301.8706,470.843069 302.0312,470.333474 C302.0532,470.268676 301.7023,471.784283 301.4053,474.233416 C301.9762,474.721046 302.5702,475.194399 303.1862,475.649081 C303.1862,475.649081 303.5503,475.944514 303.4634,475.889601 M289.0171,500.53359 C289.0435,500.450121 288.5859,502.435786 288.2196,505.604283 C288.5133,505.888734 288.8224,506.167694 289.1326,506.445555 C289.1271,506.742087 289.1271,507.030931 289.1304,507.31648 C286.9887,507.627289 285.6555,507.997405 285.7116,507.976538 C286.1681,507.79752 287.3264,507.413127 289.0303,507.017751 C288.5738,506.703647 288.0887,506.34122 287.5948,505.926075 C284.9867,505.993069 283.3488,506.246769 283.4181,506.229197 C283.9582,506.089717 285.2804,505.814052 287.2054,505.592202 C286.8358,505.260526 286.4651,504.907983 286.1087,504.521393 C283.043,504.18752 281.074,504.247925 281.1576,504.23804 C281.7923,504.155671 283.3906,504.024977 285.6973,504.064514 C285.4025,503.721855 285.1209,503.360526 284.8547,502.978329 C284.7821,502.877289 284.7106,502.771855 284.6402,502.669717 C281.8088,502.115092 279.9729,502.017347 280.051,502.012954 C280.6505,501.985497 282.1608,501.98989 284.3289,502.209543 C284.0308,501.765844 283.7492,501.334225 283.4874,500.916884 C281.0795,500.029486 279.4823,499.687925 279.5538,499.693416 C280.0686,499.749428 281.3633,499.962491 283.1948,500.452318 C282.8021,499.815324 282.4523,499.215671 282.1465,498.669832 C280.4536,497.742896 279.3118,497.311277 279.3624,497.323358 C279.7342,497.424399 280.6483,497.716538 281.9243,498.267867 C281.1543,496.860988 280.6923,495.83411 280.5152,495.395902 C280.4921,495.336595 281.0465,496.431566 282.1146,498.086653 C282.0376,496.618272 282.0552,495.592491 282.0838,495.17515 C282.0849,495.119139 282.1124,496.441451 282.3808,498.491913 C282.7053,498.983936 283.0705,499.515497 283.4731,500.076711 C283.6062,497.856017 283.813,496.329428 283.9208,495.723185 C283.934,495.641913 283.7547,497.533127 283.791,500.510526 C284.1309,500.970699 284.4972,501.447347 284.8866,501.934977 C285.0879,499.406769 285.3629,497.673705 285.4982,496.997173 C285.5158,496.911509 285.2628,499.031162 285.2375,502.365497 C285.5675,502.765266 285.914,503.169428 286.2748,503.575786 C286.6147,500.947636 286.9876,499.150873 287.1625,498.446884 C287.1867,498.355728 286.8237,500.519312 286.6224,503.962376 C287.0327,504.410468 287.4606,504.855266 287.9061,505.297867 C288.3637,502.839948 288.8158,501.169486 289.0171,500.53359 M292.8957,508.309312 C292.5855,508.277462 292.3028,508.239023 292.0366,508.198387 C292.0399,508.087462 292.0443,507.975439 292.0465,507.86122 C292.3479,507.863416 292.6515,507.883185 292.9485,507.873301 C294.274,505.792087 294.9659,504.399486 294.9406,504.463185 C294.7404,504.958503 294.1959,506.174283 293.2763,507.866711 C293.8153,507.846942 294.351,507.815092 294.8768,507.773358 C296.6071,505.090295 297.5135,503.263879 297.4827,503.344052 C297.233,503.965671 296.5213,505.54278 295.3146,507.733821 C295.9394,507.672318 296.5543,507.599832 297.1549,507.511971 C299.1866,504.722376 300.2811,502.820179 300.2382,502.905844 C299.9269,503.563705 299.0766,505.186942 297.6686,507.436191 C298.2065,507.349428 298.7312,507.254977 299.2405,507.156133 C301.3382,504.559832 302.4888,502.760873 302.447,502.839948 C302.1225,503.448387 301.2348,504.962896 299.785,507.045208 C300.3944,506.913416 300.9796,506.777231 301.5362,506.635555 C303.4568,504.354457 304.5172,502.780642 304.4765,502.850931 C304.174,503.387983 303.3655,504.701509 302.0587,506.500468 C302.7264,506.324746 303.349,506.142434 303.9089,505.967809 C305.4203,504.54885 306.2805,503.545035 306.2464,503.59226 C306.0011,503.930526 305.3653,504.735555 304.372,505.822838 C306.2486,505.218792 307.3728,504.722376 307.3189,504.752029 C306.9042,504.980468 305.8944,505.480179 304.4039,506.082029 C305.7415,506.466422 306.6336,506.817867 306.9845,506.976017 C307.0318,506.997983 305.8746,506.608098 303.9771,506.25226 C303.393,506.482896 302.744,506.725613 302.0345,506.969428 C303.7626,507.749197 304.8989,508.403763 305.3334,508.688214 C305.3906,508.725555 303.9386,507.978734 301.5153,507.142954 C301.0456,507.300006 300.555,507.45596 300.0424,507.610815 C301.8585,508.810121 303.0311,509.764514 303.4755,510.163185 C303.5338,510.218098 302.051,509.131913 299.51,507.768965 C299.3901,507.800815 299.2691,507.837058 299.1459,507.871104 C298.6971,507.998503 298.2505,508.098445 297.8072,508.178618 C299.6156,509.606364 300.7695,510.720006 301.2062,511.185671 C301.2656,511.248272 299.7806,509.955613 297.1967,508.273069 C296.6775,508.344457 296.166,508.383994 295.6699,508.40596 C297.0185,509.794168 297.8655,510.847405 298.1933,511.294399 C298.2362,511.352607 297.1329,510.118156 295.154,508.415844 C294.5116,508.425728 293.9066,508.398272 293.3533,508.352145 C294.4203,509.737058 295.0715,510.766133 295.3102,511.193358 C295.3421,511.248272 294.483,510.02041 292.8957,508.309312 M290.9069,507.90515 C290.9608,507.947983 291.0103,507.988618 291.062,508.030353 C291.0081,508.018272 290.9608,508.008387 290.9113,507.998503 C290.9102,507.965555 290.9091,507.938098 290.9069,507.90515 M294.4335,295.51041 C294.5182,295.23804 294.6018,294.962376 294.6832,294.676827 C295.0594,294.498908 295.4345,294.320988 295.7997,294.133185 C296.364,290.994341 296.4982,288.961451 296.4993,289.047116 C296.5081,289.71596 296.4597,291.443532 296.1869,293.930006 C296.7424,293.635671 297.2803,293.330353 297.8006,293.019543 C298.6047,289.664341 298.8797,287.488676 298.8753,287.583127 C298.8401,288.307983 298.6784,290.137694 298.2461,292.751566 C298.7092,292.464919 299.158,292.177173 299.5892,291.889428 C300.5264,288.689081 300.8971,286.585902 300.8872,286.674861 C300.8234,287.361277 300.5858,289.100931 300.0512,291.578618 C300.5627,291.223879 301.0511,290.87463 301.5098,290.530873 C302.4052,287.687462 302.777,285.824803 302.7671,285.908272 C302.6956,286.520006 302.4514,288.041104 301.9388,290.204688 C302.4866,289.784052 302.9915,289.37989 303.4436,289.003185 C304.2906,287.113069 304.6987,285.856653 304.6844,285.912665 C304.5898,286.319023 304.3126,287.306364 303.8154,288.689081 C305.3147,287.412896 306.1617,286.524399 306.1232,286.572723 C305.8262,286.94174 305.0881,287.790699 303.9441,288.919717 C305.3246,288.75937 306.2849,288.741798 306.6699,288.753879 C306.7227,288.754977 305.505,288.839543 303.6152,289.239312 C303.1642,289.674225 302.6571,290.14648 302.0961,290.643994 C303.9936,290.703301 305.2927,290.873532 305.8042,290.966884 C305.8724,290.980064 304.2455,290.848272 301.6836,291.006422 C301.3107,291.331509 300.9191,291.663185 300.5055,292.002549 C302.6439,292.414399 304.0926,292.844919 304.658,293.043705 C304.7317,293.070064 302.9442,292.636249 300.0732,292.352896 C299.9764,292.429775 299.8785,292.509948 299.7784,292.587925 C299.4132,292.875671 299.0403,293.141451 298.6597,293.384168 C300.8795,294.009081 302.3733,294.594457 302.9552,294.855844 C303.0322,294.892087 301.1655,294.264977 298.1328,293.70596 C297.6807,293.969543 297.2242,294.203474 296.7743,294.414341 C298.5552,295.178734 299.7399,295.823416 300.2151,296.113358 C300.28,296.147405 298.7829,295.43463 296.3035,294.621913 C295.7139,294.875613 295.143,295.082087 294.615,295.255613 C296.133,296.123243 297.1307,296.823936 297.5168,297.124861 C297.5652,297.162202 296.3948,296.425266 294.4335,295.51041 M291.4833,295.19411 C291.4525,295.302838 291.4239,295.410468 291.3931,295.520295 C291.1291,295.480757 290.8475,295.435728 290.5406,295.379717 C288.5287,296.561451 287.3495,297.490584 287.3957,297.445555 C287.7488,297.107289 288.6706,296.307751 290.0907,295.288561 C289.5484,295.172145 288.9588,295.024977 288.3461,294.830584 C285.9624,295.892607 284.5489,296.754746 284.6072,296.711913 C285.0494,296.37804 286.1648,295.614746 287.8566,294.671335 C287.388,294.507694 286.9084,294.325382 286.4321,294.106827 C283.4731,294.974457 281.6779,295.786075 281.7527,295.743243 C282.3071,295.420353 283.7316,294.688908 285.8755,293.839948 C285.4751,293.637867 285.0736,293.412723 284.6809,293.16122 C284.5753,293.094225 284.4675,293.025035 284.3641,292.95804 C281.536,293.532434 279.8035,294.146364 279.8739,294.113416 C280.4162,293.85752 281.8121,293.282029 283.8988,292.654919 C283.4533,292.357289 283.0287,292.068445 282.6261,291.785092 C280.0609,291.886133 278.456,292.182665 278.522,292.163994 C279.0192,292.016827 280.2963,291.715902 282.1762,291.466595 C281.5679,291.028387 281.0157,290.60885 280.5229,290.220064 C278.6012,290.017983 277.3813,290.056422 277.4341,290.049832 C277.8158,289.999312 278.7717,289.919139 280.1643,289.936711 C278.9103,288.930699 278.0886,288.161913 277.7553,287.824746 C277.7124,287.779717 278.6463,288.577058 280.2688,289.696191 C279.6319,288.369486 279.2546,287.417289 279.1171,287.021913 C279.0984,286.968098 279.633,288.175092 280.6692,289.967462 C281.1576,290.299139 281.6988,290.650584 282.2884,291.010815 C281.5558,288.912029 281.1609,287.421682 281.0256,286.822029 C281.008,286.739659 281.5679,288.555092 282.7482,291.291971 C283.2399,291.586306 283.7613,291.886133 284.308,292.18596 C283.5215,289.776364 283.1079,288.068561 282.9726,287.392029 C282.955,287.305266 283.538,289.360121 284.7975,292.448445 C285.2562,292.690064 285.7325,292.931682 286.222,293.170006 C285.5224,290.612145 285.177,288.80989 285.067,288.092723 C285.0538,287.99937 285.551,290.135497 286.6917,293.390757 C287.2417,293.646653 287.8104,293.893763 288.3912,294.130988 C287.8654,291.687347 287.641,289.970757 287.5816,289.305208 C287.5739,289.220642 287.9171,291.22937 288.7982,294.293532 C289.2899,294.486827 289.7948,294.671335 290.3052,294.84596 C289.9125,292.960237 289.7387,291.640121 289.6925,291.107462 C289.687,291.03937 289.9488,292.573647 290.6143,294.947 C290.8981,295.040353 291.1951,295.109543 291.4833,295.19411 M292.5327,295.652087 C292.481,295.646595 292.4326,295.643301 292.3765,295.637809 C292.4392,295.614746 292.4975,295.587289 292.5613,295.564225 C292.5503,295.59278 292.5415,295.622434 292.5327,295.652087 M289.775,261.293936 C289.676,261.321393 290.1105,261.141277 290.1105,261.141277 C290.831,260.885382 291.5383,260.603127 292.2236,260.298908 C292.6449,257.869543 292.7483,256.317694 292.7505,256.385786 C292.7571,256.919543 292.7197,258.249543 292.5217,260.166017 C293.0123,259.940873 293.4952,259.706942 293.9649,259.464225 C294.527,256.324283 294.6634,254.291393 294.6667,254.378156 C294.6733,255.045902 294.6249,256.774572 294.3521,259.25885 C294.9065,258.965613 295.4466,258.660295 295.9669,258.350584 C296.7699,254.995382 297.0449,252.819717 297.0416,252.915266 C297.0053,253.639023 296.8436,255.467636 296.4113,258.082607 C296.8733,257.79596 297.3243,257.507116 297.7544,257.220468 C298.6916,254.019023 299.0634,251.916942 299.0535,252.004803 C298.9897,252.692318 298.7521,254.430873 298.2153,256.908561 C298.7279,256.554919 299.2163,256.204572 299.6761,255.860815 C300.5704,253.018503 300.9422,251.156942 300.9334,251.238214 C300.8608,251.849948 300.6177,253.373243 300.1051,255.53463 C300.6529,255.115092 301.1567,254.709832 301.6088,254.333127 C302.4569,252.44411 302.8639,251.187694 302.8507,251.243705 C302.755,251.651162 302.4778,252.638503 301.9795,254.02122 C303.4799,252.743936 304.3258,251.856538 304.2884,251.903763 C303.9914,252.27278 303.2533,253.120642 302.1093,254.249659 C303.4909,254.09041 304.4512,254.072838 304.8351,254.083821 C304.8879,254.084919 303.6702,254.171682 301.7793,254.569254 C301.3294,255.005266 300.8223,255.47752 300.2624,255.976133 C302.1577,256.033243 303.459,256.201277 303.9683,256.296827 C304.0387,256.310006 302.4096,256.178214 299.8488,256.337462 C299.4759,256.661451 299.0843,256.993127 298.6707,257.334688 C300.8091,257.744341 302.2567,258.17596 302.8232,258.373647 C302.8969,258.401104 301.1105,257.967289 298.2395,257.683936 C298.1427,257.761913 298.0426,257.838792 297.9436,257.917867 C297.5773,258.205613 297.2044,258.472491 296.8249,258.715208 C299.0447,259.34122 300.5374,259.923301 301.1215,260.186884 C301.1974,260.222029 299.3307,259.598214 296.298,259.037 C295.8459,259.300584 295.3894,259.533416 294.9395,259.744283 C296.7204,260.509775 297.9062,261.154457 298.3814,261.443301 C298.4441,261.479543 296.9481,260.764572 294.4687,259.952954 C293.8802,260.206653 293.3093,260.414225 292.7802,260.585555 C294.2971,261.453185 295.2959,262.156075 295.6809,262.457 C295.7326,262.495439 294.4643,261.69041 292.3413,260.719543 C290.8387,261.167636 289.775,261.293936 289.775,261.293936 M297.6906,191.143301 C297.3012,191.259717 296.9415,191.354168 296.6214,191.429948 C296.628,191.317925 296.6335,191.208098 296.639,191.093879 C296.9492,190.967578 297.2693,190.856653 297.5718,190.722665 C297.9931,188.293301 298.0965,186.741451 298.0976,186.809543 C298.1042,187.342202 298.069,188.673301 297.8688,190.589775 C298.3594,190.36463 298.8434,190.129601 299.3131,189.887983 C299.8763,186.74804 300.0116,184.71515 300.0138,184.801913 C300.0215,185.469659 299.9731,187.198329 299.7003,189.683705 C300.2558,189.388272 300.7937,189.08515 301.3151,188.774341 C302.1181,185.419139 302.3942,183.242376 302.3887,183.336827 C302.3557,184.06278 302.1951,185.891393 301.7606,188.506364 C302.2237,188.219717 302.6714,187.930873 303.1037,187.643127 C304.042,184.443879 304.4116,182.340699 304.4028,182.427462 C304.3379,183.116075 304.1003,184.85463 303.5635,187.332318 C304.0772,186.978676 304.5645,186.629428 305.0232,186.284572 C305.9186,183.441162 306.2904,181.579601 306.2816,181.661971 C306.2079,182.273705 305.9659,183.794803 305.4533,185.958387 C306.0022,185.53885 306.506,185.13359 306.9559,184.755786 C307.804,182.867867 308.2132,181.612549 308.1978,181.665266 C308.1032,182.073821 307.826,183.061162 307.3288,184.444977 C308.8292,183.167694 309.6762,182.278098 309.6366,182.32752 C309.3396,182.696538 308.6015,183.544399 307.4564,184.673416 C308.8402,184.514168 309.7994,184.496595 310.1833,184.507578 C310.2361,184.508676 309.0184,184.594341 307.1297,184.991913 C306.6798,185.429023 306.1716,185.901277 305.6106,186.398792 C307.5059,186.458098 308.8061,186.626133 309.3187,186.721682 C309.3858,186.733763 307.7589,186.603069 305.197,186.762318 C304.8252,187.086306 304.4336,187.416884 304.0189,187.757347 C306.1573,188.168098 307.6071,188.598618 308.1703,188.797405 C308.2462,188.82596 306.4598,188.389948 303.5866,188.107694 C303.4898,188.183474 303.393,188.264746 303.2929,188.341624 C302.9277,188.630468 302.5537,188.89515 302.1731,189.137867 C304.394,189.764977 305.8856,190.348156 306.4697,190.61174 C306.5478,190.646884 304.68,190.021971 301.6473,189.459659 C301.1952,189.724341 300.7387,189.957173 300.2877,190.16804 C302.0686,190.932434 303.2555,191.578214 303.7285,191.86596 C303.7923,191.903301 302.2974,191.188329 299.818,190.376711 C299.2273,190.63041 298.6564,190.836884 298.1284,191.008214 C299.6453,191.875844 300.6452,192.578734 301.0291,192.880757 C301.0808,192.919197 299.8125,192.114168 297.6906,191.143301 M300.7695,222.77226 C300.7695,222.77226 299.6981,222.755786 298.157,222.463647 C296.1451,223.644283 294.9659,224.574514 295.0132,224.530584 C295.3663,224.192318 296.287,223.391682 297.7071,222.372491 C297.1637,222.257173 296.5741,222.110006 295.9625,221.915613 C293.5788,222.976538 292.1653,223.840873 292.2236,223.796942 C292.6669,223.460873 293.7801,222.699775 295.4719,221.757462 C295.0044,221.592723 294.5248,221.408214 294.0474,221.190757 C291.0906,222.058387 289.2954,222.870006 289.3691,222.827173 C289.9224,222.50648 291.3469,221.773936 293.4941,220.924977 C293.0904,220.721798 292.6911,220.495555 292.2973,220.24515 C292.1906,220.178156 292.085,220.108965 291.9816,220.043069 C289.1524,220.617462 287.4199,221.231393 287.4914,221.196249 C288.0326,220.942549 289.4285,220.364861 291.5152,219.73885 C291.0686,219.442318 290.6451,219.152376 290.2414,218.869023 C287.6762,218.970064 286.0724,219.267694 286.1384,219.247925 C286.6367,219.100757 287.9127,218.799832 289.7937,218.550526 C289.1854,218.112318 288.6332,217.69278 288.1382,217.305092 C286.2176,217.101913 284.9977,217.141451 285.0516,217.133763 C285.4322,217.083243 286.3892,217.004168 287.7796,217.020642 C286.5267,216.015728 285.705,215.246942 285.3717,214.909775 C285.3288,214.864746 286.2616,215.663185 287.8841,216.78122 C287.2483,215.454514 286.8721,214.50122 286.7346,214.105844 C286.7137,214.052029 287.2494,215.26122 288.2867,217.05359 C288.7729,217.381971 289.3163,217.733416 289.9048,218.095844 C289.1733,215.99596 288.7762,214.506711 288.6409,213.904861 C288.6244,213.825786 289.1854,215.640121 290.3657,218.375902 C290.8563,218.671335 291.3777,218.968965 291.9255,219.26989 C291.1379,216.859197 290.7232,215.15359 290.589,214.477058 C290.5714,214.390295 291.1533,216.444052 292.415,219.532376 C292.8737,219.775092 293.35,220.015613 293.8395,220.253936 C293.1399,217.696075 292.7934,215.894919 292.6834,215.176653 C292.6702,215.083301 293.1685,217.219428 294.3103,220.474688 C294.8592,220.730584 295.4257,220.978792 296.0076,221.214919 C295.4829,218.770179 295.2574,217.055786 295.1969,216.390237 C295.1914,216.304572 295.5324,218.313301 296.4146,221.378561 C296.9074,221.571855 297.4101,221.756364 297.9227,221.92989 C297.5289,220.045266 297.3562,218.724052 297.3078,218.192491 C297.3023,218.124399 297.5652,219.657578 298.2307,222.030931 C298.9457,222.263763 299.6761,222.473532 300.4186,222.654746 C300.4186,222.654746 300.8707,222.790931 300.7695,222.77226 M262.4004,297.433474 C264.3111,299.368618 264.7577,300.072607 266.8378,304.76989 C268.9168,309.46937 272.5512,312.694977 276.5871,312.984919 C278.6067,313.128792 280.2633,312.432491 281.4139,311.701046 C281.6724,317.096827 280.3689,320.570642 279.0016,324.203705 C277.3054,328.712087 275.552,333.374225 276.9589,341.764977 C278.3669,350.15463 281.5437,353.993069 284.6171,357.703012 C287.6784,361.397578 290.567,364.885671 291.8969,372.809659 C292.2566,374.952376 292.3963,376.818329 292.3842,378.500873 C290.6506,373.292896 288.8378,367.487462 279.204,368.497867 C275.2792,368.910815 269.953,364.634168 271.8637,366.571509 C273.7744,368.505555 274.221,369.21174 276.3022,373.909023 C278.3823,378.608503 282.0156,381.831913 286.0504,382.124052 C289.258,382.350295 291.5449,380.465671 292.349,379.683705 C292.14,383.600121 291.0653,386.478676 289.9422,389.461566 C288.4099,393.536133 286.8402,397.744688 287.5871,404.70989 C285.7512,403.467751 283.1871,402.819775 279.4273,403.216249 C275.5025,403.627 270.1774,399.350353 272.0881,401.288792 C273.9988,403.222838 274.4443,403.929023 276.5255,408.62411 C278.6067,413.324688 282.24,416.548098 286.2726,416.840237 C288.0326,416.964341 289.5154,416.452549 290.6308,415.836422 C292.0872,418.768792 293.8406,420.887347 295.561,422.965266 C298.1691,426.112896 300.6496,429.122145 302.15,434.845208 C302.095,435.107694 302.0367,435.364688 301.985,435.63596 C300.4142,443.997058 302.0741,448.692145 303.6801,453.233474 C305.2795,457.753936 306.7909,462.022896 305.3059,469.920526 C304.9044,472.055555 304.3918,473.857809 303.8,475.430526 C303.9672,469.945786 304.2686,463.873474 294.8746,461.508908 C291.0488,460.54463 287.5222,454.698561 288.6475,457.177347 C289.775,459.648445 289.951,460.466653 290.2854,465.588965 C290.6176,470.716769 292.9177,474.994514 296.606,476.652896 C299.5386,477.970815 302.3381,476.984572 303.36,476.526595 C301.8145,480.133301 299.8125,482.467116 297.7302,484.882202 C294.8867,488.179197 291.9607,491.591509 290.2612,498.383185 C288.9643,496.58752 286.7786,495.102665 283.1156,494.180121 C279.2876,493.21804 275.7621,487.371971 276.8885,489.847462 C278.0138,492.321855 278.1898,493.137867 278.5231,498.262376 C278.8575,503.387983 281.1576,507.666827 284.8448,509.326306 C286.453,510.047867 288.0227,510.076422 289.28,509.880931 C289.6375,513.135092 290.5538,515.725902 291.4514,518.268387 C293.0519,522.789948 294.5611,527.058908 293.0772,534.957636 C292.9881,535.432087 293.3038,535.893358 293.7823,535.984514 C294.2619,536.074572 294.7228,535.758272 294.8141,535.280526 C296.3849,526.918329 294.7239,522.223243 293.1179,517.679717 C292.2687,515.280006 291.4481,512.943994 291.0851,510.10278 C291.9354,511.140642 293.24,512.276249 295.1243,512.786942 C299.0304,513.837983 303.5261,511.986306 307.0373,508.230237 C310.5496,504.479659 311.2041,503.960179 313.645,502.760873 C316.0892,501.557173 309.6498,503.84596 306.0792,502.168908 C298.7972,498.745613 295.0616,501.543994 292.0839,505.082607 C292.0575,503.65596 291.9211,502.242491 291.5108,500.914688 C292.9991,493.076364 295.9482,489.651971 299.0678,486.032087 C302.2138,482.380353 305.4687,478.606711 307.0406,470.244514 C308.6147,461.882318 306.9526,457.187231 305.3466,452.647 C303.9419,448.678965 302.6087,444.902029 303.3072,438.69463 C303.4722,438.781393 303.6603,438.830815 303.8561,438.796769 C304.3379,438.717694 304.6624,438.261913 304.5832,437.780873 C304.5821,437.778676 304.581,437.772087 304.5799,437.767694 C305.4137,438.882434 306.7887,440.20804 308.8699,440.770353 C312.776,441.82359 317.2717,439.969717 320.784,436.213647 C324.2952,432.463069 324.9486,431.944688 327.3917,430.745382 C329.8337,429.541682 323.3954,431.831566 319.8237,430.154514 C311.0545,426.031624 307.4311,430.92989 304.0772,435.279023 C304.0387,435.117578 304.0024,434.950642 303.9628,434.792491 C305.5105,427.722954 308.3243,424.450121 311.2965,421.001566 C314.0344,417.824283 316.8559,414.551451 318.5763,408.239717 C318.6753,408.190295 318.7292,408.159543 318.7292,408.159543 C318.7336,407.967347 318.7391,407.772954 318.7446,407.578561 C318.9349,406.830642 319.1131,406.053069 319.2693,405.217289 C320.8412,396.856191 319.1802,392.160006 317.5731,387.618676 C315.9737,383.098214 314.4634,378.830353 315.9473,370.934919 C316.0375,370.456075 315.7229,369.994803 315.2433,369.905844 C314.7637,369.815786 314.3028,370.132087 314.2137,370.609832 C312.6396,378.969832 314.3017,383.664919 315.9077,388.207347 C317.1221,391.640526 318.2826,394.933127 318.1209,399.774283 C317.1606,396.997867 314.9221,394.624514 309.8291,393.342838 C306.0033,392.379659 302.4778,386.536884 303.602,389.011277 C304.7284,391.485671 304.9044,392.300584 305.2388,397.425092 C305.3576,399.257 305.7316,400.975786 306.3267,402.51226 C305.4588,402.753879 304.5711,402.895555 303.7417,402.821971 C295.7183,402.111393 293.1839,406.032202 291.6087,410.37804 C291.0917,409.053532 290.4724,407.783936 289.6353,406.680179 C288.3219,398.789139 289.9125,394.55752 291.5966,390.082087 C293.2928,385.573705 295.0462,380.910468 293.6371,372.518618 C292.2324,364.126769 289.0523,360.290526 285.98,356.580584 C282.9605,352.935439 280.1115,349.482491 278.7596,341.785844 C279.4724,342.485439 281.8506,344.508445 285.1946,344.217405 C289.2217,343.862665 292.8055,340.57885 294.8075,335.846422 C296.8117,331.116191 297.2473,330.403416 299.125,328.438618 C301.0038,326.471624 295.748,330.832838 291.8177,330.48359 C281.8814,329.604977 280.3535,335.816769 278.654,341.163127 C277.4198,333.443416 278.9884,329.250237 280.6549,324.824225 C281.0476,323.777578 281.4425,322.723243 281.8011,321.616191 C282.2444,321.616191 282.6316,321.293301 282.6789,320.843012 C283.5358,312.854225 286.2132,309.199197 289.0512,305.330006 C290.644,303.154341 292.2687,300.935844 293.5491,297.923301 C294.6975,298.472434 296.2078,298.897462 297.9579,298.666827 C301.9674,298.139659 305.4049,294.704283 307.2012,289.890584 C309.0008,285.080179 309.4045,284.349832 311.1953,282.303763 C312.9872,280.257694 307.9272,284.839659 303.9848,284.660642 C300.2074,284.49041 297.6873,285.28885 295.9262,286.636422 C296.2606,279.63937 294.4423,275.529659 292.6713,271.553936 C291.3744,268.642434 290.1314,265.831971 289.6903,261.934225 C290.5384,262.667867 292.9342,264.416306 296.1231,263.997867 C300.1326,263.469601 303.5701,260.035324 305.3686,255.221624 C307.1649,250.410121 307.5697,249.679775 309.3616,247.635902 C311.1535,245.588734 306.0913,250.171798 302.1489,249.99278 C292.4722,249.552376 291.007,255.456653 289.5847,260.756884 C289.4736,259.078734 289.5022,257.207289 289.7343,255.047 C290.5912,247.058214 293.2686,243.405382 296.1055,239.537289 C298.9523,235.650526 301.8992,231.631971 302.8056,223.173127 C303.7142,214.714283 301.6858,210.164168 299.7267,205.763416 C298.1471,202.217116 296.6379,198.827867 296.5752,193.425497 C297.7687,194.087751 299.4627,194.68411 301.4713,194.420526 C305.4819,193.893358 308.9183,190.459081 310.7168,185.645382 C312.5164,180.833879 312.919,180.10463 314.7109,178.059659 C316.5039,176.012491 311.4395,180.595555 307.4982,180.416538 C302.2413,180.178214 299.4165,181.816827 297.6972,184.20885 C298.9391,179.513763 301.0027,176.69122 303.1598,173.748965 C306.0077,169.862202 308.9524,165.844746 309.8599,157.385902 C309.9127,156.901566 309.5618,156.466653 309.0767,156.415035 C308.5905,156.362318 308.1571,156.713763 308.1043,157.198098 C307.2474,165.185786 304.5689,168.839717 301.7342,172.706711 C298.8852,176.593474 295.9383,180.613127 295.033,189.070873 C294.9428,189.914341 294.8889,190.708387 294.8537,191.478272 C294.802,191.666075 294.7514,191.857173 294.6997,192.043879 C294.6997,192.043879 294.7426,192.088908 294.8229,192.164688 C294.6491,198.702665 296.4069,202.649832 298.1119,206.480584 C300.038,210.80226 301.8508,214.894399 301.0775,222.674514 C299.0634,217.436884 297.1725,211.325035 287.3066,212.790121 C283.4016,213.370006 277.8972,209.327289 279.8871,211.180064 C281.8814,213.032838 282.3577,213.717058 284.6369,218.31989 C286.9172,222.924919 290.6891,225.992376 294.7316,226.108792 C298.0855,226.203243 300.3383,224.040757 301.0115,223.302723 C300.1161,231.065266 297.4761,234.679659 294.6799,238.496133 C291.8309,242.381798 288.8851,246.400353 287.9787,254.859197 C287.0701,263.319139 289.0974,267.870353 291.0576,272.270006 C293.0035,276.641104 294.8405,280.769486 294.0001,288.723127 C293.2279,289.875208 292.6856,291.179948 292.25,292.533012 C290.4185,288.284919 287.6564,284.52226 279.6891,285.706191 C275.7841,286.286075 270.2808,282.243358 272.2718,284.097231 C274.2639,285.947809 274.7402,286.633127 277.0216,291.23596 C279.3008,295.840988 283.0705,298.908445 287.1141,299.024861 C289.0677,299.079775 290.644,298.367 291.7572,297.619081 C290.589,300.234052 289.1304,302.233994 287.6245,304.28885 C286.0504,306.437058 284.4488,308.629197 283.175,311.586827 C283.1541,311.181566 283.1255,310.764225 283.0892,310.338098 C283.1651,310.257925 283.2047,310.210699 283.2047,310.210699 C283.1409,310.027289 283.0804,309.840584 283.0188,309.657173 C282.9385,308.888387 282.8373,308.098734 282.6965,307.262954 C281.2896,298.872202 278.1106,295.03596 275.0372,291.324919 C271.9781,287.630353 269.0862,284.141162 267.7585,276.218272 C267.6782,275.737231 267.2239,275.414341 266.741,275.493416 C266.2603,275.574688 265.9369,276.028272 266.0161,276.508214 C267.423,284.898965 270.602,288.737405 273.6765,292.447347 C276.0041,295.257809 278.2316,297.952954 279.7496,302.567867 C277.8917,300.281277 274.9745,298.811798 269.7407,299.360931 C265.8159,299.771682 260.4919,295.495035 262.4004,297.433474" id="plant"></path>
            </g>
        </g>
    </g>
</svg>