<?xml version="1.0" encoding="UTF-8"?>
<svg width="35px" height="34px" viewBox="0 0 35 34" version="1.1" xmlns="http://www.w3.org/2000/svg" xmlns:xlink="http://www.w3.org/1999/xlink">
    <!-- Generator: Sketch 63.1 (92452) - https://sketch.com -->
    <title>quote-marks</title>
    <desc>Created with Sketch.</desc>
    <g id="Home-Page" stroke="none" stroke-width="1" fill="none" fill-rule="evenodd">
        <g id="Under-Construction-Page---Narrow" transform="translate(-18.000000, -512.000000)" fill="#EDEDED" fill-rule="nonzero">
            <g id="Group" transform="translate(18.000000, 512.000000)">
                <g id="quote-marks">
                    <path d="M27.1943684,16.2479032 C26.2651545,16.1606747 24.2207665,16.1606747 24.2207665,14.9361637 C24.2207665,13.2749583 26.8224482,11.0887259 31.0039108,8.7274845 C32.3044583,7.94022 35,6.71626109 35,5.05450362 C35,3.74276417 33.9775127,2.78104274 31.840438,3.04328022 C29.7960501,3.30551769 26.6364881,4.61725714 22.455612,7.94022 C18.0881893,11.3509634 14,17.0351677 14,22.6315914 C14,28.3157957 18.0881893,34 24.6859601,34 C29.9820102,34 34.535393,30.2397907 34.535393,25.0800613 C34.5348064,21.144843 31.6544779,16.5979212 27.1943684,16.2479032 Z" id="Path"></path>
                    <path d="M15.6986703,13.9394098 C14.9354713,13.5640028 14.0983575,13.3183321 13.194955,13.2476673 C12.2657411,13.1604403 10.2213531,13.1604403 10.2213531,11.9359512 C10.2213531,10.2747754 12.8230348,8.08858188 17.0044975,5.7273825 C18.3056316,4.94013202 21,3.71619491 21,2.05446704 C21,0.742750946 19.9775127,-0.218953359 17.840438,0.0432794453 C15.7960501,0.305512249 12.6364881,1.61722834 8.45561205,4.94013202 C4.08877591,8.35081468 0,14.0349177 0,19.6317939 C0,25.3158969 4.08818928,31 10.6859601,31 C12.2369965,31 13.7235041,30.6753834 15.0510364,30.0896381 C13.7493156,27.874737 13.0553383,25.3120325 13.0553383,22.782452 C13.0559249,19.6588453 14.1247556,16.6296423 15.6986703,13.9394098 Z" id="Path"></path>
                </g>
            </g>
        </g>
    </g>
</svg>